<?xml version="1.0" standalone="no"?>
<!DOCTYPE svg PUBLIC "-//W3C//DTD SVG 1.1//EN" "http://www.w3.org/Graphics/SVG/1.1/DTD/svg11.dtd" >
<svg xmlns="http://www.w3.org/2000/svg" xmlns:xlink="http://www.w3.org/1999/xlink" version="1.1">
<metadata>
Created by FontForge 20170731 at Fri Feb  4 15:47:40 2022
 By Aleksey,,,
Copyright (c) 2013 by Robert E. Leuschke. All rights reserved.
</metadata>
<defs>
<font id="StyleScript" horiz-adv-x="835" >
  <font-face 
    font-family="StyleScript"
    font-weight="400"
    font-stretch="normal"
    units-per-em="2048"
    panose-1="0 0 0 0 0 0 0 0 0 0"
    ascent="1638"
    descent="-410"
    x-height="891"
    cap-height="1477"
    bbox="-352 -860 2615 1901"
    underline-thickness="102"
    underline-position="-307"
    unicode-range="U+000D-FB02"
  />
<missing-glyph horiz-adv-x="389" 
 />
    <glyph glyph-name=".notdef" horiz-adv-x="389" 
 />
    <glyph glyph-name=".null" horiz-adv-x="0" 
 />
    <glyph glyph-name="nonmarkingreturn" horiz-adv-x="682" 
 />
    <glyph glyph-name="NULL" horiz-adv-x="0" 
 />
    <glyph glyph-name="NULL" horiz-adv-x="0" 
 />
    <glyph glyph-name="CR" unicode="&#xd;" horiz-adv-x="389" 
 />
    <glyph glyph-name="space" unicode=" " horiz-adv-x="389" 
 />
    <glyph glyph-name="exclam" unicode="!" horiz-adv-x="475" 
d="M422 1337v-6l-100 -872q0 -10 -6.5 -15.5t-14.5 -5.5q-20 0 -20 21l-54 872v4q-1 32 27.5 50t67.5 18t69.5 -18.5t30.5 -47.5zM399 88q0 -41 -28.5 -69.5t-69.5 -28.5t-69.5 28.5t-28.5 69.5t28.5 69.5t69.5 28.5t69.5 -28.5t28.5 -69.5z" />
    <glyph glyph-name="quotedbl" unicode="&#x22;" horiz-adv-x="745" 
d="M322 1411v-2l-70 -383q0 -8 -19 -8q-18 0 -18 8l-49 383v2q-1 9 10 16t28 10t36 3q33 0 57.5 -8t24.5 -21zM573 1411v-2l-69 -383q0 -8 -19 -8q-18 0 -18 8l-49 383v2q-1 9 10 16t28 10t36 3q32 0 56.5 -8t24.5 -21z" />
    <glyph glyph-name="numbersign" unicode="#" horiz-adv-x="1251" 
d="M1192 834q-4 -13 -15 -25t-26 -12h-236l-49 -279h248q14 0 21.5 -9.5t7.5 -21.5q0 -8 -4 -20q-17 -35 -43 -35h-246l-74 -418q-6 -26 -39 -26q-20 0 -34.5 9.5t-14.5 27.5v6l72 401h-316l-73 -418q-6 -26 -39 -26q-20 0 -34.5 9.5t-14.5 27.5v6l71 401h-256q-26 0 -26 29
q0 8 4 20q4 13 15 25t28 12h250l51 279h-266q-29 0 -29 30q0 7 4 19q16 37 43 37h262l64 352q6 27 39 27q20 0 34.5 -9.5t14.5 -27.5v-6l-60 -336h314l63 352q6 27 39 27q20 0 34.5 -9.5t14.5 -27.5v-6l-59 -336h237q27 0 27 -29q0 -8 -4 -20zM774 518l51 279h-315l-49 -279
h313z" />
    <glyph glyph-name="dollar" unicode="$" horiz-adv-x="985" 
d="M926 408q0 -120 -86 -210t-224 -126v-158q0 -19 -8.5 -30t-21.5 -11q-10 0 -18.5 10t-8.5 29v147l-43 -4q-18 -2 -51 -2q-157 0 -247.5 73t-90.5 189q0 48 18 92t66.5 85.5t122.5 60.5q6 2 16 2q19 0 19 -14q0 -12 -13 -21q-55 -26 -83.5 -78.5t-28.5 -105.5
q0 -95 75.5 -157t196.5 -62q29 0 43 2v485q-45 20 -73.5 34.5t-65.5 39.5t-59.5 50t-40.5 62t-23 80q-2 10 -2 33q0 102 74 167t190 81v78q0 21 9 33t20 12q10 0 18 -11.5t8 -31.5v-76h15q90 0 153 -36t70 -105q0 -3 1 -11t1 -12q0 -80 -45 -82h-2q-18 -3 -21 39
q-3 65 -50 98t-122 35v-342q12 -5 37 -16q40 -17 60 -26t54.5 -27.5t53 -33.5t42.5 -39.5t35.5 -50.5t20.5 -61.5t9 -76.5zM795 342q0 87 -46 139.5t-135 96.5l2 -447q78 24 128.5 78t50.5 133zM559 766v311q-64 -10 -98.5 -48.5t-34.5 -84.5q0 -108 133 -178z" />
    <glyph glyph-name="percent" unicode="%" horiz-adv-x="983" 
d="M791 506q-63 0 -100.5 -71t-37.5 -159q0 -63 21.5 -105t62.5 -42q62 0 96.5 67.5t34.5 153.5q0 65 -20.5 110.5t-56.5 45.5zM797 557q87 0 132.5 -56t45.5 -139q0 -68 -28 -132.5t-83 -108t-123 -43.5q-97 0 -146.5 56.5t-49.5 141.5q0 106 70 193.5t182 87.5zM307 1139
q-63 0 -100 -71t-37 -159q0 -63 21.5 -105t62.5 -42q62 0 96.5 67.5t34.5 153.5q0 65 -20.5 110.5t-57.5 45.5zM932 1200q-42 -70 -214 -352.5t-291 -483.5t-202 -354q-16 -28 -57 -28q-33 0 -33 20q0 2 4 10q98 180 332 609.5t254 465.5q-80 -24 -160 -24q-50 0 -86 8
q13 -41 13 -78q0 -68 -27.5 -132.5t-82.5 -108t-124 -43.5q-97 0 -147 57t-50 143q0 106 70 193.5t182 87.5q79 0 125 -49q65 -29 127 -29q113 0 221 90q7 13 32 21t54 8q26 0 44 -6.5t18 -16.5q0 -6 -2 -8z" />
    <glyph glyph-name="ampersand" unicode="&#x26;" horiz-adv-x="1511" 
d="M1497 801q0 -49 -40.5 -96t-108.5 -76q-77 -34 -191 -58q96 -33 96 -139q0 -58 -30 -124.5t-90 -132.5t-139 -120.5t-188 -90t-226 -38.5h-25q-113 0 -207.5 34.5t-154.5 102.5q-34 39 -55 97t-21 123q0 25 8 75q17 87 73 161t135.5 125t170.5 84.5t186 47.5
q-12 2 -43.5 7.5t-48 9t-46.5 10.5t-48 13.5t-43.5 18t-41 24t-33.5 30.5t-27.5 39t-16 48.5t-6.5 59.5v25q6 80 57 148t128 111t166.5 67t176.5 24q38 0 54 -2q88 -9 137 -54t49 -104q0 -49 -35.5 -90.5t-103.5 -62.5q-20 -4 -29 -4q-23 0 -39 8.5t-16 19.5v2q2 4 10.5 7.5
t26.5 9.5t32 12q42 17 67 42.5t25 49.5q0 46 -88 55q-27 3 -53 3q-91 0 -171.5 -29t-133.5 -74t-83 -99.5t-30 -107.5q0 -79 65.5 -129.5t196.5 -50.5q79 0 195 25h6q43 3 43 -35q0 -33 -30.5 -75t-51.5 -42h-30q-389 0 -541 -172q-90 -101 -90 -213q0 -77 47.5 -134.5
t138.5 -78.5q56 -12 125 -12q78 0 161.5 14t165.5 44.5t146 72.5t104 103t40 132q0 50 -32 80.5t-87 30.5q-19 0 -29 -2q-14 -2 -31 -2h-2q-270 -36 -270 -154q0 -19 6 -37q4 -16 4 -24q0 -25 -16 -41.5t-37 -16.5q-30 0 -43 33q-4 12 -4 35q0 47 35 91.5t92 78t118.5 58
t125.5 40.5q77 18 120 29t125.5 42.5t122.5 64.5q47 38 47 75q0 29 -30.5 50.5t-81.5 25.5q-16 2 -47 2q-34 0 -85.5 -6t-56.5 -6h-2q-10 0 -10 8q0 18 27 35q66 37 151 37q88 0 150.5 -42.5t62.5 -125.5z" />
    <glyph glyph-name="quotesingle" unicode="'" horiz-adv-x="231" 
d="M287 1343q0 -85 -33 -171t-88 -136q-15 -12 -25 -12q-12 0 -12 14q0 11 6 17q80 102 80 190q0 4 -1 11t-1 10q-15 -6 -35 -6q-41 0 -69.5 28.5t-28.5 69.5t28.5 69.5t69.5 28.5q109 0 109 -113z" />
    <glyph glyph-name="parenleft" unicode="(" horiz-adv-x="591" 
d="M696 1341q-86 0 -156 -46t-115 -118.5t-76.5 -169t-45 -190t-16.5 -188.5q0 -13 -1 -37t-1 -37q0 -96 7.5 -182t28 -175.5t52.5 -153.5t86.5 -105t124.5 -41q11 0 17.5 -6.5t6.5 -14.5q0 -10 -8.5 -19.5t-19.5 -9.5q-102 0 -181.5 38t-129.5 98.5t-83 145.5t-46.5 169.5
t-16.5 179.5v47q0 99 11.5 193t36 192t69 179.5t105.5 146t150.5 101t198.5 36.5q31 0 31 -12q0 -6 -10 -13.5t-19 -7.5z" />
    <glyph glyph-name="parenright" unicode=")" horiz-adv-x="591" 
d="M535 479q-7 -67 -18 -128t-31.5 -125.5t-47 -119t-65.5 -103t-86.5 -82.5t-111 -53.5t-136.5 -19.5q-12 0 -19.5 9t-7.5 20q0 8 7 14.5t20 6.5q75 0 135 48t96 121.5t61 175t36 194t14 192.5v51q0 93 -10.5 181t-37 177t-66.5 154.5t-104.5 107t-146.5 41.5q-9 0 -17.5 7
t-8.5 14q0 12 33 12q117 0 209.5 -44t149.5 -115t94.5 -169t52 -198t14.5 -211q0 -56 -8 -158z" />
    <glyph glyph-name="asterisk" unicode="*" horiz-adv-x="962" 
d="M848 715q0 -35 -22.5 -61.5t-57.5 -26.5q-51 0 -98 67q-28 39 -44.5 60t-49.5 50.5t-62 37.5v-11q-1 -35 7 -78t14.5 -66t23.5 -75q10 -27 10 -53q0 -50 -39 -72q-21 -12 -45 -12q-51 0 -71 41q-11 22 -11 39q0 25 23 78q57 116 57 180q0 17 -2 23q-76 -42 -176 -158
q-42 -49 -86 -49q-15 0 -35 10q-47 28 -47 76q0 17 10 37q25 43 107 51q49 4 76.5 8t69 18t63.5 37q-79 44 -225 74q-95 17 -95 84q0 35 22.5 61.5t57.5 26.5q30 0 52.5 -18t46.5 -50q61 -85 95 -113q30 -26 58 -34v10q2 82 -43 223q-10 30 -10 56q0 48 37 67q26 13 49 13
q47 0 67 -39q11 -22 11 -39q0 -25 -23 -78q-57 -121 -57 -180q0 -11 4 -31q32 18 65.5 47.5t52.5 49t54 59.5q42 49 88 49q17 0 33 -8q47 -26 47 -76q0 -24 -10 -39q-27 -43 -107 -51q-154 -15 -203 -60q77 -44 222 -71q96 -20 96 -84z" />
    <glyph glyph-name="plus" unicode="+" horiz-adv-x="980" 
d="M864 621q-17 -39 -47 -39h-264v-265q0 -29 -41 -47q-12 -4 -20 -4q-33 0 -33 31v285h-287q-14 0 -21.5 9.5t-7.5 22.5q0 11 4 23q17 39 48 39h264v264q0 30 39 47q12 4 22 4q33 0 33 -28v-287h285q30 0 30 -35q0 -8 -4 -20z" />
    <glyph glyph-name="comma" unicode="," horiz-adv-x="407" 
d="M346 61q-13 -88 -49 -171.5t-70 -114.5q-8 -8 -20 -8q-19 0 -19 16q0 6 2 10q29 64 62 178q-14 10 -31 20t-27 18t-20 22q-16 22 -16 53q0 41 27.5 71.5t80.5 30.5q39 0 60.5 -33.5t21.5 -74.5q0 -3 -1 -8.5t-1 -8.5z" />
    <glyph glyph-name="hyphen" unicode="-" horiz-adv-x="735" 
d="M657 618q-18 -36 -43 -36h-448q-27 0 -27 30q0 9 4 21q19 37 43 37h447q14 0 21.5 -9.5t7.5 -21.5q0 -6 -5 -21z" />
    <glyph glyph-name="period" unicode="." horiz-adv-x="407" 
d="M356 88q0 -41 -28.5 -69.5t-69.5 -28.5t-69.5 28.5t-28.5 69.5t28.5 69.5t69.5 28.5t69.5 -28.5t28.5 -69.5z" />
    <glyph glyph-name="slash" unicode="/" horiz-adv-x="933" 
d="M881 1307l-740 -1358q-15 -27 -51 -27q-18 0 -30.5 7.5t-12.5 19.5q0 10 4 16l742 1356q16 29 53 29q16 0 27.5 -7.5t11.5 -19.5q0 -10 -4 -16z" />
    <glyph glyph-name="zero" unicode="0" horiz-adv-x="952" 
d="M537 1411q32 0 32 -18q0 -10 -11.5 -18t-33.5 -9q-73 -3 -134 -69.5t-99 -172.5t-59 -235.5t-21 -263.5q0 -116 16.5 -219.5t47.5 -185.5t82 -130t116 -47q91 1 158 97.5t98 238t31 301.5q0 146 -26.5 269.5t-83 204.5t-134.5 81q-20 0 -41 -6q-2 0 -5.5 -1t-4.5 -1
q-23 0 -23 26q0 21 15.5 42.5t40.5 27.5q45 10 77 10q109 0 186 -79t111.5 -201.5t34.5 -274.5q0 -142 -31.5 -282t-89 -255t-148 -187.5t-198.5 -73.5q-96 -1 -175 55.5t-128.5 152t-76.5 216.5t-27 253q0 113 19 221t60 205t99.5 169.5t142.5 115.5t183 43z" />
    <glyph glyph-name="one" unicode="1" horiz-adv-x="679" 
d="M561 59q-1 -35 -62.5 -57t-103.5 -22q-65 0 -65 208q0 8 1 26.5t1 27.5q6 150 30 424.5t29 349.5q4 82 4 119q-136 -168 -282 -238q-4 -2 -13 -2q-14 0 -27.5 8.5t-13.5 18.5q0 9 15 18q72 43 166.5 149.5t128.5 198.5q-9 12 -9 27q0 26 23 41q85 57 104 57
q31 0 49.5 -31.5t18.5 -78.5q0 -34 -4 -50q-20 -98 -37 -237q-33 -257 -33 -529q0 -190 19.5 -309t60.5 -119z" />
    <glyph glyph-name="two" unicode="2" horiz-adv-x="1009" 
d="M991 10q-12 -82 -30 -82q-4 0 -7 11q-6 31 -33.5 56t-68.5 34q-52 12 -125 12q-106 0 -322 -32t-231 -34q-13 -22 -53 -22q-21 0 -33 2q-23 4 -37 51q-6 21 -6 43q0 48 45 90q169 163 249.5 248.5t166 198.5t199.5 293q41 64 69.5 151.5t28.5 161.5q0 75 -32.5 119
t-104.5 43h-11q-80 -2 -188.5 -70t-186 -159.5t-77.5 -155.5q0 -31 20 -51q8 -8 8 -15q0 -6 -8 -6q-9 0 -22 8q-25 14 -66 77t-41 101v11q8 35 54.5 91t107.5 101q190 139 373 139q150 0 246 -89t96 -230q0 -180 -160 -363q-81 -92 -198.5 -195t-225 -201.5t-184.5 -199.5
q-14 -14 -17 -32q32 4 134 15.5t162 18t132.5 13t106.5 6.5h35q34 0 57 -1t53.5 -5t50.5 -12.5t38.5 -22t28 -35.5t9.5 -51q0 -21 -2 -31z" />
    <glyph glyph-name="three" unicode="3" horiz-adv-x="1064" 
d="M883 836q-90 -87 -248 -148q96 -3 180 -22q93 -23 146 -93t53 -161q0 -79 -40.5 -156t-119.5 -143t-213.5 -107t-304.5 -41h-37q-121 3 -193.5 55t-72.5 117t58 107t157 75q20 5 22 5q15 0 26 -8.5t11 -20.5q0 -23 -43 -45q-139 -70 -139 -127q0 -25 29.5 -43t91.5 -19
h26q134 0 246.5 33.5t182.5 87t108.5 116.5t38.5 126q0 107 -98 160q-105 59 -256 59q-65 -17 -111 -20q-6 0 -6 10q0 7 4 15t10 9q97 20 214 100.5t198 184.5q33 43 55.5 104.5t22.5 118.5q0 71 -38.5 114.5t-123.5 43.5q-81 0 -194.5 -64t-196 -152t-82.5 -151
q0 -31 16 -47q6 -6 6 -16q0 -8 -8 -8q-10 0 -22 10q-24 11 -61.5 75t-37.5 103q0 10 2 14q9 34 60 88t114 97q191 127 375 127q147 0 241.5 -80.5t94.5 -200.5q0 -148 -143 -282z" />
    <glyph glyph-name="four" unicode="4" horiz-adv-x="1026" 
d="M1096 473q-6 -36 -16.5 -59t-18.5 -23q-7 0 -10 12q-15 57 -111 91q-68 22 -158 22q2 -202 22 -328.5t62 -126.5q-1 -34 -65 -57.5t-105 -23.5q-63 0 -63 210v52q4 86 16 270q-116 -8 -328 -42t-266 -34h-18q-35 3 -35 39q0 25 14 50.5t25 25.5q45 29 175 166t268 307.5
t184 265.5q-9 12 -9 23q0 24 27 43q87 57 100 57q33 0 51.5 -31t18.5 -79q0 -34 -4 -50q-25 -125 -39 -237q-22 -162 -29 -395l2 2q70 8 111 8q201 0 201 -127q0 -21 -2 -31zM696 1128q-92 -134 -263.5 -311.5t-297.5 -267.5q151 2 522 53q33 372 35 414q4 78 4 112z" />
    <glyph glyph-name="five" unicode="5" horiz-adv-x="1064" 
d="M1010 1354v-19q0 -143 -228 -143q-25 0 -75 4q-28 3 -91.5 12t-126.5 15t-124 6v-25q0 -65 -15.5 -186t-17.5 -141q-2 -10 -2 -33q0 -21 2 -31q105 18 248 18q109 0 195 -28.5t138.5 -77t79.5 -111t27 -133.5q0 -81 -34.5 -162t-97 -152t-161.5 -123.5t-219 -72.5
q-74 -12 -135 -12q-166 0 -261.5 72t-95.5 172q0 112 115 200.5t322 94.5h8q21 0 33 -6.5t12 -14.5q0 -13 -37 -16q-81 -4 -145.5 -26.5t-103.5 -56t-59 -73t-20 -82.5q0 -87 75 -150t204 -63q47 0 72 4q152 21 244.5 132t94.5 247q1 78 -19 138t-54 97t-83 61t-101 33
t-115 9q-64 0 -142 -10l-49 -6l-18 -4h-37q-45 0 -45 28q0 12 6 27q14 34 35 119q22 104 22 205q0 76 -12 131h-10q-9 0 -20 21.5t-11 43.5q0 40 39 45q10 2 37 2q41 0 177.5 -18.5t219.5 -18.5q122 0 209 33q93 34 111 94q3 13 10 13q5 0 11 -9t11 -28.5t7 -44.5z" />
    <glyph glyph-name="six" unicode="6" horiz-adv-x="948" 
d="M913 500q0 -156 -56 -282t-158.5 -198.5t-233.5 -72.5q-90 0 -161.5 39t-116 100.5t-74.5 144.5t-42 165.5t-12 168.5q0 10 1 30.5t1 29.5q8 160 44 292t87.5 219.5t117 147.5t132 86.5t133.5 26.5q111 0 178.5 -64.5t67.5 -175.5q0 -56 -22 -133q-8 -25 -40.5 -46.5
t-68.5 -21.5q-14 0 -35 7q-16 5 -16 10q0 2 6 7t15.5 17t15.5 29q43 113 43 193q0 131 -111 131q-42 0 -85.5 -19.5t-89 -65t-83 -112.5t-68 -169.5t-44.5 -227.5q-9 -101 -9 -178q0 -101 11 -191.5t37 -179.5t78 -142t126 -53q81 0 143.5 71t93 173t30.5 209
q0 123 -42.5 204t-123.5 81h-17q-37 -4 -72 -21.5t-67.5 -51.5t-55 -94t-28.5 -139q-3 -51 -25 -51q-11 0 -19.5 20t-8.5 54q0 39 10 78q34 125 114.5 197.5t196.5 84.5q12 2 37 2q129 0 197.5 -93.5t68.5 -235.5z" />
    <glyph glyph-name="seven" unicode="7" horiz-adv-x="915" 
d="M893 1268q10 -30 10 -49q0 -44 -37 -78q-84 -84 -174.5 -193.5t-183 -243.5t-152 -273.5t-59.5 -246.5q0 -46 14.5 -83.5t38.5 -37.5v-2q1 -26 -51 -55t-98 -29q-27 0 -43 13q-18 14 -27.5 50t-9.5 75v16q-3 198 149 420q77 113 253 306.5t233 275.5q14 17 14 47
q-51 -6 -180 -24t-220.5 -29t-133.5 -11q-34 0 -54 1t-50.5 4.5t-49 12t-37 22.5t-27 37.5t-8.5 55.5q0 23 2 35q3 24 8.5 43t11 28t9.5 9q5 0 8 -10q8 -31 32.5 -55t59.5 -33q54 -13 117 -13q103 0 308 32t229 34q3 0 8 1t8 1q12 0 18 -2h21q24 -3 31 -27q3 -4 6.5 -13
t5.5 -11z" />
    <glyph glyph-name="eight" unicode="8" horiz-adv-x="925" 
d="M891 424v-10q-1 -132 -70 -234t-177 -153.5t-234 -51.5q-165 0 -271.5 86t-105.5 240v10q1 83 30 158.5t78 133t101 99t110 72.5q-47 29 -77 53.5t-60.5 62t-45.5 88.5t-15 116q0 93 55 164t136.5 105t172.5 34q83 0 152 -28.5t114 -93t45 -155.5q0 -82 -60.5 -161
t-156.5 -138q48 -28 85.5 -54.5t75.5 -64t63 -77t40.5 -91.5t14.5 -110zM748 350v6q-1 49 -19 94.5t-43.5 78.5t-66 67.5t-73 57t-77.5 51.5q-11 7 -16 10q-252 -165 -254 -375v-6q-1 -129 79 -196.5t189 -67.5q122 0 202 75t79 205zM713 1112q0 104 -60.5 160.5
t-142.5 56.5q-83 0 -146 -54t-63 -145q0 -66 45 -127t129 -106l76 -41q162 114 162 256z" />
    <glyph glyph-name="nine" unicode="9" horiz-adv-x="923" 
d="M870 805q0 -80 -7 -159t-25.5 -163.5t-46.5 -159.5t-72.5 -142.5t-100 -116t-132.5 -77t-167 -28.5q-81 0 -155.5 40t-93.5 110q-4 12 -4 36q0 31 12.5 53.5t27.5 22.5q17 0 25 -31q20 -80 72.5 -128t111.5 -48q65 0 119 23.5t92 61.5t68 93.5t48.5 110.5t31.5 122
t19 119t9 109q5 83 5 115q0 76 -6 146t-23.5 148.5t-46 136t-77.5 95t-114 37.5q-76 0 -133 -63.5t-83.5 -156.5t-26.5 -196q0 -87 19.5 -158t61.5 -117t101 -46h16q57 5 114.5 47t84.5 119q11 33 27 33q14 0 14 -31q0 -21 -12 -51q-37 -86 -107 -136t-164 -59
q-12 -2 -37 -2q-128 0 -202 94.5t-82 235.5q0 7 -1 21.5t-1 21.5q0 223 118.5 366.5t307.5 143.5q81 0 146.5 -24.5t110 -68.5t76 -99t49 -124t25.5 -136t8 -140z" />
    <glyph glyph-name="colon" unicode=":" horiz-adv-x="407" 
d="M356 88q0 -41 -28.5 -69.5t-69.5 -28.5t-69.5 28.5t-28.5 69.5t28.5 69.5t69.5 28.5t69.5 -28.5t28.5 -69.5zM365 645q0 -41 -29 -69.5t-70 -28.5t-69.5 28.5t-28.5 69.5t28.5 69.5t69.5 28.5t70 -28.5t29 -69.5z" />
    <glyph glyph-name="semicolon" unicode=";" horiz-adv-x="407" 
d="M346 61q-13 -88 -49 -171.5t-70 -114.5q-8 -8 -20 -8q-19 0 -19 16q0 6 2 10q29 64 62 178q-14 10 -31 20t-27 18t-20 22q-16 22 -16 53q0 41 27.5 71.5t80.5 30.5q39 0 60.5 -33.5t21.5 -74.5q0 -3 -1 -8.5t-1 -8.5zM365 645q0 -41 -29 -69.5t-70 -28.5t-69.5 28.5
t-28.5 69.5t28.5 69.5t69.5 28.5t70 -28.5t29 -69.5z" />
    <glyph glyph-name="less" unicode="&#x3c;" horiz-adv-x="741" 
d="M625 1038q-18 -26 -118 -136.5t-191 -207.5l-91 -98l391 -344q21 -9 34.5 -29.5t13.5 -38.5q0 -24 -23 -24q-10 0 -25 6q-40 17 -166.5 95.5t-233.5 148.5l-107 69q-23 13 -23 78q0 68 23 84l507 469q8 4 11 4q14 0 14 -31q0 -29 -16 -45z" />
    <glyph glyph-name="equal" unicode="=" horiz-adv-x="1150" 
d="M948 442q-4 -13 -16 -26t-29 -13h-645q-31 0 -31 35q0 9 4 21q17 39 48 39h645q28 0 28 -33q0 -11 -4 -23zM948 815q-4 -14 -16 -27.5t-29 -13.5h-645q-31 0 -31 35q0 8 4 20q17 39 48 39h645q28 0 28 -30q0 -11 -4 -23z" />
    <glyph glyph-name="greater" unicode="&#x3e;" horiz-adv-x="796" 
d="M741 635l-508 -469q-8 -4 -10 -4q-14 0 -14 31q0 29 16 45q18 25 118 135t191 207l91 98l-392 346q-21 9 -34 29t-13 39q0 24 23 24q9 0 24 -6q40 -17 167 -95.5t234 -148.5l107 -69q23 -9 23 -78q0 -70 -23 -84z" />
    <glyph glyph-name="question" unicode="?" horiz-adv-x="749" 
d="M735 1235q0 -58 -19 -114.5t-54 -105t-68 -84.5t-76 -75q-13 -11 -49 -41.5t-50.5 -44.5t-39 -41t-40.5 -53.5t-28 -59.5q-14 -41 -14 -71q0 -63 43 -80q10 -3 10 -12q0 -13 -16 -19q-4 -2 -15 -2q-22 0 -44 18t-29 44q-8 32 -8 53q0 97 88 219q100 140 174 305
q37 81 37 148q0 71 -38 112t-100 41q-50 0 -92 -22.5t-69.5 -60.5t-45.5 -81.5t-26 -91.5q-4 -14 -14 -14q-17 0 -17 31v6q10 140 108.5 224.5t243.5 84.5q117 0 182.5 -60t65.5 -153zM418 88q0 -41 -29 -69.5t-70 -28.5t-69.5 28.5t-28.5 69.5t28.5 69.5t69.5 28.5
t70 -28.5t29 -69.5z" />
    <glyph glyph-name="at" unicode="@" horiz-adv-x="1781" 
d="M1657 225q-111 -128 -299.5 -201t-396.5 -73q-369 0 -558.5 189.5t-189.5 551.5q0 114 29.5 222t92 204.5t150.5 169t212.5 114.5t271.5 42q140 0 254 -33.5t189.5 -90.5t126 -134.5t73 -162t22.5 -177.5q-1 -150 -54.5 -286t-150.5 -223t-212 -87q-45 0 -80.5 16
t-58 46.5t-38 66t-23 82t-10.5 87.5t-3 89q0 24 1 64.5t1 56.5q-16 -67 -45 -147t-67.5 -158.5t-86.5 -131t-92 -53.5h-2q-53 0 -83.5 67.5t-33.5 166.5v59q0 230 70 367q48 94 127 143t172 49q41 0 77 -8q35 53 107 53q28 0 55 -8q-15 -66 -34 -226t-19 -300
q0 -318 113 -318q62 0 116.5 71t86.5 186.5t32 240.5q0 89 -17 170.5t-56.5 158t-99.5 132.5t-152.5 89.5t-208.5 33.5q-106 0 -201.5 -41t-166 -111t-122 -161.5t-78 -195t-26.5 -208.5q0 -110 19 -207.5t62 -184t107 -149t160 -99t215 -36.5q192 0 371 83t286 222
q22 31 51 31q19 0 31.5 -13t12.5 -34q0 -30 -29 -66zM1034 1012v16q0 55 -33 55q-56 0 -102.5 -43.5t-74.5 -108.5t-47.5 -143t-27 -144.5t-6.5 -115.5v-14q0 -42 11 -63t26 -21q16 0 33.5 14.5t28.5 34.5q174 286 192 533z" />
    <glyph glyph-name="A" unicode="A" horiz-adv-x="1411" 
d="M1356 -29v-14q0 -43 -23.5 -67.5t-64.5 -24.5h-13q-91 7 -150 120t-89 298q-26 167 -29 327q-30 -107 -73 -206t-99.5 -186.5t-128 -146.5t-147.5 -73q-30 -6 -62 -6q-108 0 -186.5 76t-116 197t-37.5 270q0 9 1 28t1 29q6 83 25 172q-201 39 -201 209q0 60 29.5 113
t85.5 83q4 2 8 2q12 0 12 -12q0 -11 -10 -18q-30 -22 -45.5 -66t-15.5 -92q0 -131 155 -160q57 178 181 321t284 227t334 104q54 4 74 4q115 0 170 -44t55 -116q0 -71 -45 -150q-30 -51 -61 -88q-37 -280 -37 -538q0 -159 12 -262q13 -127 46.5 -229t84.5 -105h4
q16 -1 29 9.5t16 23.5q3 14 12 14q15 0 15 -23zM993 903l2 31q-141 -86 -320 -130.5t-351 -49.5q-19 -74 -25 -142q-4 -39 -4 -112q0 -93 13.5 -173t39.5 -142t68.5 -97t97.5 -35q9 0 33 4q65 13 127.5 75.5t112.5 158t90 201.5t69 221q7 28 23.5 93.5t23.5 96.5zM1001 989
q7 80 27 174q2 6 19.5 11.5t39.5 5.5q44 0 74 -21l8 17q33 68 33 120q0 65 -44 104.5t-132 39.5q-17 0 -53 -4q-111 -13 -214 -71t-182.5 -145t-140 -191t-96.5 -216q181 5 357 46.5t304 129.5z" />
    <glyph glyph-name="B" unicode="B" horiz-adv-x="1443" 
d="M1456 1120q-1 -81 -49 -157.5t-123 -132.5t-156 -96.5t-159 -61.5q70 -4 130.5 -15t119.5 -34.5t100 -58.5t66.5 -89.5t25.5 -124.5q0 -94 -49.5 -173t-126.5 -127t-164 -74.5t-168 -26.5q-148 0 -188 78q-55 -33 -107 -33q-31 0 -51 14q-45 31 -65 107t-29 196
q-4 43 -4 135q0 220 38 466.5t76 347.5q3 6 24.5 11t47.5 5q74 0 94 -37q-2 -7 -21 -77t-36.5 -144.5t-38.5 -176t-35.5 -216t-17.5 -219.5v-52q0 -312 88 -317h4q9 0 29 4q-4 16 -4 25q-1 44 35 99t97.5 106.5t154 93.5t194.5 59q8 2 18 2q23 0 23 -10q0 -13 -31 -19
q-74 -12 -149.5 -48t-130 -78t-89 -85.5t-34.5 -72.5q0 -45 82 -45q57 0 130 23.5t142 64t116.5 105t47.5 136.5q0 104 -96.5 172t-303.5 68q-96 0 -159 -31q-4 0 -11 -1t-10 -1q-37 0 -54 18t-17 44q0 22 11.5 39.5t26.5 17.5q196 6 359 90q55 29 102 61t96 77.5t78 101.5
t29 116q0 187 -420 187q-79 0 -225 -13q-57 -5 -141.5 -19.5t-192 -44t-197 -66t-151.5 -90.5t-62 -113q0 -52 41.5 -83.5t108.5 -31.5q73 0 158 37.5t168 116.5q4 4 6 4q4 0 4 -9q0 -37 -37 -71q-69 -64 -156.5 -96.5t-173.5 -32.5q-47 0 -80 8q-69 15 -109 64t-40 114
q0 58 27.5 109t77 90.5t111.5 71.5t138.5 56t149.5 40.5t153 29.5q129 19 269 19q96 0 184.5 -8.5t178.5 -31.5t155.5 -58.5t106.5 -94t40 -133.5z" />
    <glyph glyph-name="C" unicode="C" horiz-adv-x="1325" 
d="M1331 532v-2q-11 -164 -125 -313q-91 -121 -234 -198.5t-298 -92.5q-50 -4 -74 -4q-101 0 -188 29t-157.5 88t-116.5 155.5t-60 223.5q-4 29 -4 88q0 136 41 274t118.5 258t179 213.5t231.5 148t267 54.5h31q58 -2 106 -16t89 -41.5t64.5 -75.5t23.5 -113
q0 -97 -60.5 -196t-155.5 -173.5t-217.5 -121.5t-240.5 -47q-6 0 -17.5 1t-17.5 1q-25 1 -37 18t-12 33q134 0 255.5 39.5t226 128.5t157.5 217q29 72 29 127q0 62 -38 100.5t-120 42.5h-14q-82 0 -179.5 -45t-191.5 -131t-171 -197t-124 -257t-45 -297v-19
q1 -118 30.5 -204.5t81 -135.5t115.5 -71.5t144 -22.5q41 0 61 2q132 13 269 98t231.5 206.5t111.5 238.5q2 10 11 10q8 0 16 -7t8 -14z" />
    <glyph glyph-name="D" unicode="D" horiz-adv-x="1789" 
d="M1790 864q0 -141 -51.5 -274t-141.5 -238.5t-206 -185.5t-251.5 -123t-271.5 -43q-54 0 -87 24t-33 52q0 16 15 27.5t44 11.5q166 0 330 65t289 171t202.5 251.5t77.5 296.5q0 208 -178 322q-221 139 -578 139q-269 0 -524 -80q-133 -42 -224 -112t-91 -144
q0 -52 41.5 -83.5t107.5 -31.5q73 0 158 37.5t168 116.5q4 4 6 4q6 0 6 -10q0 -36 -37 -70q-69 -64 -156.5 -96.5t-173.5 -32.5q-48 0 -81 8q-69 15 -109.5 64.5t-40.5 113.5q0 78 51.5 145t130 113t185.5 82q271 91 551 91q380 0 622 -162q119 -79 184.5 -193.5
t65.5 -255.5zM889 1229v-10q-187 -544 -187 -912v-8q0 -89 1 -131t10.5 -111t29.5 -106h-6q-81 -2 -123 121q-34 106 -34 286q0 315 90 707q4 16 13.5 65.5t18.5 82.5t21 61q3 10 22 10q30 0 83 -16t61 -39z" />
    <glyph glyph-name="E" unicode="E" horiz-adv-x="1402" 
d="M1317 160q-100 -117 -302 -196t-425 -79q-291 0 -418 146q-63 73 -63 196q0 55 14 107q26 87 99 165.5t168 132t189 88.5t177 50q-50 9 -73 13t-67.5 16t-69 24.5t-52 35t-43.5 50.5q-130 4 -231 30.5t-159.5 67t-88 87t-29.5 94.5q0 72 58.5 121t156.5 49
q58 0 122.5 -26.5t102.5 -63.5q25 -25 25 -37q0 -10 -15 -10q-13 0 -22 6q-97 57 -207 57q-62 0 -100.5 -33.5t-38.5 -81.5q0 -35 23 -69.5t69.5 -66t128.5 -54.5t188 -29q-10 38 -10 74q0 103 51.5 186.5t134 134t178.5 77t193 26.5q146 0 236 -60.5t90 -146.5
q0 -58 -44.5 -113t-133 -104t-242.5 -80t-352 -35q84 -98 299 -98q100 0 221 23h8q55 3 55 -39q0 -33 -29.5 -70t-52.5 -37h-30q-87 0 -175.5 -11t-185 -38.5t-177.5 -69t-148.5 -107.5t-102.5 -149q-27 -67 -27 -116q0 -50 26.5 -86.5t73 -56.5t101.5 -29t121 -9
q149 0 301 37q141 35 263 103t179 135q48 57 48 102q0 49 -46.5 77t-121.5 28q-106 0 -228 -58t-221 -174q-19 -22 -31 -22q-10 0 -10 12q0 29 43 78q92 103 235 167t263 64h4q99 0 155 -56.5t56 -141.5q0 -110 -84 -207zM512 948h6q169 0 297.5 21.5t201 57.5t107.5 76.5
t35 84.5q0 60 -63 103.5t-160 43.5q-96 0 -194.5 -36.5t-171 -112.5t-72.5 -172q0 -38 14 -66z" />
    <glyph glyph-name="F" unicode="F" horiz-adv-x="1525" 
d="M1765 1456q38 0 66.5 -31t28.5 -71q0 -45 -39 -80t-121 -43q-56 -6 -113 -6q-107 0 -356 37q-59 -274 -98 -578q264 4 401 57q10 7 14 7q14 0 17 -13v-4q0 -7 -7 -14t-16 -12.5t-10 -6.5q-61 -26 -178.5 -58.5t-233.5 -51.5q-12 -155 -14 -217q0 -13 -1 -43t-1 -47
q0 -306 96 -306q20 0 37 11.5t23 27.5q7 17 14 17q12 0 12 -21v-4q-2 -51 -31 -83t-79 -32q-203 0 -203 525q0 53 4 155q-14 -2 -43 -2q-57 0 -98 13q-25 8 -46.5 53.5t-21.5 73.5q0 10 4 10h2q90 -25 197 -31h14l14 158q24 251 68 442q-175 25 -301 25q-131 0 -248 -25
q-91 -19 -165.5 -56.5t-121 -83t-71.5 -95t-25 -95.5q0 -68 54 -111.5t157 -43.5q43 0 68 4q85 11 216 65.5t226 122.5q6 6 25 6q8 0 8 -6q0 -14 -43 -57q-98 -96 -233 -144.5t-273 -48.5q-16 0 -78 5q-111 12 -174 84t-63 172q0 60 23.5 118t77 113.5t130 97t192 67
t254.5 25.5q140 0 392 -49l6 19q2 8 22 8q55 0 91 -13.5t36 -41.5q220 -37 336 -37q71 0 129 12q34 7 53 28t19 44q0 28 -27 43q-2 2 -2 6q0 10 8 10z" />
    <glyph glyph-name="G" unicode="G" horiz-adv-x="1423" 
d="M1423 367h-8q-35 0 -106.5 -46t-71.5 -75v-23q1 -171 -28.5 -314t-78 -236.5t-110.5 -158.5t-124 -93.5t-122 -28.5q-79 0 -129.5 49.5t-50.5 136.5q0 78 41 164q148 315 475 514q0 75 -14 348q-77 -174 -146 -280q-100 -152 -244 -245t-276 -93q-159 0 -242.5 121
t-83.5 313q0 96 25 209q-112 22 -176.5 76.5t-63.5 144.5q0 62 46.5 108t101.5 68q4 2 10 2q14 0 14 -10q0 -11 -16 -21q-27 -14 -50.5 -53.5t-23.5 -73.5q0 -63 48 -106.5t126 -67.5q35 124 96 239t146.5 214.5t201.5 172t247 101.5q97 19 159 19q52 0 95 -10t79.5 -32.5
t57 -64.5t20.5 -100q0 -85 -41.5 -167.5t-106.5 -146t-148 -117.5t-163 -88.5t-153 -53.5q-166 -43 -338 -46q-35 -140 -35 -260q0 -140 50 -224.5t149 -84.5q104 0 232.5 94t232.5 248q106 156 155 338q5 56 21.5 97.5t36.5 63.5t47 35t46 16t40 3h20q31 -3 31 -12
q0 -4 -8 -12q-23 -19 -38 -73t-21.5 -132t-9.5 -141.5t-3.5 -141.5t-1.5 -92q108 63 164 63q10 0 14 -2q15 -3 15 -20q0 -12 -11 -12zM311 670h19q143 0 295 41q57 15 126.5 49.5t139.5 85.5t127.5 110t94 129t36.5 136q0 76 -46.5 114.5t-123.5 38.5q-47 0 -119 -20
q-126 -38 -239 -147t-188.5 -245.5t-121.5 -291.5zM1104 201q-74 -44 -205 -175.5t-182 -254.5q-39 -91 -39 -168q0 -73 34 -115.5t87 -42.5q54 0 110 49t97 144q51 119 71 251t27 312z" />
    <glyph glyph-name="H" unicode="H" horiz-adv-x="1712" 
d="M1749 8v-2q0 -48 -35.5 -74t-89.5 -26q-223 0 -223 516q0 112 6 207q-36 0 -115.5 2t-120.5 2q-184 0 -280 -6q-7 -305 -98 -488q-76 -155 -220 -252.5t-317 -97.5q-160 0 -247 85t-87 212q0 83 39 168t113 154q264 244 723 282q20 159 20 344q-118 -101 -295 -162
t-329 -61q-126 0 -195.5 55t-69.5 135q0 100 106 179.5t290 79.5q89 0 167 -19t121 -45q21 -12 21 -20q0 -13 -25 -13q-10 0 -16 2q-103 27 -223 27q-140 0 -218.5 -55.5t-78.5 -128.5q0 -57 51 -96.5t143 -39.5q144 0 297.5 60.5t253.5 134.5q-4 66 -4 131q0 225 107 225
q67 0 67 -94q0 -66 -35.5 -142t-89.5 -114q27 -233 29 -377q102 4 158 4q49 0 147 -4q143 -8 215 -10q21 406 78 711q2 8 22 8q131 0 131 -57q-16 -75 -44 -269t-44 -393q53 0 76 10q21 9 31 9q12 0 12 -11q0 -14 -18 -28q-36 -23 -105 -29q-16 -181 -16 -309
q0 -365 119 -365q19 0 41.5 17.5t27.5 33.5q7 17 15 17q12 0 12 -23zM786 616q-409 -45 -610 -251q-54 -56 -101.5 -163.5t-47.5 -197.5q0 -73 38.5 -116.5t124.5 -43.5q79 0 153.5 32.5t135 90t110 128t89.5 155.5q74 161 108 366z" />
    <glyph glyph-name="I" unicode="I" horiz-adv-x="976" 
d="M872 782q-31 -295 -122 -491q62 -10 104 -10q34 0 61 6q60 15 89 51q11 14 26 14q9 0 15 -5t6 -13v-4q-8 -44 -82.5 -73.5t-210.5 -29.5h-41q-146 -253 -379 -256h-12q-83 -1 -145 25.5t-98 68.5t-58 102t-29.5 116t-7.5 120q0 45 2 68q4 81 51 100q14 7 29 7
q31 0 71 -37q64 -61 204 -124.5t286 -101.5q37 119 71 322q35 206 35 422q0 127 -14 213q-10 60 -34 98.5t-64 38.5q-57 0 -94.5 -53t-52.5 -133t-15 -183q0 -163 35 -318.5t82 -201.5q12 -12 12 -20q0 -13 -21 -13q-22 0 -36 17q-70 75 -117 233.5t-47 321.5q0 83 13.5 154
t41.5 129.5t75.5 94t110.5 40.5h25q252 0 252 -437q0 -85 -17 -258zM92 406q8 -383 256 -383q168 0 256 219q-123 21 -266.5 69t-245.5 95z" />
    <glyph glyph-name="J" unicode="J" horiz-adv-x="1097" 
d="M1274 838q33 -3 33 -17q0 -6 -9.5 -11t-23.5 -5h-6q-12 0 -35 1t-35 1q-87 0 -178 -16q0 -9 -1 -26.5t-1 -25.5q-4 -76 -25 -175.5t-56.5 -212t-89.5 -220t-118.5 -195t-149.5 -141t-176 -53.5q-105 0 -167 72t-62 213q0 55 8 110q33 217 219.5 398t450.5 260q2 16 2 45
v39q1 58 -2 106t-10.5 107.5t-25.5 104.5t-44.5 84.5t-70 61t-99.5 21.5q-25 0 -37 -2q-102 -12 -191.5 -83.5t-147 -179.5t-72.5 -231q-4 -36 -4 -49q0 -86 43 -86q11 0 28 10q2 2 6 2q6 0 6 -10q0 -23 -26 -54t-68 -36h-14q-44 0 -63 37t-19 94q0 31 2 45q13 108 68 218
t133.5 196.5t179.5 142t199 56.5h12q92 1 162 -37t111 -97t66.5 -142t34.5 -160.5t9 -163.5v-3q94 11 158 11q30 0 96 -4zM848 741q-215 -85 -367 -249.5t-194 -348.5q-19 -87 -19 -147q0 -93 35 -144t92 -51q84 0 157.5 69.5t122 173t87 235.5t58 246t28.5 216z" />
    <glyph glyph-name="K" unicode="K" horiz-adv-x="1200" 
d="M1204 1362q-66 -15 -219.5 -99.5t-302.5 -193t-188 -174.5q-37 -63 -37 -125q0 -68 43 -147q89 -160 199.5 -287.5t226.5 -188.5q104 -57 166 -57q58 0 61 55v9q0 68 -90 204q-21 38 -21 50t11 12q23 0 59 -39q50 -53 82 -111q45 -80 45 -141q0 -73 -58 -110t-147 -37
q-129 0 -237 63q-140 80 -264 223.5t-181 292.5q-45 120 -45 189q0 61 30 117t99 118q136 122 387.5 268.5t358.5 147.5h6q55 0 55 -17q0 -16 -39 -22zM387 10v-4q-4 -78 -59 -102q-26 -13 -49 -13q-55 0 -97.5 53t-58.5 117q-39 147 -39 414q0 253 35 520.5t82 401.5
q2 8 22 8q53 0 81.5 -17t45.5 -59q-35 -135 -85 -426.5t-58 -531.5q0 -13 -1 -43t-1 -47q0 -306 96 -306q19 0 36 11.5t23 27.5q7 17 15 17q12 0 12 -21z" />
    <glyph glyph-name="L" unicode="L" horiz-adv-x="1024" 
d="M1020 1077q0 159 -55.5 268t-157.5 109q-168 0 -264 -184q-37 -70 -59.5 -176t-32.5 -223t-17.5 -234t-23.5 -238t-43 -206q-23 -70 -50 -115q186 28 338 28q90 0 163 -10.5t133.5 -34t94 -65.5t33.5 -100q0 -63 -36.5 -102.5t-84.5 -39.5h-2q-11 0 -17.5 5t-6.5 10
q0 6 8 10l14 5q13 5 17.5 7.5t16 10.5t16.5 16.5t10 24t6 34.5v8q0 123 -199 123q-106 0 -270 -34t-301 -67.5t-180 -33.5q-3 0 -9 1t-8 1q-21 5 -30 45q-3 12 -3 27q0 54 21 63q81 30 186 49q41 59 58 160q10 64 10 164q0 61 -6 197.5t-6 207.5q0 174 33.5 310t123.5 237
q143 162 363 162q81 0 144.5 -36.5t102 -99.5t58.5 -142t20 -168q0 -105 -27.5 -206.5t-77 -185t-129 -135t-173.5 -51.5q-87 0 -149 60.5t-76 179.5q-2 12 -2 41q0 103 26 147q13 21 31 21q12 0 12 -17q0 -13 -6 -31q-16 -53 -16 -114q0 -62 15 -114.5t51.5 -89t90.5 -36.5
q56 0 112.5 37t103.5 104.5t76.5 176.5t29.5 239z" />
    <glyph glyph-name="M" unicode="M" horiz-adv-x="2433" 
d="M2615 -303v-2q-2 -67 -73.5 -123.5t-163.5 -56.5q-69 0 -131 39q-168 106 -168 442q0 62 6 134.5t13.5 129t22 136.5t23 119.5l25.5 118.5t20 95q6 29 28.5 132.5t31.5 148.5t21.5 117.5t17.5 125.5q2 20 2 54q0 98 -49 98h-3q-98 -3 -217 -151t-213 -382
q-78 -195 -117 -360t-61 -342q-6 -45 -31.5 -73t-58.5 -31h-8q-24 0 -45 11.5t-21 31.5v6q42 206 68 473q14 134 14 258q0 222 -46.5 339.5t-121.5 117.5q-89 0 -187.5 -159.5t-170.5 -447.5q-21 -83 -43 -293t-33 -477q-3 -59 -86 -59q-37 0 -70 19t-34 42q2 18 20 142.5
t32 250t21 246.5q7 122 7 195q0 188 -25.5 331.5t-70.5 228.5t-100.5 127t-119.5 42q-73 0 -146.5 -52.5t-135.5 -148.5q-142 -220 -142 -502q0 -84 35 -141t98 -57q40 0 88 26q2 2 7 2q4 0 8 -5t4 -11q0 -17 -21 -29q-66 -38 -135 -38q-83 0 -133.5 64t-50.5 179
q0 125 46 270.5t132 264.5q185 258 381 258q66 0 122 -19t97.5 -50.5t74.5 -79t55 -97t38.5 -113t25.5 -118t14 -121.5t7 -113.5t2 -103.5q32 152 86 279.5t116.5 210.5t130 129t130.5 46q101 0 165 -121.5t64 -361.5q0 -46 -8 -164q0 -5 -1 -19l-2.5 -35t-2.5 -36
q32 87 66 170q40 98 83.5 186t99.5 175t113 150t124.5 102.5t134.5 41.5h10q154 3 154 -233q0 -133 -41 -307q-5 -25 -39 -149.5t-73.5 -281.5t-62.5 -278q-36 -186 -36 -338q0 -330 190 -330q61 0 115 30.5t80 76.5q6 12 16 12q12 0 12 -14z" />
    <glyph glyph-name="N" unicode="N" horiz-adv-x="1456" 
d="M1495 -8v-4q-8 -67 -53.5 -113.5t-122.5 -46.5q-135 0 -198.5 110t-63.5 306q0 188 55 446q1 7 15.5 64.5t26.5 112t23 131t11 135.5q0 187 -103 208q-30 5 -36 5q-71 0 -135 -56.5t-111 -149.5t-85 -199.5t-63.5 -219.5t-40 -196t-20.5 -142q-15 -141 -35 -401
q-3 -29 -39 -53.5t-74 -26.5h-6q-33 -2 -59.5 12t-26.5 35q39 215 56 481q16 256 16 375q0 478 -143 641q-51 57 -107 57q-50 0 -88.5 -46.5t-52.5 -135.5q-8 -58 -8 -94q0 -147 52.5 -316t129.5 -256q4 -4 4 -10t-12 -6q-18 0 -43.5 12.5t-46.5 36.5q-89 101 -139 240.5
t-50 277.5q0 199 98 303q60 66 152 66q62 0 122 -30.5t99 -78.5q93 -118 141 -295.5t48 -359.5q0 -36 -4 -106q53 226 135.5 400t181.5 251q112 84 211 84q111 0 181.5 -95t70.5 -249q0 -46 -6 -95q-15 -105 -66 -311t-65 -278q-31 -164 -31 -267q0 -260 153 -260
q44 0 75 28t44 73q6 20 21 20q12 0 12 -14z" />
    <glyph glyph-name="O" unicode="O" horiz-adv-x="1439" 
d="M1335 1122q0 -96 -30 -176q61 -128 61 -297q0 -104 -24.5 -206.5t-76.5 -196.5t-125 -165.5t-178 -114t-227 -42.5q-127 0 -228 52t-163.5 141t-95 201.5t-33.5 240.5q-96 34 -151.5 97.5t-55.5 154.5q0 67 43 112t94 62q1 0 4.5 1t4.5 1q14 0 14 -16q0 -13 -14 -19
q-25 -11 -46.5 -50t-21.5 -77q0 -110 131 -186q11 152 64 293t142 256t226 184.5t301 69.5q189 0 287 -89t98 -231zM381 580q61 -15 111 -15q99 0 203 23.5t202 68t178 119t121 168.5q-80 170 -270 209q-8 3 -8 8t6 10t16 5h21q163 0 268 -115q6 37 6 76q0 66 -27.5 118
t-71 81t-90 44t-90.5 15q-123 0 -229 -72.5t-177.5 -190.5t-115 -261t-53.5 -291zM1237 819q-59 -78 -149 -138.5t-191 -96t-202 -53t-197 -17.5q-60 0 -119 6v-18q-1 -147 35 -264.5t117.5 -192t197.5 -74.5q107 0 205 66.5t165.5 171t107.5 233.5t40 254q0 58 -10 123z
" />
    <glyph glyph-name="P" unicode="P" horiz-adv-x="1335" 
d="M1458 1106q0 -112 -54.5 -220.5t-147.5 -192.5t-226 -135.5t-280 -51.5q-76 0 -132 10q-6 -51 -10 -154q0 -14 -1 -46t-1 -50q0 -299 96 -299q20 0 43 8t29 17h14q-4 -53 -36.5 -83t-77.5 -30q-51 0 -97 39t-65 111q-37 140 -37 393q0 230 30 481.5t73 413.5l-113 -19
q-375 -66 -375 -168q0 -12 10 -32q4 -8 4 -15q0 -14 -12 -14q-16 0 -41 25q-19 17 -32 53.5t-13 73.5q0 53 29 82q68 68 381 112q150 19 301 19q73 0 142 -4t144 -14.5t139.5 -26.5t124 -41.5t101 -59t66 -80t24.5 -102.5zM627 600h26q122 0 249.5 41t231.5 110t171 170
t67 212q0 208 -448 208q-103 0 -179 -8l7 -12q-24 -95 -63 -304.5t-62 -416.5z" />
    <glyph glyph-name="Q" unicode="Q" horiz-adv-x="1320" 
d="M948 1049q0 -6 1 -18.5t1 -18.5q0 -61 -13 -126t-36 -106q-9 -18 -20 -18q-8 0 -13 8q-6 9 -6 25q0 14 6 32q33 88 33 179q0 29 -2 43q-9 121 -82 194.5t-172 73.5q-56 0 -110.5 -25t-106 -81t-90.5 -138t-62.5 -205.5t-23.5 -273.5q0 -152 28.5 -268.5t78.5 -186
t114 -104.5t139 -35q138 0 254 98q-150 120 -260 140q-8 2 -26 2h-11q-21 0 -44.5 -10.5t-42 -23t-23.5 -13.5q-31 -7 -47 -7q-31 0 -31 17q0 11 8 22q48 66 135 66q55 0 101 -10q139 -27 301 -123q95 115 146.5 286t51.5 355q0 137 -30 260t-88.5 222t-155 157.5
t-219.5 58.5q-124 0 -234 -74q-26 -18 -43 -18q-8 0 -8 8q0 20 25 41q56 49 133.5 74.5t152.5 25.5q148 0 266 -63.5t191 -170.5t111.5 -240.5t38.5 -280.5q0 -199 -69 -382t-196 -302q78 -51 187.5 -134t184 -139.5t164 -107t159.5 -64.5q27 -6 49 -6q63 0 95 34.5t32 88.5
q0 38 -10 63q-22 60 -91 136q-6 6 -6 14q0 14 15 14q8 0 16 -8q67 -61 113 -149q30 -58 30 -121q0 -93 -56 -159t-150 -66q-27 0 -54 6q-80 16 -161.5 55.5t-163 102.5t-144 118t-150 136.5t-136.5 123.5q-149 -100 -338 -100q-100 0 -187.5 41t-155.5 120.5t-107.5 207.5
t-39.5 290q0 148 33 275.5t87.5 216.5t125 153t145.5 94.5t150 30.5q126 0 213 -86t100 -247z" />
    <glyph glyph-name="R" unicode="R" horiz-adv-x="1458" 
d="M1456 1120q-1 -117 -90 -219t-228 -159.5t-288 -57.5q-50 0 -96 6q-9 1 -24.5 4t-18.5 4q27 -60 70.5 -131t103.5 -147t123.5 -137.5t136 -101.5t135.5 -40q52 0 77 21t25 71q0 71 -69 222q-2 2 -2 8t3.5 11t8.5 5q10 0 18 -14q31 -47 66 -141q35 -96 35 -166
q0 -84 -46.5 -129t-133.5 -45q-82 0 -176 56t-174.5 144.5t-148 189.5t-107 198.5t-40.5 164.5v4q0 41 25 45h10l2 -2h2q50 -18 115 -18q70 0 148 20t139 50q47 24 80.5 43t80 52.5t75 66t50 78t21.5 93.5q0 60 -43.5 101.5t-118 61.5t-148.5 28t-161 8q-106 0 -184 -8
q-61 -5 -150.5 -20t-204 -44.5t-210.5 -66.5t-162 -91.5t-66 -113.5q0 -52 41.5 -83.5t108.5 -31.5q73 0 157.5 37.5t167.5 116.5q4 4 6 4q6 0 6 -10q0 -13 -9.5 -33.5t-26.5 -36.5q-70 -64 -156.5 -96.5t-171.5 -32.5q-49 0 -82 8q-69 15 -109.5 64.5t-40.5 113.5
q0 69 42.5 129t109.5 102t161 76.5t185.5 56t194.5 36.5q106 16 248 16q100 0 194 -9.5t189.5 -33.5t166 -61t115 -98t43.5 -138zM717 1225q-150 -499 -178 -863q-9 -106 -9 -163q0 -232 84 -232q20 0 43 8t29 17h14q-6 -53 -39.5 -83t-78.5 -30q-51 0 -95.5 39t-60.5 111
q-25 122 -25 270q0 252 52 543.5t116 449.5q4 8 23 8h10q48 0 74 -16.5t41 -58.5z" />
    <glyph glyph-name="S" unicode="S" horiz-adv-x="1259" 
d="M1229 319q-25 -103 -106.5 -183.5t-192.5 -126t-226.5 -68.5t-226.5 -23q-78 0 -127 8q-156 25 -231.5 81t-75.5 130q0 61 49.5 125t130 115t195 83.5t233.5 31.5q32 0 72.5 -5.5t52.5 -11.5t12 -16q0 -15 -24 -15h-12q-51 7 -88 7q-95 0 -187 -29t-157 -73.5
t-104.5 -99.5t-39.5 -106q0 -61 54 -104.5t169 -61.5q62 -8 95 -8q108 0 215 38t184.5 96.5t125.5 131.5t48 140q0 107 -119 168q-63 31 -158.5 61.5t-172.5 51t-162 56t-138 79.5q-81 67 -81 174q0 119 98 225q103 108 260.5 165.5t316.5 55.5h9q184 -1 278 -58.5
t94 -140.5q0 -100 -122 -181.5t-310 -80.5h-8q-11 0 -21 10.5t-10 20.5t10 10q86 0 169.5 41.5t133.5 101.5t50 115q0 51 -51.5 84.5t-159.5 34.5h-6q-127 1 -263.5 -54.5t-226.5 -142.5t-90 -170q0 -85 96 -143q48 -30 130.5 -57.5t162.5 -46t166 -48.5t150 -64.5
t105.5 -95t41.5 -138.5q0 -50 -10 -89z" />
    <glyph glyph-name="T" unicode="T" horiz-adv-x="1398" 
d="M2204 1384q0 -63 -52 -112.5t-131.5 -75t-167.5 -25.5q-262 0 -628 46q-107 -496 -119 -846q0 -13 -1 -43t-1 -47q0 -306 96 -306q20 0 43 8t29 17h14q-4 -53 -37 -83t-78 -30q-51 0 -96.5 39t-64.5 111q-37 140 -37 387q0 202 23.5 423.5t60.5 389.5q-258 27 -340 33
q-70 4 -101 4q-187 0 -324 -47t-190 -123q-26 -39 -26 -82q0 -68 60.5 -122t168.5 -71q101 -14 201 -14q101 0 141 8q6 2 19 2q12 0 21 -3.5t9 -8.5q0 -13 -41 -27q-121 -41 -264 -41q-58 0 -109.5 8t-100.5 29t-84 52.5t-56 82t-21 115.5t26.5 118t69 88.5t103 62t120 41
t130 23t122.5 11t107 2.5q168 0 383 -32h2l17 51q2 8 22 8q53 0 81.5 -17t45.5 -59l-4 -12q349 -66 535 -66q44 0 95.5 5t123.5 18t119 45.5t47 79.5q0 25 -13 41q-4 4 -4 12q0 10 13 10q14 0 22 -14q21 -35 21 -64z" />
    <glyph glyph-name="U" unicode="U" horiz-adv-x="1316" 
d="M610 1389q0 61 -14 61q-20 0 -61 -98q-72 -180 -99 -498q78 120 126 264.5t48 270.5zM1303 -39h14q-1 -53 -33 -82t-78 -29q-51 0 -98 39t-68 111q-49 169 -49 477q0 37 2 55q-39 -141 -94 -262.5t-136.5 -216t-168.5 -112.5q-28 -7 -49 -7q-74 0 -130.5 53t-90.5 147.5
t-52.5 209t-23.5 252.5q-65 -41 -127 -41q-47 0 -87 33t-40 96q0 49 15 88t38 59q3 3 6 3q6 0 6 -11q0 -10 -8 -26q-16 -26 -16 -78q0 -25 4 -35q20 -63 86 -63q65 0 123 38q0 105 27.5 295.5t82.5 337.5q40 108 102.5 174t125.5 66q82 0 82 -150q0 -87 -19.5 -171t-56 -162
t-73.5 -138.5t-89 -132.5q-8 -112 -8 -248q0 -505 170 -505q6 0 26 4q58 13 112.5 71t98 146.5t77.5 191t59 215.5q31 135 45 207q29 337 84 500q2 8 22 8q53 0 81.5 -17t47.5 -59q-17 -76 -40 -206t-50 -357t-27 -395v-23q0 -372 105 -372q20 0 42.5 7t27.5 15z" />
    <glyph glyph-name="V" unicode="V" horiz-adv-x="1564" 
d="M1583 1403q-36 -8 -104 -8q-32 0 -56 4q45 -57 45 -193q0 -183 -73 -442t-176 -453q-48 -91 -94 -157t-104 -124t-128.5 -88t-151.5 -30q-77 0 -148 55.5t-91 159.5q-15 74 -15 158q0 106 29 336q0 2 6 50t11 91t9.5 111.5t4.5 127.5q0 73 -7 134t-22.5 114t-45.5 82.5
t-71 28.5q-58 -1 -109 -41t-85 -104t-59 -144.5t-36.5 -161.5t-11.5 -155q0 -81 14.5 -136.5t41.5 -68.5q16 -8 16 -21q0 -8 -8.5 -14t-20.5 -6q-13 0 -28 12q-41 35 -70 126t-29 200q0 62 13 135q16 81 49.5 156t88.5 144t140 111.5t189 43.5q68 1 116.5 -27t73.5 -78.5
t36 -108.5t11 -130q0 -140 -45 -365q-53 -265 -53 -424q0 -63 10 -131q13 -81 49 -119.5t86 -38.5q113 0 219 93.5t181 246.5q76 157 118.5 350.5t42.5 362.5q0 238 -75 322q-60 16 -110 50.5t-50 65.5q0 37 72 51q9 3 20 3q56 0 127.5 -41t87.5 -76q36 -4 82 -4q44 0 72 4
h4q9 0 15.5 -8.5t6.5 -16.5q0 -11 -10 -14z" />
    <glyph glyph-name="W" unicode="W" horiz-adv-x="2138" 
d="M2007 713q0 -77 -15 -168.5t-49.5 -192.5t-83.5 -183t-126 -135.5t-168 -53.5q-75 0 -138 34.5t-107 90t-79 133t-56 154t-36 163.5q-35 -106 -76 -199.5t-94.5 -180.5t-112.5 -149.5t-130.5 -100t-147.5 -38.5q-68 0 -114.5 60t-55.5 178q-2 18 -2 57q0 161 71 490
q80 353 80 577q0 242 -106 242q-62 -1 -120.5 -56t-101 -141t-74.5 -188.5t-48.5 -201t-16.5 -175.5q0 -113 35 -133q15 -9 15 -21q0 -10 -8 -17t-19 -7q-15 0 -27 12q-28 31 -45.5 103.5t-17.5 164.5q0 123 33 244q19 70 47.5 136.5t72.5 133t97 116t124.5 80.5t151.5 32
q105 1 150 -75t45 -206q0 -173 -90 -504q-103 -373 -103 -579v-33q6 -170 103 -170q73 1 142.5 59t127 157.5t104 218t82.5 255.5q-14 36 -24.5 107.5t-10.5 146.5q0 218 76 275q12 8 29 8q29 0 51 -23.5t21 -76.5v-9q-3 -134 -48 -331q6 -79 19 -166t40.5 -195.5
t63.5 -192.5t93 -142t124 -58q57 0 104 28.5t78.5 74t55.5 107.5t37 122t21.5 124.5t11 109t2.5 81.5q0 196 -37 352t-107 246q-56 9 -111 45.5t-55 63.5q0 26 64 26q25 0 41 -2q128 -12 215 -131q84 0 117 8h6q9 0 14.5 -6t5.5 -12q0 -15 -16 -21q-37 -12 -72 -12
q-18 0 -28 2q106 -185 106 -532z" />
    <glyph glyph-name="X" unicode="X" horiz-adv-x="1400" 
d="M1384 256q0 -6 1 -18t1 -17q0 -118 -53 -177.5t-133 -59.5q-66 0 -133.5 43.5t-124 111t-115 168t-104 197.5t-94.5 215q-168 -212 -293.5 -407t-167.5 -312q-18 -52 -18 -125v-12q0 -5 1 -13t1 -10q0 -8 -2 -12q-5 -12 -13 -12q-2 0 -14 4q-45 25 -45 102q0 59 26 127
q51 131 182 339.5t300 434.5q-27 71 -64.5 172.5t-63.5 170.5t-44 110q-46 104 -87.5 156.5t-84.5 52.5q-11 0 -17 -2q-72 -16 -105.5 -85.5t-33.5 -170.5q0 -130 45.5 -256t99.5 -148q13 -3 13 -16q0 -19 -21 -19q-10 0 -33 13q-66 39 -121 175t-55 273q0 111 44.5 191
t140.5 106q47 13 82 13q103 0 173 -73.5t121 -203.5q13 -31 54 -141.5t65 -173.5q155 195 295.5 346t227.5 213q17 10 43 10q39 0 76.5 -16.5t37.5 -38.5v-4q-7 -43 -59 -76q-251 -168 -576 -549q303 -746 502 -746q84 0 84 121q0 24 -3 50.5t-7.5 56t-5.5 37.5q-2 14 -2 32
q0 31 12 31q17 0 37 -51q23 -66 28 -127z" />
    <glyph glyph-name="Y" unicode="Y" horiz-adv-x="1564" 
d="M1321 1374q13 0 22 -20h3q8 0 15.5 -68.5t12.5 -142t6 -76.5q7 -17 39 -209q32 -198 58 -412l8 5q47 24 94 24q43 0 45 -24q0 -7 -9 -12t-20 -5q-58 -6 -110 -39q12 -126 12 -286q0 -83 -7 -168.5t-25 -182.5t-45 -184t-70.5 -167.5t-99 -138.5t-133 -93t-169.5 -35
q-137 0 -199.5 77.5t-62.5 202.5q0 215 195 496q106 154 214 260t238 191q-3 24 -25 233t-32 291q-45 -141 -80 -238q-41 -111 -86.5 -208.5t-103.5 -189t-119.5 -156t-134.5 -103.5t-148 -39h-16q-168 10 -168 272q0 58 9 131.5t17.5 119t24 116t16.5 76.5q0 2 11.5 57
t21.5 108t21.5 126t18.5 148.5t7 137.5q0 242 -106 242q-62 -1 -120.5 -56t-101 -141t-74.5 -188.5t-48.5 -201t-16.5 -175.5q0 -113 35 -133q15 -9 15 -21q0 -10 -8 -17t-19 -7q-15 0 -27 12q-28 31 -45.5 103.5t-17.5 164.5q0 123 33 244q19 70 47.5 136.5t72.5 133
t97 116t124.5 80.5t151.5 32q105 1 150 -75t45 -206q0 -173 -90 -504q-2 -6 -17.5 -61t-28.5 -104.5t-28 -117t-24 -133.5t-9 -120q0 -179 102 -184h11q95 0 194.5 103.5t178 263.5t128.5 345q23 84 37.5 181.5t21 165t15.5 126.5t26.5 89.5t49.5 31.5zM1346 324
q-90 -57 -188 -158t-180.5 -220.5t-136 -254t-53.5 -244.5q0 -104 41.5 -178t126.5 -74q82 0 147.5 35.5t108.5 99t73.5 141.5t46.5 174t23 184.5t7 184.5q0 166 -16 310z" />
    <glyph glyph-name="Z" unicode="Z" horiz-adv-x="1243" 
d="M1309 -31q0 -65 -42.5 -124t-105.5 -97q-12 -8 -40 -17.5t-40 -9.5q-6 0 -6 5v2q59 55 111.5 124.5t52.5 120.5q0 30 -31 52t-82 32t-100.5 14.5t-101.5 4.5q-62 0 -78 -2q-397 -29 -672 -113q-18 -6 -37 -6q-29 0 -57.5 20.5t-28.5 55.5q0 23 19 51q63 123 193.5 298.5
t282 349t286.5 318t245 252.5l35 17q-23 1 -152.5 24t-236.5 23q-94 0 -195 -14q-146 -22 -236.5 -101.5t-90.5 -158.5q0 -48 39 -78.5t114 -30.5h27q64 5 167.5 42.5t182.5 88.5q4 4 17 4q6 0 6 -4q0 -13 -41 -47q-80 -66 -173.5 -99.5t-183.5 -33.5q-46 0 -94 10
q-71 15 -113.5 71.5t-42.5 129.5q0 61 31.5 119t95 109t174 81.5t252.5 30.5h46q125 -5 306.5 -25t207.5 -22q26 -3 40.5 -18.5t14.5 -37.5q0 -32 -29 -49q-111 -64 -276 -227.5t-326 -362.5q-270 -336 -440 -594q4 1 40.5 6.5t57.5 9t66 9.5t78.5 10t82.5 9.5t90.5 8.5
t91 5t93.5 2q506 0 506 -238z" />
    <glyph glyph-name="bracketleft" unicode="[" horiz-adv-x="729" 
d="M696 1319q-68 0 -106.5 -1.5t-88.5 -6.5t-78.5 -18.5t-39.5 -35.5q-76 -153 -96 -671q-2 -35 -2 -115q0 -400 80 -559q34 -64 178 -64q28 0 79 3.5t70 3.5q11 0 18 -6.5t7 -14.5q0 -11 -8.5 -21t-20.5 -10q-21 -1 -126.5 -11.5t-162.5 -10.5q-135 0 -174 51
q-17 23 -31.5 56.5t-24 65t-17.5 81t-12 81t-7.5 89t-4.5 81t-3 81.5t-2 67q0 11 -1 35.5t-1 38.5q0 199 26 422.5t80 367.5q10 26 49 42.5t111 23.5t127.5 8.5t149.5 1.5h30q31 0 31 -20q0 -12 -10 -23.5t-19 -11.5z" />
    <glyph glyph-name="backslash" unicode="\" horiz-adv-x="897" 
d="M866 -35q4 -6 4 -16q0 -12 -12.5 -19.5t-30.5 -7.5q-36 0 -51 27l-739 1358q-4 6 -4 16q0 12 12 19.5t29 7.5q37 0 53 -29q369 -682 739 -1356z" />
    <glyph glyph-name="bracketright" unicode="]" horiz-adv-x="688" 
d="M606 743q0 -11 1 -34t1 -37q0 -199 -26 -422.5t-80 -368.5q-10 -27 -50 -44t-112 -24t-128.5 -8.5t-150.5 -1.5h-26q-31 0 -31 21q0 12 10 24.5t19 12.5h22q84 0 131 2.5t96.5 16.5t63.5 42q47 94 69 293t27 379q0 16 1 52t1 56q0 409 -79 566q-33 63 -179 63
q-28 0 -79 -3t-70 -3q-25 0 -25 18q0 11 8.5 20.5t20.5 10.5q24 1 129 13t162 12q131 0 172 -51q17 -23 31.5 -56.5t24 -65t17.5 -81.5t12 -81t7.5 -89.5t4.5 -81.5t3 -82t2 -68z" />
    <glyph glyph-name="asciicircum" unicode="^" 
d="M711 1075q2 -2 2 -6q0 -12 -41 -12q-52 0 -70 18q-143 169 -203 234l-233 -232q-14 -14 -43 -14q-21 0 -21 8q0 4 2 6q42 48 117 131t132 146t61 67h18q176 -219 279 -346z" />
    <glyph glyph-name="underscore" unicode="_" horiz-adv-x="1738" 
d="M1761 -141q-4 -12 -15 -23.5t-26 -11.5h-1734q-29 0 -29 31q0 6 4 18q19 37 43 37h1735q26 0 26 -29q0 -10 -4 -22z" />
    <glyph glyph-name="grave" unicode="`" horiz-adv-x="681" 
d="M242 1274l288 -238q2 -2 2 -4q0 -5 -6.5 -10.5t-13.5 -5.5q-1 0 -2 1t-2 1l-356 180q-9 3 -9 12q0 19 29 44.5t53 25.5q11 0 17 -6z" />
    <glyph glyph-name="a" unicode="a" horiz-adv-x="757" 
d="M836 285v-9q-4 -59 -27.5 -122.5t-71 -113.5t-104.5 -50q-59 0 -101.5 40t-62.5 104t-28.5 122.5t-8.5 116.5q-28 -100 -62.5 -181t-83.5 -140t-98 -60h-2q-48 0 -81.5 47.5t-49 120t-16.5 164.5v20q-1 58 5.5 118.5t20.5 127.5t40 125t61 105t88 74.5t117 27.5
q39 0 70 -18t46 -50q33 37 99 37q28 0 59 -8q-24 -89 -45.5 -231.5t-21.5 -266.5v-8q0 -45 4 -94t13.5 -103t29.5 -88t47 -33h2q37 0 78 78q32 63 57 154q4 18 16 18q11 0 11 -24zM475 836q-23 26 -55 26q-44 0 -91 -43.5t-75 -103.5q-64 -137 -64 -353q0 -20 5 -88
q4 -58 21.5 -86t41.5 -28q74 0 150 293q16 61 32.5 190t34.5 193z" />
    <glyph glyph-name="b" unicode="b" horiz-adv-x="651" 
d="M362 1268q-13 -117 -75 -307t-133 -343l6 -247q16 84 37 163.5t53.5 167.5t78 141.5t95.5 53.5q72 0 111 -68t47 -180q4 -58 4 -94q0 -67 -6 -132.5t-22.5 -136.5t-41.5 -127t-66.5 -99.5t-93.5 -59.5q-30 -10 -69 -10q-78 0 -111 41q-8 8 -8 28q0 21 10 21q7 0 15 -8
q27 -27 61 -27q33 0 59 23q105 87 117 362q2 25 2 105q0 225 -67 225q-65 0 -139 -254q-1 -3 -1.5 -4t-1 -3t-0.5 -3q-54 -171 -65 -301q-7 -117 -31 -152q-36 -51 -88 -51q2 7 3.5 23.5t2 34t2 49.5t2.5 55q4 94 4 149q0 102 -7.5 305.5t-8.5 276.5q0 11 -2 65t-2 94
q0 130 14 236q6 44 18.5 87.5t34 89t56 74t77.5 28.5q138 0 138 -187q0 -34 -9 -104zM152 776v-57q97 237 120 354q7 27 16 105.5t9 142.5q0 129 -41 129q-53 0 -88 -330q-16 -156 -16 -344z" />
    <glyph glyph-name="c" unicode="c" horiz-adv-x="532" 
d="M598 213q-75 -252 -281 -252q-55 0 -99 18t-72.5 47.5t-48.5 71.5t-30 86.5t-14 96.5q-2 18 -2 59q0 72 10.5 144.5t37 147t65 132t100 93.5t137.5 36q58 0 97 -45.5t39 -106.5q0 -60 -20 -91.5t-50 -31.5q-49 0 -49 105q0 46 -14.5 78.5t-45.5 32.5q-36 0 -64 -39.5
t-43 -94.5t-24.5 -124t-12.5 -118.5t-3 -88.5v-9q0 -65 9 -119t29 -98.5t55 -69t83 -24.5q121 0 180 205q3 11 10 18t13 7q14 0 14 -29q0 -16 -6 -37z" />
    <glyph glyph-name="d" unicode="d" horiz-adv-x="757" 
d="M836 285v-11q-4 -45 -19 -92.5t-40 -91.5t-64.5 -72t-85.5 -28q-36 0 -65 16t-47.5 47t-31.5 68.5t-20 87.5t-9.5 97t-2.5 104q-21 -77 -48.5 -148t-61 -133t-73.5 -99t-80 -38q-72 -1 -106.5 92.5t-34.5 239.5q0 70 9.5 144.5t34 157.5t62 147.5t100 106.5t140.5 42
q46 0 76 -21q11 254 25 367q6 46 17.5 90t31.5 92.5t54 78.5t77 30q137 0 137 -187q0 -42 -8 -104q-18 -143 -82.5 -330.5t-134.5 -321.5q-6 -54 -6 -178q0 -379 90 -379q75 0 139 232q3 16 16 16q11 0 11 -22zM465 799l2 57q-12 6 -29 6q-43 0 -91 -43.5t-77 -103.5
q-35 -74 -53 -177t-18 -202q0 -44 2 -62q8 -114 57 -114q79 0 164 307q36 135 43 332zM735 1378q-3 29 -14 50.5t-25 21.5q-23 0 -45 -61q-16 -44 -42.5 -316t-26.5 -354v-12q64 142 109.5 309t45.5 303q0 41 -2 59z" />
    <glyph glyph-name="e" unicode="e" horiz-adv-x="538" 
d="M606 213q-75 -252 -278 -252q-128 0 -209 121q-55 81 -62 223v37q0 102 22 199t64.5 180t116 133.5t166.5 50.5h14q53 -1 82 -41.5t27 -91.5v-6q-3 -154 -101.5 -256t-232.5 -133v-10q0 -139 43.5 -228.5t136.5 -89.5q60 0 107 52t76 153q7 25 20 25q14 0 14 -27
q0 -15 -6 -39zM217 426v-2q94 24 155.5 115t63.5 196v10q2 42 -11.5 72.5t-41.5 30.5h-2q-43 1 -76.5 -52.5t-51 -132.5t-26 -137.5t-10.5 -99.5z" />
    <glyph glyph-name="f" unicode="f" horiz-adv-x="495" 
d="M535 -211q0 -125 -24.5 -228.5t-74.5 -168t-117 -64.5q-40 0 -73 12.5t-55.5 31t-40 49t-27 57t-17 66t-10.5 66t-6 66.5q-6 70 -6 332q0 172 2 268h-2q-10 -3 -10 9q0 8 12 20l4 168q2 90 6.5 173.5t14.5 195t24 205t37.5 188.5t53 160.5t72 107t93.5 41.5
q48 0 81.5 -33.5t46.5 -76.5t13 -88q0 -308 -305 -934q-4 -54 -4 -80q84 -4 147.5 -57.5t97.5 -137t50.5 -171.5t16.5 -177zM219 283q-6 -138 -6 -267q0 -285 29.5 -466t79.5 -181q55 0 91 96t36 230q0 539 -230 588zM236 535q160 350 213 636q18 106 18 162q0 89 -33 92h-2
q-46 3 -86 -159q-70 -306 -110 -731z" />
    <glyph glyph-name="g" unicode="g" horiz-adv-x="788" 
d="M834 279q10 -3 10 -15q0 -8 -5 -15t-12 -7q-40 -3 -109 -51t-69 -80v-33q1 -205 -32.5 -367t-93.5 -262t-136 -151.5t-164 -51.5q-108 0 -158.5 53t-50.5 144q0 117 80 274q33 64 87.5 128t118 117t115 90.5t105.5 70.5v14q2 81 -18 357l-17 -54q-113 -454 -268 -454
q-50 0 -85 32t-51 84.5t-22 100t-6 98.5q0 388 170 547q78 72 168 72q46 0 86 -19t66 -51q36 43 110 43h25q31 0 31 -12q0 -4 -9 -13q-51 -44 -51 -348q0 -67 2 -170t2 -125v-22q132 78 170 78q2 0 6 -1t5 -1zM522 72q-30 -17 -73 -52t-96 -87t-106 -125t-87 -148
q-56 -121 -56 -219q0 -69 26 -110.5t71 -41.5h6q45 -1 84.5 22t68 58.5t52.5 90.5t40 107t28.5 120t19.5 117.5t12 112t6.5 90.5t3.5 65zM528 831q-23 29 -63 29q-48 0 -89.5 -28t-68.5 -75t-48 -102.5t-32 -115.5t-16.5 -109t-5.5 -88q0 -182 65 -190h6q119 0 220 576
q1 6 1.5 8.5t1 6.5t1.5 7q8 48 28 81z" />
    <glyph glyph-name="h" unicode="h" horiz-adv-x="735" 
d="M813 266v-8q-2 -23 -22 -84q-29 -83 -83 -134t-133 -50h-4q-55 0 -91.5 35t-47.5 94q-8 39 -8 104q0 135 41 375q6 38 6 76q0 88 -35 88q-26 0 -65 -53q-42 -56 -83 -156.5t-63 -214.5q-3 -17 -8.5 -84t-11.5 -125.5t-12 -69.5q-37 -67 -111 -67q2 7 3.5 23.5t2 34
t2 49.5t2.5 55q4 66 4 194q0 208 -16 440q-8 180 -8 228q0 79 4.5 148t19 144t37 127.5t62.5 87t92 33.5q133 0 133 -206q0 -184 -98 -482q-51 -148 -129 -301l6 -153q52 208 149 354q93 139 184 139q103 0 103 -131q0 -50 -10 -92q0 -3 -9 -45.5t-16.5 -84t-16.5 -98
t-14.5 -113.5t-5.5 -103q0 -56 10 -101q18 -71 64 -71q13 0 33 10q38 24 59.5 64.5t48.5 121.5q8 23 25 23q10 0 10 -21zM354 1290v21q-3 137 -49 137q-29 0 -54.5 -83.5t-39.5 -211.5q-21 -188 -21 -420v-80q72 160 118 332t46 305z" />
    <glyph glyph-name="i" unicode="i" horiz-adv-x="354" 
d="M432 285v-9q-4 -59 -27.5 -122.5t-71 -113.5t-104.5 -50q-53 0 -91.5 36t-60 98t-31 134.5t-9.5 157.5q0 126 17.5 244.5t39.5 160.5q33 68 115 68q26 0 53 -6q-78 -277 -78 -480q0 -43 1 -76t3.5 -76.5t8.5 -74.5t14.5 -59.5t23 -43t33.5 -14.5h2q37 0 78 78
q34 67 58 154q4 18 16 18q10 0 10 -24zM342 1135q0 -41 -28.5 -70t-69.5 -29q-40 0 -69.5 29t-29.5 70q0 40 29.5 69t69.5 29q41 0 69.5 -29t28.5 -69z" />
    <glyph glyph-name="j" unicode="j" horiz-adv-x="407" 
d="M467 279q10 -3 10 -15q0 -8 -4.5 -15t-11.5 -7q-40 -3 -109 -51t-69 -80v-33q1 -205 -32.5 -367t-93.5 -262t-136 -151.5t-164 -51.5q-108 0 -158.5 53t-50.5 144q0 117 80 274q33 64 87.5 128t118 117t115 90.5t105.5 70.5v16q0 114 -19 367q-10 122 -10 172
q0 94 22 139q36 80 123 80q21 0 41 -4q29 -3 29 -14q0 -5 -6 -11q-51 -44 -51 -348q0 -67 2 -170t2 -125v-22q132 78 170 78q2 0 5.5 -1t4.5 -1zM156 72q-30 -17 -73 -52t-96.5 -87t-106.5 -125t-87 -148q-55 -119 -55 -219q0 -69 25.5 -110.5t70.5 -41.5h6q45 -1 84.5 21.5
t68 58.5t53 90.5t40 107t28.5 120.5t20 118t12 112t6.5 90.5t3.5 64.5zM332 1135q0 -41 -29 -70t-70 -29t-69.5 29t-28.5 70q0 40 28.5 69t69.5 29t70 -29t29 -69z" />
    <glyph glyph-name="k" unicode="k" horiz-adv-x="684" 
d="M150 569q7 -136 10 -250q19 83 42 160.5t59.5 167.5t76.5 155t93.5 108.5t111.5 43.5q106 0 106 -120q0 -79 -86.5 -178t-177.5 -144q6 -41 26 -110t49.5 -145t69 -130t76.5 -53q42 0 76 71q28 62 53 146q7 18 17 18t10 -24v-9q-8 -108 -66 -196q-56 -87 -137 -90h-12
q-76 0 -122.5 43t-80.5 125q-31 73 -56 170.5t-30 150.5q0 2 1 4.5t1 3.5h-2q-78 -209 -104 -362q0 -4 -4 -8q-6 -50 -23 -74q-36 -51 -88 -51q2 7 3.5 23.5t2 34t2 49.5t2.5 55q4 106 4 168v22q0 225 -16 444q-8 90 -8 228q0 79 4.5 148t19 144t37 127.5t62.5 87t92 33.5
q133 0 133 -206q0 -184 -98 -482q-52 -152 -129 -299zM311 1288v23q-3 137 -49 137q-49 0 -78 -184q-20 -130 -29.5 -307t-9.5 -269q0 -27 2 -43q72 162 118 335.5t46 307.5zM266 508q106 16 184 105t78 157q0 39 -34 39t-71 -34.5t-69 -90t-51.5 -95.5t-36.5 -81z" />
    <glyph glyph-name="l" unicode="l" horiz-adv-x="409" 
d="M184 627q86 173 142.5 360t56.5 326q0 137 -43 137q-40 0 -77 -169t-54.5 -332t-20.5 -244q0 -8 -4 -78zM483 262v-4q0 -26 -18 -82q-61 -184 -205 -184q-42 0 -76.5 18.5t-57 47.5t-38 68t-23 75.5t-10.5 74.5q-8 99 -8 250q0 460 68 754q10 44 26.5 87.5t41.5 89
t62.5 74t80.5 28.5q120 0 120 -140q0 -258 -108 -549q-49 -137 -156 -331q-2 -23 -2 -68q0 -408 125 -408q40 0 69 33.5t46 77.5q18 45 31 88q8 23 22 23q10 0 10 -23z" />
    <glyph glyph-name="m" unicode="m" horiz-adv-x="1077" 
d="M1151 262v-4q0 -26 -18 -82q-29 -87 -75.5 -137.5t-125.5 -50.5q-160 0 -160 266v37q1 43 3.5 103t4 104.5t2.5 85.5q0 4 1 23.5t1 33.5q0 113 -34 113q-18 0 -54 -45q-57 -75 -101 -220.5t-44 -300.5q0 -82 14 -153q-15 -10 -43 -10q-63 0 -88 73q-24 71 -24 183
q0 42 2.5 88.5t7 112t6.5 89.5v31q0 146 -41 146q-24 0 -51 -39q-59 -78 -108.5 -236t-49.5 -319q0 -72 12 -142q-54 -28 -90 -28q-29 0 -42 16.5t-13 56.5q0 12 4 58q21 147 21 405q0 208 -25 293q12 3 44.5 23t53.5 24q6 2 17 2q32 0 42.5 -32t10.5 -95q0 -101 -6 -174
q34 104 106 207q43 65 89 102t87 37q46 0 63 -26.5t17 -75.5q0 -22 -3.5 -65.5t-4.5 -57.5l-12 -182l20 61q33 101 107 207q43 65 89 102t87 37q53 0 71.5 -34t18.5 -97q0 -28 -4 -94q-1 -10 -4.5 -61.5t-7.5 -117t-6 -124.5q0 -2 -1.5 -33t-1.5 -55q0 -225 70 -225
q35 0 65.5 40.5t44 78t23.5 77.5q8 25 21 25q12 0 12 -25z" />
    <glyph glyph-name="n" unicode="n" horiz-adv-x="706" 
d="M780 266v-8q0 -26 -18 -82q-62 -188 -207 -188q-104 0 -135 157q-14 71 -14 156q0 50 4 106t11 124.5t9 101.5q0 5 1 15t1 14q0 94 -39 94q-23 0 -59 -47q-59 -78 -108.5 -235.5t-49.5 -317.5q0 -72 12 -142q-43 -30 -77 -30q-68 0 -68 94q0 23 2 37q21 189 21 413
q0 197 -23 285q9 2 42.5 22.5t55.5 24.5q6 2 17 2q32 0 42.5 -32t10.5 -95q0 -101 -6 -174q34 104 106 207q3 5 19.5 30.5t23 33.5t22.5 27t27.5 26.5t30 14.5t37.5 7q98 0 98 -131q0 -13 -6 -94l-7 -68q-6 -67 -11.5 -149t-5.5 -152q0 -125 20 -192q16 -55 53 -55
q16 0 37 12q40 26 68 96q25 61 31 88q3 9 9.5 17t12.5 8q10 0 10 -21z" />
    <glyph glyph-name="o" unicode="o" horiz-adv-x="602" 
d="M500 317q18 77 18 187q0 219 -86 278q-24 16 -24 39q0 30 32 51q-21 15 -39 15q-35 0 -65.5 -41.5t-49 -100.5t-29 -105.5t-13.5 -74.5q-11 -85 -11 -170q0 -58 5 -107t17 -95.5t35.5 -73.5t57.5 -27q30 0 56.5 23.5t45 61.5t30.5 72t20 68zM551 291
q-14 -52 -37.5 -103.5t-57 -99.5t-79.5 -78t-96 -30q-53 0 -93.5 25t-65 64t-39.5 93.5t-20.5 107t-5.5 111.5q0 54 11 172q6 55 20 105t40 101t61 88t87.5 60t116.5 23q55 0 94.5 -28.5t60.5 -79t30.5 -108t9.5 -126.5q0 -161 -37 -297z" />
    <glyph glyph-name="p" unicode="p" horiz-adv-x="675" 
d="M608 530q0 -90 -18.5 -179.5t-54.5 -170t-99.5 -130.5t-144.5 -50q-58 0 -90 25v-91q0 -157 -2 -200q-6 -123 -23 -211q-49 -225 -172 -228h-6q-68 -1 -99.5 65t-31.5 177q0 86 16 187q17 106 68 249q12 34 41 98t44.5 115t14.5 103v8q-3 168 -20.5 312.5t-36.5 203.5
q26 8 66 26.5t57 20.5h10q18 0 30 -9.5t18 -31t8.5 -41t4.5 -53.5q1 -14 5 -227q29 109 66.5 200t87 155.5t95.5 64.5q34 0 61 -16.5t44 -40t29 -61.5t18 -69.5t9.5 -75t4 -67.5t0.5 -58zM438 360q13 76 13 185q0 99 -16.5 164t-53.5 65q-44 0 -93.5 -137t-90.5 -318
q2 -80 2 -237q27 -27 61 -27q31 0 59 21q43 35 74.5 114.5t44.5 169.5zM51 102q-49 -113 -80 -227q-47 -171 -47 -305q0 -61 13 -131q6 -31 21.5 -54.5t31.5 -23.5q29 0 49 74q24 96 24 313q0 186 -12 354z" />
    <glyph glyph-name="q" unicode="q" horiz-adv-x="677" 
d="M817 -303v-29q0 -159 -47.5 -248t-144.5 -90q-52 -1 -91.5 29t-64 79.5t-39.5 121.5t-21 146.5t-6 162.5q0 72 4.5 158t9 138t12.5 136.5t9 97.5q-26 -97 -62.5 -184.5t-88 -154.5t-101.5 -68h-2q-54 0 -89.5 69.5t-43.5 171.5q-4 54 -4 91q0 76 8 152.5t30.5 160
t56.5 147t92 105t131 41.5q75 0 131 -53q28 47 88 47q26 0 63 -9q-27 -103 -49 -268q-34 -267 -49 -567h6q70 2 131 -58t95 -148.5t36 -176.5zM453 608q14 86 14 127q0 148 -100 148q-56 0 -96 -109t-55 -234t-15 -233q0 -45 2 -61q8 -86 49 -86q20 0 39.5 15t30.5 36
q83 143 131 397zM745 -377v25q0 59 -13 121.5t-36.5 118t-62.5 96t-86 51.5q-4 -126 -4 -187q0 -134 8 -225q19 -239 98 -239q35 0 62.5 62t33.5 177z" />
    <glyph glyph-name="r" unicode="r" horiz-adv-x="587" 
d="M666 287v-11q-15 -137 -78.5 -211.5t-155.5 -74.5q-176 0 -176 311q0 189 55 414q-93 5 -145 53q-12 -151 -44.5 -323t-70.5 -281q-9 -27 -26 -27q-15 0 -15 19q0 14 4 22q47 133 75 307t28 289v23q-48 20 -73.5 62t-25.5 85q0 68 45 74h5q37 0 69.5 -77t32.5 -128
q46 -35 104 -35q27 0 35 8q2 2 16 21t23.5 28t30.5 19t45 10q34 0 84 -20q-53 -113 -80 -252q-31 -181 -31 -305q0 -228 92 -228q87 0 150 232q4 18 16 18q11 0 11 -22z" />
    <glyph glyph-name="s" unicode="s" horiz-adv-x="645" 
d="M723 244q-23 -46 -82 -74t-139 -33q-71 -160 -250 -160q-217 0 -217 201q0 28 4 51q-12 21 -12 62q0 61 32 61h2q7 0 17 -14q15 42 90 301q12 42 18 63.5t21 62t29 65.5t37 53t49 45q54 35 114 35q3 0 10.5 -1t10.5 -1q16 -3 16 -15q0 -14 -14 -14q-43 -3 -43 -113
q0 -31 2 -45q7 -60 61.5 -223t55.5 -238v-10q0 -62 -17 -117q61 3 107 21q48 20 75 65q4 7 11 7q6 0 11 -6t5 -15q0 -6 -4 -14zM350 209q8 41 8 96q0 65 -14 158q-7 47 -21.5 114.5t-23 117t-8.5 87.5q0 33 6 60q-23 -2 -68 -170q-60 -214 -114 -365q42 -27 110 -55
q67 -31 125 -43zM334 143q-167 13 -250 54q0 -4 -1 -12t-1 -11q0 -60 31.5 -94.5t83.5 -34.5h8q40 3 75.5 26.5t51.5 65.5q0 1 1 3t1 3z" />
    <glyph glyph-name="t" unicode="t" horiz-adv-x="368" 
d="M444 285v-9q-4 -59 -27.5 -122.5t-70.5 -113.5t-104 -50q-47 0 -83 26.5t-56 65.5t-33 92t-17 97.5t-4 90.5v31q13 297 23 436h-64q-16 0 -16 21q0 11 7 22t17 11h60q17 220 43 284q10 25 38 41.5t70 16.5q18 0 58 -8q-24 -82 -47 -334h163q19 0 19 -23q0 -12 -7 -21.5
t-18 -9.5h-164q-21 -223 -24 -452v-47q0 -51 2 -90.5t9 -85t23 -71t40 -24.5h2q36 0 77 78q27 53 58 154q7 18 16 18q10 0 10 -24z" />
    <glyph glyph-name="u" unicode="u" horiz-adv-x="759" 
d="M838 279q-4 -59 -27.5 -122.5t-71 -114t-104.5 -50.5q-50 0 -88 29t-59 78t-32 99.5t-14 106.5q-33 -132 -77 -201q-35 -53 -77.5 -82.5t-82.5 -29.5q-46 0 -81 37.5t-52 111.5q-15 71 -15 201q0 138 16 280t40 207q10 27 38.5 44.5t71.5 17.5q31 0 62 -8
q-36 -140 -54 -293q-20 -160 -20 -287q0 -197 61 -197q53 0 92.5 88t63.5 214q11 59 31.5 209t34.5 212q6 26 36 44t74 18q31 0 62 -8q-26 -72 -47 -234.5t-21 -314.5q0 -271 78 -271h2q37 0 78 78q21 42 55 152q7 18 16 18q11 0 11 -24v-8z" />
    <glyph glyph-name="v" unicode="v" horiz-adv-x="649" 
d="M645 940q14 -32 14 -98q0 -101 -31 -245t-79.5 -278t-116.5 -228.5t-133 -94.5q-22 0 -40 12t-32 37.5t-24.5 54t-18.5 72.5t-13 80.5t-9.5 91t-6.5 91.5t-5 93q-30 -148 -68 -272q-11 -43 -27 -86q-9 -27 -24 -27t-15 25q0 15 9 39l22 69q57 178 74 371q4 50 4 76
q0 31 -6 100q32 37 84 37h2q25 0 42.5 -17t26 -49.5t12 -70.5t3.5 -90v-53q0 -45 4 -109.5t12.5 -147t28.5 -138.5t47 -56q34 0 70 61.5t59 149.5q39 165 39 326q0 159 -43 233q-4 6 -4 19q0 25 25.5 45t56.5 20q42 0 61 -43z" />
    <glyph glyph-name="w" unicode="w" horiz-adv-x="1005" 
d="M944 940q35 -60 35 -227q0 -123 -21.5 -260.5t-60.5 -241.5q-14 -37 -34.5 -72.5t-49.5 -70.5t-68 -56.5t-81 -21.5q-9 0 -33 4q-74 15 -120 112t-52 252q-8 -34 -23.5 -77.5t-42 -96t-57.5 -95t-73 -71t-85 -28.5q-97 0 -119 231q-8 79 -8 174q0 70 2 90q20 359 221 359
q4 0 12.5 -1t12.5 -1v-19q-42 -11 -70 -143t-28 -279q0 -61 6 -110q15 -131 65 -131q48 0 95 108q17 39 29.5 80.5t22 93t14.5 82.5t13 95.5t11 85.5q9 65 35 106q10 17 57 28t92 11q14 0 14 -10q0 -6 -10 -13q-29 -18 -37 -178q-4 -90 -4 -135q0 -43 4 -125q2 -27 5 -55.5
t11.5 -77.5t20 -85t31.5 -63.5t45 -27.5q35 0 65.5 29t49.5 73t31 86t16 78q8 86 8 170q0 280 -78 393q-8 11 -8 25q0 22 20 37.5t47 15.5q48 0 72 -47z" />
    <glyph glyph-name="x" unicode="x" horiz-adv-x="620" 
d="M692 248v-10q-6 -79 -49 -144q-56 -92 -141 -102h-13q-122 0 -235 258q-120 -203 -205 -422q-5 -16 -18 -16q-8 0 -14.5 8t-6.5 20q0 7 4 19q82 212 213 458q-46 122 -84 261q-36 -267 -94 -426q-6 -19 -16 -19q-7 0 -13 9.5t-6 21.5q0 10 2 14q35 120 59.5 274.5
t24.5 288.5q0 6 -1 18.5t-1 18.5v8q2 16 13 45q22 56 94 91q4 2 12 2q23 0 27 -35q15 -206 71 -410q41 72 123 205q98 165 115 168q4 2 16 2q20 0 34.5 -14.5t14.5 -42.5v-4q0 -11 -27.5 -60.5t-66.5 -101.5q-12 -16 -46.5 -60t-68.5 -89.5t-67 -92.5q46 -130 98 -223
q58 -103 103 -103q39 0 73 70q27 55 41 119q6 27 21 27q14 0 14 -31z" />
    <glyph glyph-name="y" unicode="y" horiz-adv-x="677" 
d="M748 279q10 -3 10 -17q0 -7 -5 -13.5t-12 -6.5q-40 -3 -109 -51t-69 -80v-25q1 -208 -33 -371.5t-93.5 -264t-135.5 -152.5t-164 -52q-108 0 -158.5 53t-50.5 144q0 121 80 274q34 64 88.5 128t117.5 117t115 90.5t105 70.5q0 141 -16 373q-32 -169 -117 -359
q-20 -47 -61.5 -95t-83.5 -48q-24 0 -47 20q-36 32 -52 154.5t-16 247.5q0 16 1 39.5t1 29.5q0 4 2 46.5t3 58.5t4 55.5t6.5 62.5t10.5 52.5t15 50.5q17 41 45.5 59.5t75.5 18.5q25 0 37 -2q16 -4 16 -10q0 -5 -2 -7q-30 -71 -48 -206t-18 -263q0 -87 9 -145q16 -92 43 -92
q12 0 30 24q56 81 90 208.5t41 246.5q0 6 0.5 35t1.5 41t4 34.5t8.5 39.5t14.5 32q39 68 135 68h25q31 0 31 -12q0 -4 -9 -13q-51 -44 -51 -348q0 -67 2 -170t2 -125v-22q135 78 170 78q2 0 6 -1t5 -1zM436 72q-29 -17 -71.5 -52t-96 -87t-107 -125t-87.5 -148
q-54 -117 -54 -219q0 -69 25 -110.5t70 -41.5h6q46 -1 85.5 22t68 58t52.5 90.5t40 107t28.5 120.5t19 117.5t12 112.5t6.5 90t3 65z" />
    <glyph glyph-name="z" unicode="z" horiz-adv-x="733" 
d="M831 244q-66 -6 -141 -41q15 -59 15 -133q0 -100 -24 -213.5t-69.5 -220.5t-104.5 -194.5t-135.5 -140.5t-156.5 -53q-103 0 -149 56t-46 147q0 67 21.5 140t52.5 126q67 115 186 242t252 211q-34 100 -122 100q-38 0 -73.5 -18.5t-57.5 -48.5v-10q0 -56 -25.5 -96
t-63.5 -40q-28 0 -34 37q0 2 -1 7t-1 8q0 39 31 114t83.5 167t98 167t97 156t58.5 92q-37 -57 -123 -57q-35 0 -80 10q-31 8 -59 8q-43 0 -63.5 -24t-30.5 -72q-9 -44 -24.5 -132t-24.5 -130q-33 -156 -66 -246q-9 -27 -26 -27q-15 0 -15 19q0 14 4 22q33 92 64 234
q14 63 25 199.5t28 205.5q30 127 119 127q19 0 43 -6q33 -8 114 -52t113 -44q13 0 25 6q4 50 31.5 93.5t74.5 43.5q26 0 42 -17t16 -40v-11q-6 -35 -48 -74.5t-100 -60.5q-147 -214 -233 -389q-28 -56 -49 -115q38 50 94.5 78.5t115.5 28.5q62 0 113 -33t76 -100
q65 26 131 26h20q15 0 15 -16t-13 -16zM547 113q-136 -99 -236 -221.5t-151 -245.5q-45 -110 -45 -205q0 -68 24.5 -108t67.5 -40q75 0 142.5 67.5t111.5 171.5t70 226t26 234q0 59 -10 121z" />
    <glyph glyph-name="braceleft" unicode="{" horiz-adv-x="729" 
d="M696 -145h2q9 0 17 -10t8 -21q0 -22 -29 -25q-115 -14 -213 -14q-356 0 -356 199q0 52 24.5 120t53.5 120.5t53.5 102t24.5 68.5q-1 41 -33.5 69.5t-71.5 41.5t-71.5 34t-32.5 48q0 22 21.5 38.5t52 28.5t61 26t52 39t22.5 58q0 20 -25.5 64.5t-56.5 91t-56.5 107
t-25.5 108.5q0 225 577 225q31 0 31 -20q0 -12 -10 -23.5t-19 -11.5q-114 0 -193 -14.5t-121.5 -42t-60.5 -61t-18 -77.5q0 -56 39 -174t39 -164q0 -24 -6 -45q-14 -41 -62 -86.5t-104 -64.5q60 -22 110 -69.5t56 -88.5q2 -8 2 -24q0 -49 -39 -192.5t-39 -211.5
q0 -81 47 -126.5t162 -45.5q79 0 188 23z" />
    <glyph glyph-name="bar" unicode="|" horiz-adv-x="688" 
d="M383 1399q0 -34 -4 -241t-4 -324q0 -175 3 -455t3 -352q0 -25 -1 -62t-1 -47q-1 -27 -22.5 -41t-51.5 -14q-34 0 -60 16t-26 41v8q33 191 33 738q0 532 -33 688v2q0 17 51 36t88 19q25 0 25 -12z" />
    <glyph glyph-name="braceright" unicode="}" horiz-adv-x="729" 
d="M711 588q0 -22 -21.5 -39t-52.5 -30t-62 -27t-52.5 -39t-22.5 -58q0 -19 24 -68.5t53.5 -102t53.5 -120.5t24 -120q0 -199 -354 -199q-98 0 -213 14q-31 3 -31 25q0 10 8.5 20.5t16.5 10.5h2q109 -23 188 -23q115 0 163 45.5t48 126.5q0 68 -38.5 211.5t-38.5 192.5
q0 16 2 24q6 42 55 89t110 69q-57 19 -103.5 64.5t-61.5 86.5q-7 24 -7 45q0 46 38 164t38 174q0 44 -17.5 77t-60 61t-122 42.5t-193.5 14.5q-8 0 -17.5 11.5t-9.5 23.5q0 20 31 20q165 0 281 -17.5t178.5 -49.5t89.5 -70.5t27 -87.5q0 -48 -25.5 -108.5t-56.5 -107
t-56.5 -91t-25.5 -64.5q1 -41 34 -69.5t72.5 -41t72 -33t32.5 -46.5z" />
    <glyph glyph-name="asciitilde" unicode="~" 
d="M735 1323v-6q0 -39 -41.5 -109t-93.5 -98h2q-24 -12 -51 -12q-43 0 -143 50t-154 50q-13 0 -37 -4q-36 -9 -51 -32t-21.5 -49t-19.5 -34h-2q-10 0 -10 17q0 38 35 102t83 92q23 13 48 13q44 0 149 -51.5t156 -51.5q30 0 57 12q21 5 39.5 34t30.5 55t18 26q4 0 6 -4z" />
    <glyph glyph-name="exclamdown" unicode="&#xa1;" horiz-adv-x="475" 
d="M344 616l53 -870v-4q1 -32 -27.5 -50t-66.5 -18q-39 0 -69.5 18.5t-30.5 47.5v6l100 872q0 8 6.5 14.5t12.5 6.5q8 0 15 -6.5t7 -16.5zM422 981q0 -41 -28.5 -69.5t-69.5 -28.5t-70 28.5t-29 69.5t29 69.5t70 28.5t69.5 -28.5t28.5 -69.5z" />
    <glyph glyph-name="cent" unicode="&#xa2;" horiz-adv-x="1034" 
d="M522 109v933q-106 -78 -179 -222t-73 -314q0 -54 9 -113q21 -130 86.5 -203t156.5 -81zM928 354q-11 -37 -33 -73q-52 -91 -135.5 -147t-179.5 -68v-148q0 -19 -9 -30t-22 -11q-10 0 -18.5 10t-8.5 29v145q-126 2 -224 81.5t-134 234.5q-19 81 -19 155q0 204 104 376.5
t273 228.5v88q0 21 9 33t20 12q12 0 20.5 -11.5t8.5 -31.5v-78q40 8 67 8q192 0 215 -166q2 -12 2 -37q0 -51 -22 -106q-3 -8 -16.5 -14.5t-28.5 -6.5q-41 0 -41 45q0 5 4 29q16 70 16 103q0 100 -98 100q-42 0 -98 -27v-966q139 23 258 174q31 41 45 86q13 39 28 39
q19 0 19 -35q0 -15 -2 -21z" />
    <glyph glyph-name="sterling" unicode="&#xa3;" horiz-adv-x="972" 
d="M1079 -63q0 -63 -36.5 -102.5t-84.5 -39.5h-2q-11 0 -17.5 5t-6.5 10q0 6 8 10q1 0 14 5t18 7.5t16 10.5t16.5 16.5t10.5 24t5 34.5v8q3 117 -215 117q-74 0 -184 -14q-332 -49 -650 -117h-4q-16 0 -24.5 22.5t-8.5 51.5q0 48 19 51q47 6 86.5 15.5t76.5 20.5t56 15
q-12 159 -12 311q0 90 2 133h-96q-17 0 -17 21q0 11 7.5 22t17.5 11h90q21 459 160 757q88 187 227 187q4 0 11 -1t11 -1q72 -7 107 -66.5t35 -152.5q0 -107 -41 -231.5t-103 -213.5q-40 -55 -57 -55q-8 0 -8 10q0 20 20 64q109 234 109 403q0 31 -2 47q-3 38 -17 64t-36 26
q-35 0 -78 -73q-52 -89 -107.5 -301t-87.5 -408q-4 -17 -8 -55h336q18 0 18 -23q0 -12 -6.5 -21.5t-17.5 -9.5h-338q-35 -268 -33 -413v-27q25 2 210.5 28.5t289.5 26.5q321 0 321 -210z" />
    <glyph glyph-name="currency" unicode="&#xa4;" horiz-adv-x="1050" 
d="M926 958l-152 -155q39 -73 39 -158q0 -76 -37 -145l148 -150q6 -6 6 -12q0 -22 -51 -39q-3 0 -11 -1t-12 -1q-35 0 -51 16l-96 99q-71 -58 -156 -58q-90 0 -158 62l-100 -103q-16 -16 -49 -16q-4 0 -11 1t-10 1q-21 5 -38 16t-17 23q0 6 6 12l150 154q-33 68 -33 141
q0 82 37 154l-156 159q-8 8 -8 17q0 11 13.5 20.5t29.5 12.5q16 4 37 4q34 0 49 -15l108 -110q66 53 150 53q78 0 147 -53l107 110q13 13 49 13q29 0 35 -2q16 -3 29.5 -12.5t13.5 -20.5q0 -9 -8 -17z" />
    <glyph glyph-name="yen" unicode="&#xa5;" horiz-adv-x="837" 
d="M805 1073q-40 -38 -128.5 -184t-164.5 -311h88q16 0 16 -19q0 -8 -2 -12q-12 -23 -26 -23h-101l-47 -121h160q16 0 16 -18q0 -10 -2 -14q-12 -23 -26 -23h-168q-51 -155 -51 -256q0 -17 4 -49q6 -41 41 -47q8 -3 8 -12q0 -16 -21.5 -34t-54.5 -18q-40 0 -66 35t-26 86v2
q0 90 57 293h-94q-16 0 -16 19q0 10 2 14q11 22 26 22h97l16 52q11 35 16 69h-141q-16 0 -16 19q0 8 2 12q11 23 26 23h133q0 4 -1 12t-1 12q-18 122 -98.5 248.5t-185.5 204.5q-10 5 -10 20q0 20 21 38.5t58 19.5h2q47 1 108 -101.5t102.5 -222.5t50.5 -191
q243 524 319 562q6 4 21 4q26 0 48.5 -25t22.5 -53q0 -19 -14 -33z" />
    <glyph glyph-name="brokenbar" unicode="&#xa6;" horiz-adv-x="688" 
d="M379 -2v-80q0 -27 -21.5 -41t-52.5 -14q-33 0 -59.5 16t-26.5 41v8q29 181 33 660q0 28 63 28q24 0 43 -5.5t19 -14.5q0 -140 1 -344.5t1 -253.5zM383 1399q0 -35 -4 -256.5t-4 -345.5q0 -15 -45 -15q-28 0 -53 6.5t-25 16.5q-7 416 -33 549v2q0 17 51 36t88 19
q25 0 25 -12z" />
    <glyph glyph-name="section" unicode="&#xa7;" horiz-adv-x="1212" 
d="M1145 618q-18 -76 -75.5 -135t-141.5 -98q104 -71 104 -182q0 -29 -10 -74q-20 -86 -88.5 -154t-161 -106.5t-190 -58t-189.5 -19.5q-44 0 -106 8q-133 22 -196.5 68.5t-63.5 107.5q0 65 63 130t169 107.5t220 41.5q66 0 90 -12q9 -3 9 -13q0 -12 -19 -12h-8q-20 4 -64 4
q-90 0 -173 -36t-132 -91t-49 -110q0 -49 48 -87.5t147 -54.5q40 -6 78 -6q91 0 181 31.5t155.5 80.5t106 109.5t40.5 116.5q0 90 -101 141q-37 19 -103 39.5t-128.5 37t-131.5 43t-120 56.5t-84 78t-33 107q0 49 26 93.5t70.5 79.5t91 60.5t101.5 46.5l-35 25
q-63 52 -63 135q0 95 76 174q80 83 200.5 126.5t245.5 43.5h6q142 0 214.5 -44t72.5 -109q0 -78 -94 -141t-240 -62h-6q-9 1 -16 9.5t-7 14.5q0 9 9 9q101 0 185.5 65.5t84.5 132.5q0 40 -39.5 66t-122.5 26h-6q-98 1 -203.5 -41.5t-175 -109.5t-69.5 -131t75 -111
q43 -27 124 -51t155.5 -44t146 -49t115 -80.5t43.5 -123.5q0 -35 -8 -68zM850 428q77 46 124.5 110t47.5 124q0 81 -92 129q-64 32 -208 73t-202 68q-85 -34 -151 -95.5t-66 -125.5q0 -73 96 -131q58 -36 223.5 -80.5t227.5 -71.5z" />
    <glyph glyph-name="dieresis" unicode="&#xa8;" 
d="M367 1227q0 -35 -26.5 -61.5t-61.5 -26.5q-37 0 -63 26.5t-26 61.5q0 37 26 62.5t63 25.5q36 0 62 -26t26 -62zM659 1227q0 -36 -26 -62t-62 -26q-35 0 -61.5 26.5t-26.5 61.5q0 36 26 62t62 26q37 0 62.5 -25.5t25.5 -62.5z" />
    <glyph glyph-name="copyright" unicode="&#xa9;" horiz-adv-x="1417" 
d="M1376 680q2 -18 2 -55q0 -177 -91 -330t-243.5 -241.5t-326.5 -88.5q-120 0 -228 43t-187.5 117t-130 176.5t-60.5 218.5q-5 57 -5 70v14q4 130 59 248t144 203t209 135.5t250 50.5q159 0 294 -74t218 -202t96 -285zM1225 403q37 98 37 203q0 155 -76.5 289.5
t-214.5 204.5q-110 55 -226 55q-157 0 -288.5 -94t-190.5 -252q-37 -98 -37 -201q0 -154 77 -288t214 -205q109 -56 225 -56q154 0 286.5 91.5t193.5 252.5zM1026 408q-13 -34 -27 -58q-45 -78 -122 -123t-162 -45q-96 0 -172 61.5t-105 182.5q-14 68 -14 119
q0 117 46 224.5t135 178t200 70.5h2q66 0 114 -31t58 -104q2 -8 2 -27q0 -44 -18 -88q-4 -11 -19 -18t-31 -7h-8q-35 5 -35 48q0 15 7.5 51t7.5 53q0 51 -56 51q-43 0 -92.5 -33t-91.5 -87.5t-70 -135t-28 -166.5q0 -40 6 -80q15 -94 63 -145t113 -51q111 0 205 125
q18 23 31 57q19 55 41 55q10 0 17 -15t7 -36q0 -10 -4 -26z" />
    <glyph glyph-name="ordfeminine" unicode="&#xaa;" horiz-adv-x="684" 
d="M633 801q-6 -66 -43 -130.5t-96 -64.5q-43 0 -73 33t-42 75t-17 93q-72 -201 -151 -201q-37 0 -60.5 35t-31.5 83t-8 110q0 45 6 93.5t22 104t40.5 99t66 72t94.5 28.5q49 0 76 -37q19 16 59 16q24 0 51 -6q-50 -181 -53 -336v-34q0 -162 45 -162q20 0 41 45q19 40 37 98
q2 8 6.5 14t11.5 5h2q6 0 11.5 -8t5.5 -25zM393 1161q-11 8 -26 8q-28 0 -54.5 -25t-42.5 -61q-45 -96 -45 -239q0 -7 1 -21t1 -20q5 -68 27 -68q18 0 37 30t34 77t24.5 82.5t15.5 66.5q0 3 1 10.5t1 10.5q8 103 26 149z" />
    <glyph glyph-name="guillemotleft" unicode="&#xab;" horiz-adv-x="849" 
d="M594 967v-6q-4 -26 -19 -41q-17 -20 -135.5 -155t-134.5 -153l166 -250q18 -24 18 -57q-4 -29 -22 -29q-4 0 -18 7q-29 19 -133.5 120.5t-118.5 118.5q-25 19 -25 88q0 35 10 45q20 20 115.5 102t181.5 154l86 72q9 6 17 6q12 0 12 -22zM823 920v-7q-4 -19 -16 -34
q-86 -98 -223 -244l182 -293q14 -24 14 -49v-6q0 -10 -5.5 -17.5t-14.5 -7.5q-10 0 -19 6q-45 30 -264 285q-20 20 -20 78q0 33 10 43q18 18 101 83t157 121l74 56q6 6 12 6q12 0 12 -20z" />
    <glyph glyph-name="logicalnot" unicode="&#xac;" horiz-adv-x="448" 
d="M522 262v-4q0 -26 -18 -82q-61 -184 -205 -184q-52 0 -91.5 31t-61.5 81.5t-33.5 99.5t-14.5 99q-2 8 -2 27q45 242 60 669q14 83 14 121q0 29 -6 29q-13 0 -29 -49q-37 -252 -45 -443q7 203 30.5 401t45.5 269q68 227 192 227q117 0 117 -200q0 -101 -30 -243.5
t-71.5 -266.5t-84 -222.5t-68.5 -125.5v-39.5t1.5 -69.5t4.5 -82t11.5 -88t21.5 -76.5t34.5 -57t49.5 -20.5q40 0 69 33.5t46 77.5q14 34 30 88q3 9 10 16t13 7q10 0 10 -23zM410 1370q-3 31 -12.5 53.5t-20.5 22.5q-24 0 -49 -74q-36 -103 -68.5 -374t-36.5 -414
q77 164 134 360.5t57 353.5q0 26 -4 72zM96 330l-6 -31q-9 -47 -43 -152q-5 -16 -14 -16q-6 0 -11.5 9t-5.5 22q0 10 2 16q20 67 31 131q24 120 33 207l6 57v-79q0 -54 8 -164zM88 596q0 33 2 49q-2 -16 -2 -49z" />
    <glyph glyph-name="uni00AD" unicode="&#xad;" horiz-adv-x="735" 
d="M657 618q-18 -36 -43 -36h-448q-27 0 -27 30q0 9 4 21q19 37 43 37h447q14 0 21.5 -9.5t7.5 -21.5q0 -6 -5 -21z" />
    <glyph glyph-name="registered" unicode="&#xae;" horiz-adv-x="888" 
d="M772 1116q0 -5 1 -14.5t1 -14.5q0 -145 -105 -248.5t-249 -103.5q-130 0 -221.5 84t-102.5 211q-2 12 -2 37v8q3 141 107 240.5t245 99.5q130 0 222.5 -85.5t103.5 -213.5zM713 1096q-9 114 -90 194t-193 80q-118 0 -197 -86t-79 -207v-24q9 -114 89.5 -193.5
t192.5 -79.5q114 0 196.5 83t82.5 206q0 4 -1 13.5t-1 13.5zM612 913q0 -43 -49 -43q-50 0 -92 72q-20 27 -33 64q-17 37 -18 43q-39 3 -39 26q0 19 16 19q79 0 127 51q31 34 31 59q0 51 -94 51h-21q-8 0 -32 -4q-23 -52 -37.5 -125.5t-14.5 -134.5v-16q0 -21 4 -57
q3 -29 17 -54q-34 0 -51 39q-17 47 -17 119q0 90 19 176l8 39q-25 0 -33 4q-22 5 -22 27q0 10 5.5 18t10.5 8h10q35 0 72 6q18 3 45 3q65 0 112.5 -23t47.5 -78q0 -52 -36.5 -92.5t-94.5 -54.5q93 -142 159 -142z" />
    <glyph glyph-name="macron" unicode="&#xaf;" 
d="M651 1225q-4 -13 -13.5 -25t-21.5 -12h-397q-22 0 -22 31q0 12 2 18q11 37 34 37h400q22 0 22 -29q0 -8 -4 -20z" />
    <glyph glyph-name="degree" unicode="&#xb0;" horiz-adv-x="530" 
d="M379 1053q0 44 -30 75t-73 31q-41 0 -70.5 -31t-29.5 -75t29.5 -75.5t70.5 -31.5q43 0 73 31.5t30 75.5zM465 1051q0 -72 -55.5 -123t-133.5 -51q-77 0 -131.5 51t-54.5 123t54.5 123t131.5 51q78 0 133.5 -51t55.5 -123z" />
    <glyph glyph-name="plusminus" unicode="&#xb1;" horiz-adv-x="980" 
d="M862 369q-18 -41 -47 -41h-643q-31 0 -31 34q0 9 4 21q17 39 48 39h645q28 0 28 -33q0 -8 -4 -20zM862 827q-17 -39 -47 -39h-262v-215q0 -18 -41 -36q-6 -2 -18 -2q-35 0 -35 22v231h-287q-31 0 -31 35q0 9 4 21q17 39 48 39h266v184q0 13 12.5 23t26.5 14q6 2 20 2
q35 0 35 -23v-200h285q28 0 28 -33q0 -11 -4 -23z" />
    <glyph glyph-name="twosuperior" unicode="&#xb2;" horiz-adv-x="606" 
d="M555 504q-7 -31 -12 -41q-3 -10 -15 -10q-9 0 -12 14q-8 31 -43 39q-27 6 -65 6q-66 0 -136 -12l-102 -17q-20 -4 -29 -4q-11 -14 -32 -14q-13 0 -19 2q-18 3 -27 35q-4 16 -4 22q0 29 27 56q117 117 169.5 183t135.5 202q51 84 51 161q0 34 -14.5 53.5t-46.5 18.5h-4
q-59 -1 -139 -69.5t-80 -116.5q0 -17 8 -25q1 -1 3 -4t3.5 -5.5t1.5 -6.5q0 -1 -1 -3t-1 -3q-9 -9 -12 -9q-6 0 -17 7q-14 7 -36.5 43.5t-22.5 60.5v6q4 21 29 51t57 56q94 73 192 73q79 0 131 -48t52 -124q0 -95 -84 -198q-44 -55 -78 -84l-80 -72q-100 -92 -145 -156
q227 27 252 27h32q46 0 66 -8q49 -17 49 -70q0 -2 -1 -7.5t-1 -8.5z" />
    <glyph glyph-name="threesuperior" unicode="&#xb3;" horiz-adv-x="555" 
d="M524 649q-32 -73 -115.5 -120.5t-215.5 -47.5h-21q-62 1 -102.5 31t-40.5 68q0 33 24 59.5t60 41t72 22t65 6.5h6q23 0 38 -5.5t15 -13.5q0 -11 -51 -22q-44 -10 -104 -38.5t-60 -56.5q0 -20 51 -22h17q88 0 152 29.5t98 74.5q26 36 26 74q0 53 -45 76q-53 29 -121 29
q-22 -7 -55 -11h-2q-14 0 -14 15q0 1 1 3t1 3q0 15 14 18q47 11 104.5 52t96.5 94t39 110q0 32 -18 52t-56 20q-60 0 -144.5 -65.5t-84.5 -112.5q0 -15 8 -23q6 -12 6 -16q0 -1 -1 -3t-1 -3q-6 -6 -12 -6q-8 0 -17 6q-14 10 -34.5 44.5t-20.5 59.5q0 1 1 4t1 4q6 21 32 50
t60 53q100 67 193 67q81 0 129 -45q49 -46 49 -110q0 -82 -74 -156q-36 -36 -90 -64q34 -4 51 -8q50 -12 78.5 -51t28.5 -90q0 -33 -17 -76z" />
    <glyph glyph-name="acute" unicode="&#xb4;" horiz-adv-x="591" 
d="M512 1208l-356 -180q-1 0 -2 -1t-2 -1q-7 0 -14 5.5t-7 10.5q0 3 2 5l289 237q6 6 16 6q24 0 53 -25t29 -44q0 -10 -8 -13z" />
    <glyph glyph-name="mu" unicode="&#xb5;" horiz-adv-x="686" 
d="M674 -12q-16 -4 -25 -4h-10q-50 1 -86 28.5t-55.5 78t-29 102.5t-13.5 120q-12 -68 -54 -192q-20 -60 -64.5 -96.5t-94.5 -36.5q-63 0 -105 59q9 -29 27 -154.5t42 -216t58 -90.5q0 -37 -27 -56t-63 -19q-66 0 -89.5 46.5t-23.5 123.5q0 12 1 32.5t1 30.5l11 662
q3 142 13.5 262.5t25.5 160.5q22 60 108 60q31 0 64 -8q-35 -136 -49 -295q-13 -130 -13 -242q0 -242 66 -242q35 -1 62.5 38.5t44 103t26 127t12.5 127.5q1 11 3.5 63t4 74.5t5.5 63t10.5 70t15.5 54.5q8 26 35.5 43t69.5 17q19 0 65 -11q-19 -78 -35 -220t-16 -271v-12
q0 -305 82 -381z" />
    <glyph glyph-name="paragraph" unicode="&#xb6;" horiz-adv-x="1017" 
d="M707 -238q-68 172 -68 539q0 146 12 342q-4 0 -14.5 -1t-15.5 -1q-18 -2 -50 -2q-10 -173 -10 -344q0 -66 4 -152q3 -43 5.5 -76.5t8.5 -82t15.5 -84t22.5 -69t33 -52t44 -19.5h2q7 0 11 2zM569 1319q-109 -31 -209 -104t-160.5 -161.5t-60.5 -164.5q0 -79 73.5 -127.5
t229.5 -48.5q7 0 23 1t24 1q4 137 28.5 312.5t51.5 291.5zM748 1335q-12 2 -39 2q-36 0 -54 -2q-17 -86 -43.5 -273t-36.5 -341l43 6q14 2 39 2l11 117q24 286 80 489zM958 -256q0 -48 -29 -78.5t-85 -30.5q-70 0 -117 82h-14q-232 0 -232 664q0 77 6 260q-209 13 -309 88
t-100 186q0 82 50.5 170.5t130.5 160.5t189.5 118.5t217.5 46.5q50 0 102 -12q4 6 23 6q127 0 127 -57q-31 -123 -83.5 -481t-60.5 -666q0 -18 -1 -58.5t-1 -62.5q0 -385 100 -385q20 0 37 14.5t23 34.5q6 16 16 16t10 -16z" />
    <glyph glyph-name="periodcentered" unicode="&#xb7;" horiz-adv-x="565" 
d="M387 547q0 -40 -29 -69t-69 -29q-41 0 -70 29t-29 69q0 41 29 69.5t70 28.5q40 0 69 -28.5t29 -69.5z" />
    <glyph glyph-name="cedilla" unicode="&#xb8;" 
d="M684 -330v-6q1 -80 -52 -144.5t-129.5 -97t-154.5 -32.5q-55 0 -94 16q-8 3 -8 14q0 6 4.5 11.5t11.5 5.5q4 0 8 -2q30 -10 56 -10q85 0 155.5 69.5t69.5 157.5v6q0 49 -28.5 88.5t-76.5 38.5h-4q-60 0 -153 -39h-4q-11 0 -11 27q0 11 9.5 46.5t27 94.5t27.5 100
q3 11 59 11q54 0 54 -7q-17 -28 -53 -105.5t-48 -92.5q88 16 105 16h16q95 0 153.5 -43t59.5 -123z" />
    <glyph glyph-name="onesuperior" unicode="&#xb9;" horiz-adv-x="538" 
d="M371 559q-1 -27 -34.5 -44t-55.5 -17q-16 0 -28.5 33t-12.5 94v20q2 77 13.5 218t14.5 186q0 6 1 17.5t1 16.5q-58 -71 -123 -106q-2 -2 -10 -2q-12 0 -20 8q-8 5 -8 16q0 14 10 19q32 20 75 71.5t62 98.5q-2 4 -2 14q0 21 16 33q45 31 56 31q20 0 30.5 -20.5t10.5 -49.5
q0 -19 -2 -27l-19 -122q-20 -137 -20 -277q0 -211 45 -211z" />
    <glyph glyph-name="ordmasculine" unicode="&#xba;" horiz-adv-x="571" 
d="M397 825q13 63 13 119q0 136 -52 172q-20 14 -20 33t14 33q-1 0 -4 1t-4 1q-28 0 -55 -68q-13 -32 -35 -133q-8 -80 -8 -127q0 -170 65 -170q55 0 86 139zM449 803q-10 -34 -25 -67.5t-37 -67t-53 -54t-66 -20.5q-45 0 -76 25t-46.5 68.5t-22 87.5t-6.5 95q0 66 6 107
q6 46 19.5 87t37.5 80.5t65.5 63t94.5 23.5q70 0 100.5 -68.5t30.5 -171.5q0 -93 -22 -188z" />
    <glyph glyph-name="guillemotright" unicode="&#xbb;" horiz-adv-x="743" 
d="M723 651q10 -10 10 -37q0 -26 -8.5 -54.5t-19.5 -37.5q-215 -215 -252 -239q-14 -7 -21 -7q-9 0 -14.5 8.5t-5.5 20.5q0 33 18 57l166 250q-16 18 -134.5 153t-135.5 155q-19 16 -19 41v4q0 24 12 24q6 0 15 -6q344 -287 389 -332zM438 672q8 -8 8 -37q0 -63 -22 -82
q-43 -50 -141 -159t-123 -126q-9 -6 -19 -6q-9 0 -14.5 7.5t-5.5 17.5v6q0 21 12 49l184 293q-138 146 -223 244q-12 15 -16 34v11q0 16 10 16q5 0 14 -6q293 -221 336 -262z" />
    <glyph glyph-name="onequarter" unicode="&#xbc;" horiz-adv-x="1241" 
d="M1130 246q-3 -29 -14 -43q-5 -8 -14 -8q-13 0 -15 12q-7 26 -49 41q-33 10 -69 10q0 -215 45 -215q-1 -28 -36 -45.5t-60 -17.5q-19 0 -31.5 33t-12.5 96v18l7 129q-27 -2 -86 -10q-27 -4 -75 -12t-52 -9q-62 -8 -76 -8h-12q-29 3 -29 33q0 2 1 6t1 6q3 20 20 33l2 2
q39 23 158 162.5t156 214.5q-2 4 -2 10q0 20 18 33q48 31 60 31q22 0 33.5 -20.5t11.5 -49.5q0 -19 -2 -27q-12 -61 -21 -123q-8 -56 -16 -194q14 2 45 2q117 0 117 -74q0 -3 -1.5 -8t-1.5 -8zM946 1200q-49 -89 -741 -1356q-14 -28 -45 -28q-14 0 -23.5 7t-9.5 17t6 19
q131 238 421 770t320 588q14 26 46 26q13 0 22.5 -6.5t9.5 -17.5q0 -10 -6 -19zM385 559q-1 -27 -35.5 -44t-58.5 -17q-18 0 -30.5 33t-12.5 94v20q2 75 15 213t16 191q0 6 1 18t1 18q-58 -71 -131 -108q-2 -2 -11 -2q-10 0 -22 8q-8 5 -8 16q0 14 10 19q35 21 80.5 72
t64.5 98q-2 4 -2 12q0 22 17 35q48 31 59 31q22 0 33.5 -20.5t11.5 -49.5q0 -19 -2 -27q-13 -65 -21 -122q-18 -151 -18 -289q0 -199 43 -199zM887 322l18 208v27q-47 -65 -116.5 -139t-129.5 -123q38 2 129 14z" />
    <glyph glyph-name="onehalf" unicode="&#xbd;" horiz-adv-x="1275" 
d="M1149 4q-4 -32 -12 -43q-4 -8 -15 -8q-9 0 -12 12q-3 13 -15 25.5t-28 15.5q-27 6 -61 6q-58 0 -144 -14l-106 -16q-9 0 -29 -5q-9 -12 -33 -12q-12 0 -20 2q-17 2 -27 33q-4 16 -4 25q0 28 27 55q123 120 176.5 184.5t136.5 198.5q21 34 36 79.5t15 82.5
q0 33 -14.5 52.5t-46.5 18.5h-6q-60 -1 -142 -69t-82 -115q0 -14 11 -25q6 -6 6 -16q0 -4 -2 -6q-4 -8 -13 -8q-7 0 -16 6q-14 7 -36.5 42.5t-22.5 59.5v6q4 21 29.5 52t56.5 55q99 74 196 74q82 0 135.5 -49t53.5 -125q0 -92 -86 -197q-36 -41 -80 -82q-15 -15 -44 -40.5
t-38 -33.5q-103 -91 -150 -153q30 3 89 10t103 11.5t66 4.5q70 0 101 -10q49 -14 49 -65q0 -3 -1 -9.5t-1 -9.5zM920 1200l-740 -1356q-14 -28 -45 -28q-14 0 -23.5 7t-9.5 17q0 8 7 19q131 238 421 770t320 588q14 26 45 26t31 -24q0 -10 -6 -19zM385 559q-1 -27 -35.5 -44
t-58.5 -17q-18 0 -30.5 33t-12.5 94v20q2 75 15 213t16 191q0 6 1 18t1 18q-58 -71 -131 -108q-2 -2 -11 -2q-10 0 -22 8q-8 5 -8 16q0 14 10 19q35 21 80.5 72t64.5 98q-2 4 -2 12q0 22 17 35q48 31 59 31q22 0 33.5 -20.5t11.5 -49.5q0 -19 -2 -27q-13 -65 -21 -122
q-18 -151 -18 -289q0 -199 43 -199z" />
    <glyph glyph-name="threequarters" unicode="&#xbe;" horiz-adv-x="1277" 
d="M1231 246q-3 -29 -14 -43q-5 -8 -17 -8q-10 0 -12 12q-7 26 -49 41q-33 10 -70 10q0 -215 45 -215q-1 -28 -37 -45.5t-61 -17.5q-18 0 -29.5 33t-11.5 96v18l6 129q-23 -2 -88 -10q-27 -4 -75 -12t-52 -9q-62 -8 -76 -8h-12q-29 3 -29 33q0 2 1 6t1 6q4 16 13 25l10 10
q38 23 158 163t157 214q-2 4 -2 10q0 22 19 33q45 31 57 31q23 0 34 -20.5t11 -49.5q0 -19 -2 -27q-4 -21 -19 -123q-8 -56 -16 -194q14 2 45 2q117 0 117 -74q0 -3 -1 -8t-1 -8zM537 649q-32 -74 -118 -121t-222 -47h-21q-65 1 -106 31t-41 68q0 33 24.5 59.5t61 41
t73.5 22t66 6.5h6q22 0 37.5 -5.5t15.5 -11.5q0 -13 -51 -24q-44 -10 -105 -38.5t-61 -56.5q0 -20 54 -22h16q90 0 155 29.5t99 74.5q29 40 29 74q0 51 -48 76q-53 29 -125 29q-22 -7 -55 -11h-2q-14 0 -14 15q0 1 1 3t1 3q0 15 14 18q48 11 107 52t98 94t39 110
q0 72 -74 72q-62 0 -148.5 -65.5t-86.5 -112.5q0 -15 8 -23q6 -12 6 -14q0 -6 -2 -8q-6 -6 -12 -6q-8 0 -17 6q-13 9 -33 44.5t-20 59.5v8q4 21 31 50.5t61 52.5q103 67 199 67q80 0 131 -45t51 -110q0 -80 -76 -156q-34 -34 -92 -64q38 -4 53 -8q51 -12 80 -51t29 -90
q0 -36 -16 -76zM1032 1200l-739 -1356q-14 -28 -45 -28q-14 0 -23.5 7t-9.5 17t6 19q39 70 742 1358q14 26 45 26q30 0 30 -24q0 -10 -6 -19zM1006 557q-47 -64 -117 -138t-131 -124q44 2 129 14l100 13q15 179 17 208q0 4 1 13t1 14z" />
    <glyph glyph-name="questiondown" unicode="&#xbf;" horiz-adv-x="749" 
d="M698 4v-6q-10 -140 -108.5 -224.5t-243.5 -84.5q-117 0 -182.5 60t-65.5 153q0 58 19 114.5t54 105t68 84.5t76 75q14 12 49 41.5t50.5 44t39.5 40.5t40 53.5t28 59.5q15 44 15 72q0 63 -43 80q-11 4 -11 12q0 11 17 18q6 3 14 3q22 0 44.5 -18t29.5 -44q8 -32 8 -53
q0 -97 -88 -219q-100 -140 -174 -305q-37 -81 -37 -148q0 -71 37.5 -112.5t99.5 -41.5q96 0 156.5 76.5t77.5 179.5q4 15 14 15q16 0 16 -31zM596 981q0 -41 -28.5 -69.5t-69.5 -28.5t-70 28.5t-29 69.5t29 69.5t70 28.5t69.5 -28.5t28.5 -69.5z" />
    <glyph glyph-name="Agrave" unicode="&#xc0;" horiz-adv-x="1411" 
d="M1356 -29v-14q0 -43 -23.5 -67.5t-64.5 -24.5h-13q-91 7 -150 120t-89 298q-26 167 -29 327q-30 -107 -73 -206t-99.5 -186.5t-128 -146.5t-147.5 -73q-30 -6 -62 -6q-108 0 -186.5 76t-116 197t-37.5 270v26q-112 23 -176 75.5t-63 135.5v4q0 62 50.5 110t108.5 66
q4 2 11 2q14 0 14 -12t-16 -20q-29 -12 -54.5 -51.5t-25.5 -73.5v-2q0 -106 157 -160q16 169 93 320t192 258.5t258.5 176t294.5 85.5q29 4 80 4q161 0 243 -74t82 -193q0 -105 -64 -218.5t-177 -202.5q-8 -104 -8 -248q0 -159 12 -262q13 -127 46.5 -229t84.5 -105h4
q16 -1 29 9.5t16 23.5q3 14 12 14q15 0 15 -23zM993 903q9 148 35 260q2 6 19.5 11.5t39.5 5.5q64 0 93 -39q-26 -227 -29 -267q60 72 94.5 159.5t34.5 168.5q0 106 -61.5 172t-186.5 66q-19 0 -59 -4q-109 -13 -211.5 -69.5t-181 -141t-140 -187.5t-97 -212.5t-44.5 -213.5
v-10q50 -4 80 -4q135 0 288 34t283 95q23 88 43 176zM936 674q-149 -62 -318.5 -95.5t-312.5 -31.5h-10v-47q0 -93 13.5 -173t39.5 -142t68.5 -97t97.5 -35q9 0 33 4q62 12 121.5 70t109 147.5t88.5 189t70 210.5zM713 1794l288 -238q3 -3 3 -4q0 -5 -7 -10.5t-14 -5.5
q-1 0 -2 1t-2 1l-356 180q-9 3 -9 13q0 19 29 44t53 25q11 0 17 -6z" />
    <glyph glyph-name="Aacute" unicode="&#xc1;" horiz-adv-x="1411" 
d="M1356 -29v-14q0 -43 -23.5 -67.5t-64.5 -24.5h-13q-91 7 -150 120t-89 298q-26 167 -29 327q-30 -107 -73 -206t-99.5 -186.5t-128 -146.5t-147.5 -73q-30 -6 -62 -6q-108 0 -186.5 76t-116 197t-37.5 270v26q-112 23 -176 75.5t-63 135.5v4q0 62 50.5 110t108.5 66
q4 2 11 2q14 0 14 -12t-16 -20q-29 -12 -54.5 -51.5t-25.5 -73.5v-2q0 -106 157 -160q16 169 93 320t192 258.5t258.5 176t294.5 85.5q29 4 80 4q161 0 243 -74t82 -193q0 -105 -64 -218.5t-177 -202.5q-8 -104 -8 -248q0 -159 12 -262q13 -127 46.5 -229t84.5 -105h4
q16 -1 29 9.5t16 23.5q3 14 12 14q15 0 15 -23zM993 903q9 148 35 260q2 6 19.5 11.5t39.5 5.5q64 0 93 -39q-26 -227 -29 -267q60 72 94.5 159.5t34.5 168.5q0 106 -61.5 172t-186.5 66q-19 0 -59 -4q-109 -13 -211.5 -69.5t-181 -141t-140 -187.5t-97 -212.5t-44.5 -213.5
v-10q50 -4 80 -4q135 0 288 34t283 95q23 88 43 176zM936 674q-149 -62 -318.5 -95.5t-312.5 -31.5h-10v-47q0 -93 13.5 -173t39.5 -142t68.5 -97t97.5 -35q9 0 33 4q62 12 121.5 70t109 147.5t88.5 189t70 210.5zM1049 1712l-357 -180q-1 0 -2 -1t-2 -1q-7 0 -13.5 5.5
t-6.5 10.5q0 2 2 4l288 238q6 6 17 6q24 0 53 -25.5t29 -44.5q0 -9 -8 -12z" />
    <glyph glyph-name="Acircumflex" unicode="&#xc2;" horiz-adv-x="1411" 
d="M1356 -29v-14q0 -43 -23.5 -67.5t-64.5 -24.5h-13q-91 7 -150 120t-89 298q-26 167 -29 327q-30 -107 -73 -206t-99.5 -186.5t-128 -146.5t-147.5 -73q-30 -6 -62 -6q-108 0 -186.5 76t-116 197t-37.5 270v26q-112 23 -176 75.5t-63 135.5v4q0 62 50.5 110t108.5 66
q4 2 11 2q14 0 14 -12t-16 -20q-29 -12 -54.5 -51.5t-25.5 -73.5v-2q0 -106 157 -160q16 169 93 320t192 258.5t258.5 176t294.5 85.5q29 4 80 4q161 0 243 -74t82 -193q0 -105 -64 -218.5t-177 -202.5q-8 -104 -8 -248q0 -159 12 -262q13 -127 46.5 -229t84.5 -105h4
q16 -1 29 9.5t16 23.5q3 14 12 14q15 0 15 -23zM993 903q9 148 35 260q2 6 19.5 11.5t39.5 5.5q64 0 93 -39q-26 -227 -29 -267q60 72 94.5 159.5t34.5 168.5q0 106 -61.5 172t-186.5 66q-19 0 -59 -4q-109 -13 -211.5 -69.5t-181 -141t-140 -187.5t-97 -212.5t-44.5 -213.5
v-10q50 -4 80 -4q135 0 288 34t283 95q23 88 43 176zM936 674q-149 -62 -318.5 -95.5t-312.5 -31.5h-10v-47q0 -93 13.5 -173t39.5 -142t68.5 -97t97.5 -35q9 0 33 4q62 12 121.5 70t109 147.5t88.5 189t70 210.5zM1079 1536q2 -2 2 -4q0 -10 -45 -10q-55 0 -69 14l-138 156
q-27 -26 -86.5 -77t-87.5 -79q-10 -10 -41 -10q-22 0 -22 6q0 2 2 4q234 265 248 276h14q202 -251 223 -276z" />
    <glyph glyph-name="Atilde" unicode="&#xc3;" horiz-adv-x="1411" 
d="M1356 -29v-14q0 -43 -23.5 -67.5t-64.5 -24.5h-13q-91 7 -150 120t-89 298q-26 167 -29 327q-30 -107 -73 -206t-99.5 -186.5t-128 -146.5t-147.5 -73q-30 -6 -62 -6q-108 0 -186.5 76t-116 197t-37.5 270v26q-112 23 -176 75.5t-63 135.5v4q0 62 50.5 110t108.5 66
q4 2 11 2q14 0 14 -12t-16 -20q-29 -12 -54.5 -51.5t-25.5 -73.5v-2q0 -106 157 -160q16 169 93 320t192 258.5t258.5 176t294.5 85.5q29 4 80 4q161 0 243 -74t82 -193q0 -105 -64 -218.5t-177 -202.5q-8 -104 -8 -248q0 -159 12 -262q13 -127 46.5 -229t84.5 -105h4
q16 -1 29 9.5t16 23.5q3 14 12 14q15 0 15 -23zM993 903q9 148 35 260q2 6 19.5 11.5t39.5 5.5q64 0 93 -39q-26 -227 -29 -267q60 72 94.5 159.5t34.5 168.5q0 106 -61.5 172t-186.5 66q-19 0 -59 -4q-109 -13 -211.5 -69.5t-181 -141t-140 -187.5t-97 -212.5t-44.5 -213.5
v-10q50 -4 80 -4q135 0 288 34t283 95q23 88 43 176zM936 674q-149 -62 -318.5 -95.5t-312.5 -31.5h-10v-47q0 -93 13.5 -173t39.5 -142t68.5 -97t97.5 -35q9 0 33 4q62 12 121.5 70t109 147.5t88.5 189t70 210.5zM1155 1772v-7q0 -34 -37 -99.5t-82 -90.5h2
q-21 -12 -45 -12q-39 0 -126 47t-134 47q-11 0 -31 -4q-31 -8 -44 -30t-18 -46t-17 -31h-2q-9 0 -9 17q0 34 31 93t72 85q18 12 43 12q38 0 130 -48t136 -48q25 0 49 12q19 4 35 31t26 51.5t15 24.5q2 0 6 -4z" />
    <glyph glyph-name="Adieresis" unicode="&#xc4;" horiz-adv-x="1411" 
d="M1356 -29v-14q0 -43 -23.5 -67.5t-64.5 -24.5h-13q-91 7 -150 120t-89 298q-26 167 -29 327q-30 -107 -73 -206t-99.5 -186.5t-128 -146.5t-147.5 -73q-30 -6 -62 -6q-108 0 -186.5 76t-116 197t-37.5 270v26q-112 23 -176 75.5t-63 135.5v4q0 62 50.5 110t108.5 66
q4 2 11 2q14 0 14 -12t-16 -20q-29 -12 -54.5 -51.5t-25.5 -73.5v-2q0 -106 157 -160q16 169 93 320t192 258.5t258.5 176t294.5 85.5q29 4 80 4q161 0 243 -74t82 -193q0 -105 -64 -218.5t-177 -202.5q-8 -104 -8 -248q0 -159 12 -262q13 -127 46.5 -229t84.5 -105h4
q16 -1 29 9.5t16 23.5q3 14 12 14q15 0 15 -23zM993 903q9 148 35 260q2 6 19.5 11.5t39.5 5.5q64 0 93 -39q-26 -227 -29 -267q60 72 94.5 159.5t34.5 168.5q0 106 -61.5 172t-186.5 66q-19 0 -59 -4q-109 -13 -211.5 -69.5t-181 -141t-140 -187.5t-97 -212.5t-44.5 -213.5
v-10q50 -4 80 -4q135 0 288 34t283 95q23 88 43 176zM936 674q-149 -62 -318.5 -95.5t-312.5 -31.5h-10v-47q0 -93 13.5 -173t39.5 -142t68.5 -97t97.5 -35q9 0 33 4q62 12 121.5 70t109 147.5t88.5 189t70 210.5zM1102 1645q0 -36 -26 -62.5t-62 -26.5q-35 0 -61.5 27
t-26.5 62q0 36 26 62t62 26q37 0 62.5 -25.5t25.5 -62.5zM809 1645q0 -35 -26.5 -62t-61.5 -27q-36 0 -62 26.5t-26 62.5q0 37 25.5 62.5t62.5 25.5q36 0 62 -26t26 -62z" />
    <glyph glyph-name="Aring" unicode="&#xc5;" horiz-adv-x="1411" 
d="M1169 1626q0 -45 -24 -84t-64 -63q151 -4 228 -78.5t77 -188.5q0 -105 -64 -218.5t-177 -202.5q-8 -104 -8 -248q0 -159 12 -262q13 -127 46.5 -229t84.5 -105h4q16 -1 29 9.5t16 23.5q3 14 12 14q15 0 15 -23v-14q0 -43 -23.5 -67.5t-64.5 -24.5h-13q-91 7 -150 120
t-89 298q-26 167 -29 327q-30 -107 -73 -206t-99.5 -186.5t-128 -146.5t-147.5 -73q-30 -6 -62 -6q-108 0 -186.5 76t-116 197t-37.5 270v26q-112 23 -176 75.5t-63 135.5v4q0 62 50.5 110t108.5 66q4 2 11 2q14 0 14 -12t-16 -20q-29 -12 -54.5 -51.5t-25.5 -73.5v-2
q0 -106 157 -160q16 160 85 303.5t174 249t236 177.5t273 99q-53 19 -85.5 63t-32.5 99q0 71 55 121.5t133 50.5t133 -50.5t55 -121.5zM993 903q9 148 35 260q2 6 19.5 11.5t39.5 5.5q64 0 93 -39q-26 -227 -29 -267q60 72 94.5 159.5t34.5 168.5q0 106 -61.5 172t-186.5 66
q-19 0 -59 -4q-109 -13 -211.5 -69.5t-181 -141t-140 -187.5t-97 -212.5t-44.5 -213.5v-10q50 -4 80 -4q135 0 288 34t283 95q23 88 43 176zM936 674q-149 -62 -318.5 -95.5t-312.5 -31.5h-10v-47q0 -93 13.5 -173t39.5 -142t68.5 -97t97.5 -35q9 0 33 4q62 12 121.5 70
t109 147.5t88.5 189t70 210.5zM1081 1628q0 43 -29.5 75t-70.5 32t-70.5 -32t-29.5 -75q0 -44 29.5 -75t70.5 -31t70.5 31t29.5 75z" />
    <glyph glyph-name="AE" unicode="&#xc6;" horiz-adv-x="2390" 
d="M2267 160q-100 -117 -302 -196t-425 -79q-168 0 -280.5 90.5t-112.5 239.5q0 49 16 111q23 85 82 163t136 134t161.5 94.5t163.5 52.5q-38 6 -60 10.5t-58 13t-57.5 17t-49.5 23t-45.5 32t-33 42t-22.5 53.5q-96 -150 -270 -242q-27 -222 -27 -363q0 -50 2 -77
q3 -58 9 -110t18 -104t32.5 -84t47.5 -34q37 -3 37 -29q0 -20 -19.5 -38t-44.5 -17h-4q-46 1 -82 33.5t-60.5 92t-40.5 129.5t-28 161l-4 32q-67 -128 -151 -211.5t-179 -101.5q-30 -6 -61 -6q-108 0 -186 75.5t-115 196t-37 268.5v27q-113 23 -177 76.5t-63 140.5
q0 62 51 110t109 66q4 2 10 2q15 0 15 -12t-17 -20q-29 -12 -54 -51t-25 -74q0 -105 157 -164q14 136 66 261t132.5 223.5t182.5 175t218 123t237 59.5q29 4 82 4q143 0 223 -60.5t96 -161.5q78 92 207.5 141.5t263.5 49.5q146 0 235 -60.5t89 -146.5q0 -93 -109 -176
t-325 -125q-2 0 -7.5 -1t-7.5 -1q-30 0 -30 18q0 15 28 21q154 30 230.5 87.5t76.5 121.5q0 61 -63.5 105t-161.5 44q-96 0 -194.5 -36.5t-171 -112.5t-72.5 -172q0 -88 85 -145.5t251 -57.5q100 0 221 23h8q55 3 55 -39q0 -33 -30 -70t-53 -37h-27q-105 0 -209 -21.5
t-203.5 -65t-179 -120t-119.5 -176.5q-26 -68 -26 -119q0 -47 21.5 -81.5t60 -53t84.5 -27t102 -8.5q122 0 274 37q141 35 263.5 103t179.5 135q47 56 47 102q0 49 -46.5 77t-121.5 28q-106 0 -228 -58t-221 -174q-19 -22 -30 -22t-11 12q0 29 43 78q93 103 235 167t263 64
h4q99 0 155 -56.5t56 -141.5q0 -110 -84 -207zM1180 1141q-2 -17 -12 -70t-24.5 -136.5t-25.5 -160.5q106 68 173 190t67 238q0 106 -61.5 172t-186.5 66q-19 0 -59 -4q-109 -12 -211 -68.5t-180.5 -141t-139.5 -188t-96.5 -213t-44.5 -213.5q0 -2 -1 -5.5t-1 -4.5
q50 -4 80 -4q248 0 497 96q22 256 74 469q2 6 19.5 11.5t39.5 5.5q64 0 93 -39zM950 649q-138 -51 -291 -77.5t-284 -26.5v-47q0 -124 23.5 -223t73.5 -160.5t120 -61.5q11 0 35 4q90 18 171 127.5t144 274.5q0 64 8 190z" />
    <glyph glyph-name="Ccedilla" unicode="&#xc7;" horiz-adv-x="1325" 
d="M1331 532v-2q-11 -164 -125 -313q-88 -117 -224 -192.5t-286 -96.5q-12 -23 -31 -64t-33.5 -71.5t-23.5 -42.5q94 17 105 17h16q95 0 153.5 -43t59.5 -123v-7q1 -80 -52 -144.5t-129.5 -97t-154.5 -32.5q-55 0 -94 16q-8 3 -8 15q0 16 16 16q4 0 8 -2q30 -10 56 -10
q85 0 155.5 69.5t69.5 157.5v6q0 49 -28 88.5t-76 38.5h-5q-60 0 -153 -39h-4q-11 0 -11 27q0 10 7.5 39t25 90.5t25.5 89.5q-99 2 -184 31.5t-154.5 88.5t-114.5 154.5t-59 221.5q-4 29 -4 88q0 136 41 274t118.5 258t179 213.5t231.5 148t267 54.5h31q58 -2 106 -16
t89 -41.5t64.5 -75.5t23.5 -113q0 -97 -60.5 -196t-155.5 -173.5t-217.5 -121.5t-240.5 -47q-6 0 -17.5 1t-17.5 1q-25 1 -37 18t-12 33q134 0 255.5 39.5t226 128.5t157.5 217q29 72 29 127q0 62 -38 100.5t-120 42.5h-14q-82 0 -179.5 -45t-191.5 -131t-171 -197
t-124 -257t-45 -297v-19q1 -118 30.5 -204.5t81 -135.5t115.5 -71.5t144 -22.5q41 0 61 2q132 13 269 98t231.5 206.5t111.5 238.5q2 10 11 10q8 0 16 -7t8 -14z" />
    <glyph glyph-name="Egrave" unicode="&#xc8;" horiz-adv-x="1402" 
d="M1317 160q-100 -117 -302 -196t-425 -79q-291 0 -418 146q-63 73 -63 196q0 55 14 107q26 87 99 165.5t168 132t189 88.5t177 50q-50 9 -73 13t-67.5 16t-69 24.5t-52 35t-43.5 50.5q-130 4 -231 30.5t-159.5 67t-88 87t-29.5 94.5q0 72 58.5 121t156.5 49
q58 0 122.5 -26.5t102.5 -63.5q25 -25 25 -37q0 -10 -15 -10q-13 0 -22 6q-97 57 -207 57q-62 0 -100.5 -33.5t-38.5 -81.5q0 -35 23 -69.5t69.5 -66t128.5 -54.5t188 -29q-10 38 -10 74q0 103 51.5 186.5t134 134t178.5 77t193 26.5q146 0 236 -60.5t90 -146.5
q0 -58 -44.5 -113t-133 -104t-242.5 -80t-352 -35q84 -98 299 -98q100 0 221 23h8q55 3 55 -39q0 -33 -29.5 -70t-52.5 -37h-30q-87 0 -175.5 -11t-185 -38.5t-177.5 -69t-148.5 -107.5t-102.5 -149q-27 -67 -27 -116q0 -50 26.5 -86.5t73 -56.5t101.5 -29t121 -9
q149 0 301 37q141 35 263 103t179 135q48 57 48 102q0 49 -46.5 77t-121.5 28q-106 0 -228 -58t-221 -174q-19 -22 -31 -22q-10 0 -10 12q0 29 43 78q92 103 235 167t263 64h4q99 0 155 -56.5t56 -141.5q0 -110 -84 -207zM512 948h6q169 0 297.5 21.5t201 57.5t107.5 76.5
t35 84.5q0 60 -63 103.5t-160 43.5q-96 0 -194.5 -36.5t-171 -112.5t-72.5 -172q0 -38 14 -66zM754 1769l288 -237q2 -2 2 -4q0 -5 -6.5 -11t-13.5 -6q-1 0 -2 1t-2 1l-356 181q-9 3 -9 12q0 19 29 44.5t53 25.5q10 0 17 -7z" />
    <glyph glyph-name="Eacute" unicode="&#xc9;" horiz-adv-x="1402" 
d="M1317 160q-100 -117 -302 -196t-425 -79q-291 0 -418 146q-63 73 -63 196q0 55 14 107q26 87 99 165.5t168 132t189 88.5t177 50q-50 9 -73 13t-67.5 16t-69 24.5t-52 35t-43.5 50.5q-130 4 -231 30.5t-159.5 67t-88 87t-29.5 94.5q0 72 58.5 121t156.5 49
q58 0 122.5 -26.5t102.5 -63.5q25 -25 25 -37q0 -10 -15 -10q-13 0 -22 6q-97 57 -207 57q-62 0 -100.5 -33.5t-38.5 -81.5q0 -35 23 -69.5t69.5 -66t128.5 -54.5t188 -29q-10 38 -10 74q0 103 51.5 186.5t134 134t178.5 77t193 26.5q146 0 236 -60.5t90 -146.5
q0 -58 -44.5 -113t-133 -104t-242.5 -80t-352 -35q84 -98 299 -98q100 0 221 23h8q55 3 55 -39q0 -33 -29.5 -70t-52.5 -37h-30q-87 0 -175.5 -11t-185 -38.5t-177.5 -69t-148.5 -107.5t-102.5 -149q-27 -67 -27 -116q0 -50 26.5 -86.5t73 -56.5t101.5 -29t121 -9
q149 0 301 37q141 35 263 103t179 135q48 57 48 102q0 49 -46.5 77t-121.5 28q-106 0 -228 -58t-221 -174q-19 -22 -31 -22q-10 0 -10 12q0 29 43 78q92 103 235 167t263 64h4q99 0 155 -56.5t56 -141.5q0 -110 -84 -207zM512 948h6q169 0 297.5 21.5t201 57.5t107.5 76.5
t35 84.5q0 60 -63 103.5t-160 43.5q-96 0 -194.5 -36.5t-171 -112.5t-72.5 -172q0 -38 14 -66zM1153 1690l-356 -181q-1 0 -2 -1t-2 -1q-7 0 -14 6t-7 11q0 2 2 4l289 237q7 7 16 7q24 0 53 -25.5t29 -44.5q0 -9 -8 -12z" />
    <glyph glyph-name="Ecircumflex" unicode="&#xca;" horiz-adv-x="1402" 
d="M1317 160q-100 -117 -302 -196t-425 -79q-291 0 -418 146q-63 73 -63 196q0 55 14 107q26 87 99 165.5t168 132t189 88.5t177 50q-50 9 -73 13t-67.5 16t-69 24.5t-52 35t-43.5 50.5q-130 4 -231 30.5t-159.5 67t-88 87t-29.5 94.5q0 72 58.5 121t156.5 49
q58 0 122.5 -26.5t102.5 -63.5q25 -25 25 -37q0 -10 -15 -10q-13 0 -22 6q-97 57 -207 57q-62 0 -100.5 -33.5t-38.5 -81.5q0 -35 23 -69.5t69.5 -66t128.5 -54.5t188 -29q-10 38 -10 74q0 103 51.5 186.5t134 134t178.5 77t193 26.5q146 0 236 -60.5t90 -146.5
q0 -58 -44.5 -113t-133 -104t-242.5 -80t-352 -35q84 -98 299 -98q100 0 221 23h8q55 3 55 -39q0 -33 -29.5 -70t-52.5 -37h-30q-87 0 -175.5 -11t-185 -38.5t-177.5 -69t-148.5 -107.5t-102.5 -149q-27 -67 -27 -116q0 -50 26.5 -86.5t73 -56.5t101.5 -29t121 -9
q149 0 301 37q141 35 263 103t179 135q48 57 48 102q0 49 -46.5 77t-121.5 28q-106 0 -228 -58t-221 -174q-19 -22 -31 -22q-10 0 -10 12q0 29 43 78q92 103 235 167t263 64h4q99 0 155 -56.5t56 -141.5q0 -110 -84 -207zM512 948h6q169 0 297.5 21.5t201 57.5t107.5 76.5
t35 84.5q0 60 -63 103.5t-160 43.5q-96 0 -194.5 -36.5t-171 -112.5t-72.5 -172q0 -38 14 -66zM1130 1536q3 -3 3 -4q0 -10 -46 -10q-55 0 -69 14l-137 156q-27 -26 -86.5 -77t-87.5 -79q-10 -10 -41 -10q-23 0 -23 6q0 2 2 4q234 265 248 276h14q202 -251 223 -276z" />
    <glyph glyph-name="Edieresis" unicode="&#xcb;" horiz-adv-x="1402" 
d="M1317 160q-100 -117 -302 -196t-425 -79q-291 0 -418 146q-63 73 -63 196q0 55 14 107q26 87 99 165.5t168 132t189 88.5t177 50q-50 9 -73 13t-67.5 16t-69 24.5t-52 35t-43.5 50.5q-130 4 -231 30.5t-159.5 67t-88 87t-29.5 94.5q0 72 58.5 121t156.5 49
q58 0 122.5 -26.5t102.5 -63.5q25 -25 25 -37q0 -10 -15 -10q-13 0 -22 6q-97 57 -207 57q-62 0 -100.5 -33.5t-38.5 -81.5q0 -35 23 -69.5t69.5 -66t128.5 -54.5t188 -29q-10 38 -10 74q0 103 51.5 186.5t134 134t178.5 77t193 26.5q146 0 236 -60.5t90 -146.5
q0 -58 -44.5 -113t-133 -104t-242.5 -80t-352 -35q84 -98 299 -98q100 0 221 23h8q55 3 55 -39q0 -33 -29.5 -70t-52.5 -37h-30q-87 0 -175.5 -11t-185 -38.5t-177.5 -69t-148.5 -107.5t-102.5 -149q-27 -67 -27 -116q0 -50 26.5 -86.5t73 -56.5t101.5 -29t121 -9
q149 0 301 37q141 35 263 103t179 135q48 57 48 102q0 49 -46.5 77t-121.5 28q-106 0 -228 -58t-221 -174q-19 -22 -31 -22q-10 0 -10 12q0 29 43 78q92 103 235 167t263 64h4q99 0 155 -56.5t56 -141.5q0 -110 -84 -207zM512 948h6q169 0 297.5 21.5t201 57.5t107.5 76.5
t35 84.5q0 60 -63 103.5t-160 43.5q-96 0 -194.5 -36.5t-171 -112.5t-72.5 -172q0 -38 14 -66zM905 1651q0 -35 -26.5 -61.5t-61.5 -26.5q-36 0 -62 26t-26 62q0 37 25.5 62.5t62.5 25.5q36 0 62 -26t26 -62zM1198 1651q0 -36 -26 -62t-62 -26q-35 0 -61.5 26.5t-26.5 61.5
q0 36 26 62t62 26q37 0 62.5 -25.5t25.5 -62.5z" />
    <glyph glyph-name="Igrave" unicode="&#xcc;" horiz-adv-x="976" 
d="M872 782q-31 -295 -122 -491q62 -10 104 -10q34 0 61 6q60 15 89 51q11 14 26 14q9 0 15 -5t6 -13v-4q-8 -44 -82.5 -73.5t-210.5 -29.5h-41q-146 -253 -379 -256h-12q-83 -1 -145 25.5t-98 68.5t-58 102t-29.5 116t-7.5 120q0 45 2 68q4 81 51 100q14 7 29 7
q31 0 71 -37q64 -61 204 -124.5t286 -101.5q37 119 71 322q35 206 35 422q0 127 -14 213q-10 60 -34 98.5t-64 38.5q-57 0 -94.5 -53t-52.5 -133t-15 -183q0 -163 35 -318.5t82 -201.5q12 -12 12 -20q0 -13 -21 -13q-22 0 -36 17q-70 75 -117 233.5t-47 321.5q0 83 13.5 154
t41.5 129.5t75.5 94t110.5 40.5h25q252 0 252 -437q0 -85 -17 -258zM92 406q8 -383 256 -383q168 0 256 219q-123 21 -266.5 69t-245.5 95zM530 1808l289 -237q2 -2 2 -4q0 -5 -6.5 -11t-13.5 -6q-1 0 -2 1t-2 1l-357 181q-8 3 -8 12q0 19 29 44.5t53 25.5q9 0 16 -7z" />
    <glyph glyph-name="Iacute" unicode="&#xcd;" horiz-adv-x="976" 
d="M872 782q-31 -295 -122 -491q62 -10 104 -10q34 0 61 6q60 15 89 51q11 14 26 14q9 0 15 -5t6 -13v-4q-8 -44 -82.5 -73.5t-210.5 -29.5h-41q-146 -253 -379 -256h-12q-83 -1 -145 25.5t-98 68.5t-58 102t-29.5 116t-7.5 120q0 45 2 68q4 81 51 100q14 7 29 7
q31 0 71 -37q64 -61 204 -124.5t286 -101.5q37 119 71 322q35 206 35 422q0 127 -14 213q-10 60 -34 98.5t-64 38.5q-57 0 -94.5 -53t-52.5 -133t-15 -183q0 -163 35 -318.5t82 -201.5q12 -12 12 -20q0 -13 -21 -13q-22 0 -36 17q-70 75 -117 233.5t-47 321.5q0 83 13.5 154
t41.5 129.5t75.5 94t110.5 40.5h25q252 0 252 -437q0 -85 -17 -258zM92 406q8 -383 256 -383q168 0 256 219q-123 21 -266.5 69t-245.5 95zM887 1726l-357 -180q-1 0 -2 -1t-2 -1q-7 0 -13.5 6t-6.5 11q0 2 2 4l289 237q6 6 16 6q24 0 53 -25t29 -44q0 -10 -8 -13z" />
    <glyph glyph-name="Icircumflex" unicode="&#xce;" horiz-adv-x="976" 
d="M872 782q-31 -295 -122 -491q62 -10 104 -10q34 0 61 6q60 15 89 51q11 14 26 14q9 0 15 -5t6 -13v-4q-8 -44 -82.5 -73.5t-210.5 -29.5h-41q-146 -253 -379 -256h-12q-83 -1 -145 25.5t-98 68.5t-58 102t-29.5 116t-7.5 120q0 45 2 68q4 81 51 100q14 7 29 7
q31 0 71 -37q64 -61 204 -124.5t286 -101.5q37 119 71 322q35 206 35 422q0 127 -14 213q-10 60 -34 98.5t-64 38.5q-57 0 -94.5 -53t-52.5 -133t-15 -183q0 -163 35 -318.5t82 -201.5q12 -12 12 -20q0 -13 -21 -13q-22 0 -36 17q-70 75 -117 233.5t-47 321.5q0 83 13.5 154
t41.5 129.5t75.5 94t110.5 40.5h25q252 0 252 -437q0 -85 -17 -258zM92 406q8 -383 256 -383q168 0 256 219q-123 21 -266.5 69t-245.5 95zM889 1513q2 -2 2 -4q0 -10 -45 -10q-56 0 -70 14l-137 156q-27 -26 -86.5 -77t-87.5 -79q-10 -10 -41 -10q-23 0 -23 6q0 2 2 4
q236 268 248 277h15q24 -30 69.5 -87.5t82.5 -103.5t71 -86z" />
    <glyph glyph-name="Idieresis" unicode="&#xcf;" horiz-adv-x="976" 
d="M872 782q-31 -295 -122 -491q62 -10 104 -10q34 0 61 6q60 15 89 51q11 14 26 14q9 0 15 -5t6 -13v-4q-8 -44 -82.5 -73.5t-210.5 -29.5h-41q-146 -253 -379 -256h-12q-83 -1 -145 25.5t-98 68.5t-58 102t-29.5 116t-7.5 120q0 45 2 68q4 81 51 100q14 7 29 7
q31 0 71 -37q64 -61 204 -124.5t286 -101.5q37 119 71 322q35 206 35 422q0 127 -14 213q-10 60 -34 98.5t-64 38.5q-57 0 -94.5 -53t-52.5 -133t-15 -183q0 -163 35 -318.5t82 -201.5q12 -12 12 -20q0 -13 -21 -13q-22 0 -36 17q-70 75 -117 233.5t-47 321.5q0 83 13.5 154
t41.5 129.5t75.5 94t110.5 40.5h25q252 0 252 -437q0 -85 -17 -258zM92 406q8 -383 256 -383q168 0 256 219q-123 21 -266.5 69t-245.5 95zM588 1679q0 -35 -26.5 -61.5t-61.5 -26.5q-36 0 -62 26t-26 62q0 37 25.5 62.5t62.5 25.5q36 0 62 -26t26 -62zM881 1679
q0 -36 -26 -62t-62 -26q-35 0 -61.5 26.5t-26.5 61.5q0 36 26 62t62 26q37 0 62.5 -25.5t25.5 -62.5z" />
    <glyph glyph-name="Eth" unicode="&#xd0;" horiz-adv-x="1789" 
d="M1790 864q0 -141 -51.5 -274t-141.5 -238.5t-206 -185.5t-251.5 -123t-271.5 -43q-54 0 -87 24t-33 52q0 16 15 27.5t44 11.5q166 0 330 65t289 171t202.5 251.5t77.5 296.5q0 208 -178 322q-221 139 -578 139q-269 0 -524 -80q-133 -42 -224 -112t-91 -144
q0 -52 41.5 -83.5t107.5 -31.5q73 0 158 37.5t168 116.5q4 4 6 4q6 0 6 -10q0 -36 -37 -70q-69 -64 -156.5 -96.5t-173.5 -32.5q-48 0 -81 8q-69 15 -109.5 64.5t-40.5 113.5q0 78 51.5 145t130 113t185.5 82q271 91 551 91q380 0 622 -162q119 -79 184.5 -193.5
t65.5 -255.5zM903 535q-19 -37 -43 -37h-147q-11 -91 -11 -199v-31q0 -72 2 -119t11.5 -105.5t27.5 -92.5h-6q-81 -2 -123 121q-34 96 -34 284q0 44 4 142h-172q-27 0 -27 30q0 9 4 21q19 37 43 37h158q25 249 80 479q4 16 13.5 65.5t18.5 82.5t21 61q3 10 22 10
q30 0 83 -16t61 -39v-10q-124 -358 -166 -633h156q14 0 21 -9.5t7 -21.5q0 -8 -4 -20z" />
    <glyph glyph-name="Ntilde" unicode="&#xd1;" horiz-adv-x="1456" 
d="M1495 -8v-4q-8 -67 -53.5 -113.5t-122.5 -46.5q-135 0 -198.5 110t-63.5 306q0 188 55 446q1 7 15.5 64.5t26.5 112t23 131t11 135.5q0 187 -103 208q-30 5 -36 5q-71 0 -135 -56.5t-111 -149.5t-85 -199.5t-63.5 -219.5t-40 -196t-20.5 -142q-15 -141 -35 -401
q-3 -29 -39 -53.5t-74 -26.5h-6q-33 -2 -59.5 12t-26.5 35q39 215 56 481q16 256 16 375q0 478 -143 641q-51 57 -107 57q-50 0 -88.5 -46.5t-52.5 -135.5q-8 -58 -8 -94q0 -147 52.5 -316t129.5 -256q4 -4 4 -10t-12 -6q-18 0 -43.5 12.5t-46.5 36.5q-89 101 -139 240.5
t-50 277.5q0 199 98 303q60 66 152 66q62 0 122 -30.5t99 -78.5q93 -118 141 -295.5t48 -359.5q0 -36 -4 -106q53 226 135.5 400t181.5 251q112 84 211 84q111 0 181.5 -95t70.5 -249q0 -46 -6 -95q-15 -105 -66 -311t-65 -278q-31 -164 -31 -267q0 -260 153 -260
q44 0 75 28t44 73q6 20 21 20q12 0 12 -14zM1368 1774v-7q0 -34 -37 -99.5t-82 -90.5h2q-21 -12 -45 -12q-38 0 -125.5 47t-134.5 47q-11 0 -31 -4q-31 -8 -44 -30t-18 -46t-17 -31h-2q-9 0 -9 17q0 34 31 93t72 85q18 12 43 12q38 0 130 -48t136 -48q25 0 49 12q19 4 35 31
t26 51.5t15 24.5q2 0 6 -4z" />
    <glyph glyph-name="Ograve" unicode="&#xd2;" horiz-adv-x="1366" 
d="M1335 1122q0 -96 -30 -176q61 -128 61 -297q0 -104 -24.5 -206.5t-76.5 -196.5t-125 -165.5t-178 -114t-227 -42.5q-127 0 -228 52t-163.5 141t-95 201.5t-33.5 240.5q-96 34 -151.5 97.5t-55.5 154.5q0 67 43 112t94 62q1 0 4.5 1t4.5 1q14 0 14 -16q0 -13 -14 -19
q-25 -11 -46.5 -50t-21.5 -77q0 -110 131 -186q11 152 64 293t142 256t226 184.5t301 69.5q189 0 287 -89t98 -231zM381 580q61 -15 111 -15q99 0 203 23.5t202 68t178 119t121 168.5q-80 170 -270 209q-8 3 -8 8t6 10t16 5h21q163 0 268 -115q6 37 6 76q0 66 -27.5 118
t-71 81t-90 44t-90.5 15q-123 0 -229 -72.5t-177.5 -190.5t-115 -261t-53.5 -291zM1237 819q-59 -78 -149 -138.5t-191 -96t-202 -53t-197 -17.5q-60 0 -119 6v-18q-1 -147 35 -264.5t117.5 -192t197.5 -74.5q107 0 205 66.5t165.5 171t107.5 233.5t40 254q0 58 -10 123z
M766 1802l289 -237q2 -2 2 -4q0 -5 -7 -11t-14 -6q-1 0 -2 1t-2 1l-356 180q-8 3 -8 13q0 19 29 44t53 25q10 0 16 -6z" />
    <glyph glyph-name="Oacute" unicode="&#xd3;" horiz-adv-x="1366" 
d="M1335 1122q0 -96 -30 -176q61 -128 61 -297q0 -104 -24.5 -206.5t-76.5 -196.5t-125 -165.5t-178 -114t-227 -42.5q-127 0 -228 52t-163.5 141t-95 201.5t-33.5 240.5q-96 34 -151.5 97.5t-55.5 154.5q0 67 43 112t94 62q1 0 4.5 1t4.5 1q14 0 14 -16q0 -13 -14 -19
q-25 -11 -46.5 -50t-21.5 -77q0 -110 131 -186q11 152 64 293t142 256t226 184.5t301 69.5q189 0 287 -89t98 -231zM381 580q61 -15 111 -15q99 0 203 23.5t202 68t178 119t121 168.5q-80 170 -270 209q-8 3 -8 8t6 10t16 5h21q163 0 268 -115q6 37 6 76q0 66 -27.5 118
t-71 81t-90 44t-90.5 15q-123 0 -229 -72.5t-177.5 -190.5t-115 -261t-53.5 -291zM1237 819q-59 -78 -149 -138.5t-191 -96t-202 -53t-197 -17.5q-60 0 -119 6v-18q-1 -147 35 -264.5t117.5 -192t197.5 -74.5q107 0 205 66.5t165.5 171t107.5 233.5t40 254q0 58 -10 123z
M1116 1735l-356 -181q-1 0 -2 -1t-2 -1q-7 0 -14 6t-7 11q0 2 2 4l289 237q7 7 16 7q24 0 53 -25.5t29 -44.5q0 -9 -8 -12z" />
    <glyph glyph-name="Ocircumflex" unicode="&#xd4;" horiz-adv-x="1366" 
d="M1335 1122q0 -96 -30 -176q61 -128 61 -297q0 -104 -24.5 -206.5t-76.5 -196.5t-125 -165.5t-178 -114t-227 -42.5q-127 0 -228 52t-163.5 141t-95 201.5t-33.5 240.5q-96 34 -151.5 97.5t-55.5 154.5q0 67 43 112t94 62q1 0 4.5 1t4.5 1q14 0 14 -16q0 -13 -14 -19
q-25 -11 -46.5 -50t-21.5 -77q0 -110 131 -186q11 152 64 293t142 256t226 184.5t301 69.5q189 0 287 -89t98 -231zM381 580q61 -15 111 -15q99 0 203 23.5t202 68t178 119t121 168.5q-80 170 -270 209q-8 3 -8 8t6 10t16 5h21q163 0 268 -115q6 37 6 76q0 66 -27.5 118
t-71 81t-90 44t-90.5 15q-123 0 -229 -72.5t-177.5 -190.5t-115 -261t-53.5 -291zM1237 819q-59 -78 -149 -138.5t-191 -96t-202 -53t-197 -17.5q-60 0 -119 6v-18q-1 -147 35 -264.5t117.5 -192t197.5 -74.5q107 0 205 66.5t165.5 171t107.5 233.5t40 254q0 58 -10 123z
M1149 1505q2 -2 2 -4q0 -10 -45 -10q-56 0 -70 14l-137 156q-27 -26 -86.5 -77t-87.5 -79q-10 -10 -41 -10q-22 0 -22 6q0 2 2 4q238 270 247 277h15q24 -30 69.5 -87.5t82.5 -103.5t71 -86z" />
    <glyph glyph-name="Otilde" unicode="&#xd5;" horiz-adv-x="1366" 
d="M1335 1122q0 -96 -30 -176q61 -128 61 -297q0 -104 -24.5 -206.5t-76.5 -196.5t-125 -165.5t-178 -114t-227 -42.5q-127 0 -228 52t-163.5 141t-95 201.5t-33.5 240.5q-96 34 -151.5 97.5t-55.5 154.5q0 67 43 112t94 62q1 0 4.5 1t4.5 1q14 0 14 -16q0 -13 -14 -19
q-25 -11 -46.5 -50t-21.5 -77q0 -110 131 -186q11 152 64 293t142 256t226 184.5t301 69.5q189 0 287 -89t98 -231zM381 580q61 -15 111 -15q99 0 203 23.5t202 68t178 119t121 168.5q-80 170 -270 209q-8 3 -8 8t6 10t16 5h21q163 0 268 -115q6 37 6 76q0 66 -27.5 118
t-71 81t-90 44t-90.5 15q-123 0 -229 -72.5t-177.5 -190.5t-115 -261t-53.5 -291zM1237 819q-59 -78 -149 -138.5t-191 -96t-202 -53t-197 -17.5q-60 0 -119 6v-18q-1 -147 35 -264.5t117.5 -192t197.5 -74.5q107 0 205 66.5t165.5 171t107.5 233.5t40 254q0 58 -10 123z
M1194 1761v-6q0 -34 -37 -99.5t-82 -90.5h2q-23 -13 -45 -13q-39 0 -125.5 47.5t-134.5 47.5q-6 0 -31 -5q-31 -8 -44 -29.5t-18 -45.5t-17 -31h-3q-8 0 -8 16q0 34 31 94t72 85q18 12 43 12q38 0 130 -48t136 -48q25 0 49 12q19 4 35 30.5t26 51t15 24.5q2 0 6 -4z" />
    <glyph glyph-name="Odieresis" unicode="&#xd6;" horiz-adv-x="1366" 
d="M1335 1122q0 -96 -30 -176q61 -128 61 -297q0 -104 -24.5 -206.5t-76.5 -196.5t-125 -165.5t-178 -114t-227 -42.5q-127 0 -228 52t-163.5 141t-95 201.5t-33.5 240.5q-96 34 -151.5 97.5t-55.5 154.5q0 67 43 112t94 62q1 0 4.5 1t4.5 1q14 0 14 -16q0 -13 -14 -19
q-25 -11 -46.5 -50t-21.5 -77q0 -110 131 -186q11 152 64 293t142 256t226 184.5t301 69.5q189 0 287 -89t98 -231zM381 580q61 -15 111 -15q99 0 203 23.5t202 68t178 119t121 168.5q-80 170 -270 209q-8 3 -8 8t6 10t16 5h21q163 0 268 -115q6 37 6 76q0 66 -27.5 118
t-71 81t-90 44t-90.5 15q-123 0 -229 -72.5t-177.5 -190.5t-115 -261t-53.5 -291zM1237 819q-59 -78 -149 -138.5t-191 -96t-202 -53t-197 -17.5q-60 0 -119 6v-18q-1 -147 35 -264.5t117.5 -192t197.5 -74.5q107 0 205 66.5t165.5 171t107.5 233.5t40 254q0 58 -10 123z
M1161 1679q0 -36 -26 -62t-62 -26q-35 0 -61.5 26.5t-26.5 61.5q0 36 26 62t62 26q37 0 62.5 -25.5t25.5 -62.5zM868 1679q0 -35 -26.5 -61.5t-61.5 -26.5q-36 0 -62 26t-26 62q0 37 25.5 62.5t62.5 25.5q36 0 62 -26t26 -62z" />
    <glyph glyph-name="multiply" unicode="&#xd7;" horiz-adv-x="1050" 
d="M860 948l-227 -297l225 -295q4 -4 4 -12q0 -12 -13 -22.5t-26 -14.5q-6 -2 -20 -2q-26 0 -35 14l-195 254l-194 -254q-9 -14 -35 -14q-14 0 -18 2q-41 15 -41 37q0 8 4 12l225 295l-227 297q-6 9 -6 15q0 11 10 21t22 13q3 0 11 1t14 1q32 0 41 -14l194 -256l197 256
q9 14 41 14q6 0 14 -1t9 -1q12 -3 22 -12.5t10 -19.5q0 -8 -6 -17z" />
    <glyph glyph-name="Oslash" unicode="&#xd8;" horiz-adv-x="1366" 
d="M532 43l193 494q-115 -23 -227 -23q-62 0 -121 6v-22q-2 -146 38.5 -266.5t116.5 -188.5zM1235 817q-74 -98 -192.5 -165t-260.5 -103l-209 -537q71 -41 156 -41q107 0 204.5 66t164.5 170t107 233t40 254q0 74 -10 123zM973 1176l80 202q-59 17 -97 17q-99 0 -188 -48
t-155 -128.5t-116.5 -186t-79 -221t-36.5 -233.5q67 -13 111 -13q128 0 258 37q123 310 211 541q-5 2 -17.5 5t-17.5 5q-8 0 -8 8q0 5 6 10t16 5h33zM1196 944q-63 129 -188 182l-197 -505q132 47 233.5 128.5t151.5 194.5zM1235 1137q0 151 -137 223l-74 -189
q122 -20 205 -110q6 37 6 76zM1335 1122q0 -90 -30 -178q61 -128 61 -295q0 -104 -24.5 -206.5t-76.5 -196.5t-125 -165.5t-178 -114t-227 -42.5q-93 0 -184 33l-51 -131q-9 -25 -29 -25q-9 0 -15.5 6.5t-6.5 16.5q0 4 4 16q7 20 25.5 65.5t27.5 71.5q-141 71 -216 227.5
t-77 352.5q-96 36 -150.5 99.5t-54.5 154.5q0 67 43 112t94 62q1 0 4.5 1t4.5 1q14 0 14 -16q0 -13 -14 -19q-25 -11 -46.5 -50t-21.5 -77q0 -113 131 -186q8 120 42.5 234.5t97 218t146.5 181t199.5 123.5t247.5 46q68 0 123 -12l25 61q12 27 30 27q21 0 21 -23
q0 -6 -4 -18l-25 -60q106 -36 160.5 -113.5t54.5 -181.5z" />
    <glyph glyph-name="Ugrave" unicode="&#xd9;" horiz-adv-x="1316" 
d="M610 1389q0 61 -14 61q-20 0 -61 -98q-72 -180 -99 -498q78 120 126 264.5t48 270.5zM1303 -39h14q-1 -53 -33 -82t-78 -29q-51 0 -98 39t-68 111q-49 169 -49 477q0 37 2 55q-39 -141 -94 -262.5t-136.5 -216t-168.5 -112.5q-28 -7 -49 -7q-74 0 -130.5 53t-90.5 147.5
t-52.5 209t-23.5 252.5q-65 -41 -127 -41q-47 0 -87 33t-40 96q0 49 15 88t38 59q3 3 6 3q6 0 6 -11q0 -10 -8 -26q-16 -26 -16 -78q0 -25 4 -35q20 -63 86 -63q65 0 123 38q0 105 27.5 295.5t82.5 337.5q40 108 102.5 174t125.5 66q82 0 82 -150q0 -87 -19.5 -171t-56 -162
t-73.5 -138.5t-89 -132.5q-8 -112 -8 -248q0 -505 170 -505q6 0 26 4q58 13 112.5 71t98 146.5t77.5 191t59 215.5q31 135 45 207q29 337 84 500q2 8 22 8q53 0 81.5 -17t47.5 -59q-17 -76 -40 -206t-50 -357t-27 -395v-23q0 -372 105 -372q20 0 42.5 7t27.5 15zM762 1767
l289 -237q2 -2 2 -4q0 -5 -7 -11t-14 -6q-1 0 -2 1t-2 1l-356 181q-8 3 -8 12q0 19 28.5 44.5t52.5 25.5q10 0 17 -7z" />
    <glyph glyph-name="Uacute" unicode="&#xda;" horiz-adv-x="1316" 
d="M610 1389q0 61 -14 61q-20 0 -61 -98q-72 -180 -99 -498q78 120 126 264.5t48 270.5zM1303 -39h14q-1 -53 -33 -82t-78 -29q-51 0 -98 39t-68 111q-49 169 -49 477q0 37 2 55q-39 -141 -94 -262.5t-136.5 -216t-168.5 -112.5q-28 -7 -49 -7q-74 0 -130.5 53t-90.5 147.5
t-52.5 209t-23.5 252.5q-65 -41 -127 -41q-47 0 -87 33t-40 96q0 49 15 88t38 59q3 3 6 3q6 0 6 -11q0 -10 -8 -26q-16 -26 -16 -78q0 -25 4 -35q20 -63 86 -63q65 0 123 38q0 105 27.5 295.5t82.5 337.5q40 108 102.5 174t125.5 66q82 0 82 -150q0 -87 -19.5 -171t-56 -162
t-73.5 -138.5t-89 -132.5q-8 -112 -8 -248q0 -505 170 -505q6 0 26 4q58 13 112.5 71t98 146.5t77.5 191t59 215.5q31 135 45 207q29 337 84 500q2 8 22 8q53 0 81.5 -17t47.5 -59q-17 -76 -40 -206t-50 -357t-27 -395v-23q0 -372 105 -372q20 0 42.5 7t27.5 15zM1149 1718
l-356 -180q-1 0 -2.5 -1t-2.5 -1q-7 0 -13.5 5.5t-6.5 10.5q0 2 2 4l289 238q6 6 16 6q24 0 53 -25t29 -44q0 -10 -8 -13z" />
    <glyph glyph-name="Ucircumflex" unicode="&#xdb;" horiz-adv-x="1316" 
d="M610 1389q0 61 -14 61q-20 0 -61 -98q-72 -180 -99 -498q78 120 126 264.5t48 270.5zM1303 -39h14q-1 -53 -33 -82t-78 -29q-51 0 -98 39t-68 111q-49 169 -49 477q0 37 2 55q-39 -141 -94 -262.5t-136.5 -216t-168.5 -112.5q-28 -7 -49 -7q-74 0 -130.5 53t-90.5 147.5
t-52.5 209t-23.5 252.5q-65 -41 -127 -41q-47 0 -87 33t-40 96q0 49 15 88t38 59q3 3 6 3q6 0 6 -11q0 -10 -8 -26q-16 -26 -16 -78q0 -25 4 -35q20 -63 86 -63q65 0 123 38q0 105 27.5 295.5t82.5 337.5q40 108 102.5 174t125.5 66q82 0 82 -150q0 -87 -19.5 -171t-56 -162
t-73.5 -138.5t-89 -132.5q-8 -112 -8 -248q0 -505 170 -505q6 0 26 4q58 13 112.5 71t98 146.5t77.5 191t59 215.5q31 135 45 207q29 337 84 500q2 8 22 8q53 0 81.5 -17t47.5 -59q-17 -76 -40 -206t-50 -357t-27 -395v-23q0 -372 105 -372q20 0 42.5 7t27.5 15zM1180 1554
q2 -2 2 -4q0 -10 -45 -10q-56 0 -70 14l-137 156q-27 -26 -86.5 -77t-87.5 -79q-10 -10 -41 -10q-23 0 -23 6q0 2 2 4q236 268 248 277h14q199 -247 224 -277z" />
    <glyph glyph-name="Udieresis" unicode="&#xdc;" horiz-adv-x="1316" 
d="M610 1389q0 61 -14 61q-20 0 -61 -98q-72 -180 -99 -498q78 120 126 264.5t48 270.5zM1303 -39h14q-1 -53 -33 -82t-78 -29q-51 0 -98 39t-68 111q-49 169 -49 477q0 37 2 55q-39 -141 -94 -262.5t-136.5 -216t-168.5 -112.5q-28 -7 -49 -7q-74 0 -130.5 53t-90.5 147.5
t-52.5 209t-23.5 252.5q-65 -41 -127 -41q-47 0 -87 33t-40 96q0 49 15 88t38 59q3 3 6 3q6 0 6 -11q0 -10 -8 -26q-16 -26 -16 -78q0 -25 4 -35q20 -63 86 -63q65 0 123 38q0 105 27.5 295.5t82.5 337.5q40 108 102.5 174t125.5 66q82 0 82 -150q0 -87 -19.5 -171t-56 -162
t-73.5 -138.5t-89 -132.5q-8 -112 -8 -248q0 -505 170 -505q6 0 26 4q58 13 112.5 71t98 146.5t77.5 191t59 215.5q31 135 45 207q29 337 84 500q2 8 22 8q53 0 81.5 -17t47.5 -59q-17 -76 -40 -206t-50 -357t-27 -395v-23q0 -372 105 -372q20 0 42.5 7t27.5 15zM872 1679
q0 -41 -26 -63.5t-62 -22.5q-35 0 -61.5 23t-26.5 63q0 37 25.5 62.5t62.5 25.5q36 0 62 -26t26 -62zM1165 1679q0 -40 -26.5 -63t-61.5 -23q-36 0 -62 22.5t-26 63.5q0 36 26 62t62 26q37 0 62.5 -25.5t25.5 -62.5z" />
    <glyph glyph-name="Yacute" unicode="&#xdd;" horiz-adv-x="1564" 
d="M1321 1374q13 0 22 -20h3q8 0 15.5 -68.5t12.5 -142t6 -76.5q7 -17 39 -209q32 -198 58 -412l8 5q47 24 94 24q43 0 45 -24q0 -7 -9 -12t-20 -5q-58 -6 -110 -39q12 -126 12 -286q0 -83 -7 -168.5t-25 -182.5t-45 -184t-70.5 -167.5t-99 -138.5t-133 -93t-169.5 -35
q-137 0 -199.5 77.5t-62.5 202.5q0 215 195 496q106 154 214 260t238 191q-3 24 -25 233t-32 291q-45 -141 -80 -238q-41 -111 -86.5 -208.5t-103.5 -189t-119.5 -156t-134.5 -103.5t-148 -39h-16q-168 10 -168 272q0 58 9 131.5t17.5 119t24 116t16.5 76.5q0 2 11.5 57
t21.5 108t21.5 126t18.5 148.5t7 137.5q0 242 -106 242q-62 -1 -120.5 -56t-101 -141t-74.5 -188.5t-48.5 -201t-16.5 -175.5q0 -113 35 -133q15 -9 15 -21q0 -10 -8 -17t-19 -7q-15 0 -27 12q-28 31 -45.5 103.5t-17.5 164.5q0 123 33 244q19 70 47.5 136.5t72.5 133
t97 116t124.5 80.5t151.5 32q105 1 150 -75t45 -206q0 -173 -90 -504q-2 -6 -17.5 -61t-28.5 -104.5t-28 -117t-24 -133.5t-9 -120q0 -179 102 -184h11q95 0 194.5 103.5t178 263.5t128.5 345q23 84 37.5 181.5t21 165t15.5 126.5t26.5 89.5t49.5 31.5zM1346 324
q-90 -57 -188 -158t-180.5 -220.5t-136 -254t-53.5 -244.5q0 -104 41.5 -178t126.5 -74q82 0 147.5 35.5t108.5 99t73.5 141.5t46.5 174t23 184.5t7 184.5q0 166 -16 310zM1268 1692l-357 -181q-1 0 -2 -1t-2 -1q-7 0 -13.5 6t-6.5 11q0 2 2 4l289 237q7 7 16 7
q24 0 53 -25.5t29 -44.5q0 -9 -8 -12z" />
    <glyph glyph-name="Thorn" unicode="&#xde;" horiz-adv-x="1284" 
d="M1161 1047q0 210 -370 210q-149 0 -334 -36q-74 -462 -103 -703q44 -6 90 -6q121 0 248 41t231 110.5t171 171t67 212.5zM1247 1020q0 -112 -56.5 -221t-151 -193t-229.5 -136t-282 -52q-95 0 -182 20q-19 -168 -22 -272q0 -14 -1 -45.5t-1 -48.5q0 -301 96 -301
q20 0 42.5 7.5t28.5 16.5h15q-4 -53 -37 -82.5t-78 -29.5q-51 0 -97 38.5t-65 110.5q-26 107 -26 334q0 434 75 999q-129 -55 -129 -127q0 -7 9 -34q4 -12 4 -17q0 -14 -10 -14q-13 0 -31 26q-13 18 -23 58t-10 78q0 55 20 84q42 57 193 98q47 306 84 412q4 8 25 8
q53 0 80.5 -16.5t46.5 -59.5q-7 -27 -58 -313q61 6 141 6q71 0 139 -6t141 -20t134 -39.5t110 -61t77 -88.5t28 -119z" />
    <glyph glyph-name="germandbls" unicode="&#xdf;" horiz-adv-x="1005" 
d="M1090 379q1 -78 -32.5 -147.5t-89 -118.5t-124.5 -85t-140 -53.5t-135 -17.5q-80 0 -130.5 28.5t-51.5 82.5v4q-1 44 35 100t97 109t152.5 98t192.5 65q8 2 23 2q18 0 18 -8q0 -14 -31 -20q-74 -15 -149 -53t-128.5 -82.5t-87.5 -89.5t-34 -74q0 -43 74 -43
q56 0 130 25.5t144 69t118.5 111t47.5 140.5q0 44 -19 80t-48 59.5t-68.5 41t-78.5 26.5t-80 15t-70 7t-53 1l-23 1q-6 -2 -19 -2q-24 0 -35.5 13.5t-11.5 33.5q0 17 7 30.5t18 16.5q66 15 145.5 56.5t154 99.5t124.5 136.5t49 156.5q0 84 -71 145.5t-167 61.5
q-52 0 -101 -19.5t-98.5 -67t-89 -118.5t-68.5 -182t-40 -250q-42 -526 -102 -815q-36 -180 -68 -262q-56 -145 -131 -146h-4q-38 -1 -65 27.5t-27 62.5l4 11q6 -9 16 -11q8 -2 23 -2q10 0 18 2t14.5 8t10.5 9.5t9 14t7 14t6.5 17t5.5 15.5q55 140 87 389q24 169 38.5 482
t20.5 389q8 94 41.5 173.5t83.5 134t113 93t130.5 56.5t135.5 18q93 0 170 -32.5t126 -101t50 -161.5q1 -82 -36.5 -159.5t-99 -136t-133.5 -102t-147 -67.5q90 -2 163.5 -16.5t140 -47t104.5 -94t39 -147.5z" />
    <glyph glyph-name="agrave" unicode="&#xe0;" horiz-adv-x="757" 
d="M836 285v-9q-4 -59 -27.5 -122.5t-71 -113.5t-104.5 -50q-59 0 -101.5 40t-62.5 104t-28.5 122.5t-8.5 116.5q-28 -100 -62.5 -181t-83.5 -140t-98 -60h-2q-48 0 -81.5 47.5t-49 120t-16.5 164.5v20q-1 58 5.5 118.5t20.5 127.5t40 125t61 105t88 74.5t117 27.5
q39 0 70 -18t46 -50q33 37 99 37q28 0 59 -8q-24 -89 -45.5 -231.5t-21.5 -266.5v-8q0 -45 4 -94t13.5 -103t29.5 -88t47 -33h2q37 0 78 78q32 63 57 154q4 18 16 18q11 0 11 -24zM475 836q-23 26 -55 26q-44 0 -91 -43.5t-75 -103.5q-64 -137 -64 -353q0 -20 5 -88
q4 -58 21.5 -86t41.5 -28q74 0 150 293q23 99 30 170q11 140 35 206q0 5 2 7zM289 1386l289 -237q2 -2 2 -4q0 -5 -7 -11t-14 -6q-1 0 -2 1t-2 1l-356 181q-9 3 -9 12q0 19 29 44.5t53 25.5q10 0 17 -7z" />
    <glyph glyph-name="aacute" unicode="&#xe1;" horiz-adv-x="757" 
d="M836 285v-9q-4 -59 -27.5 -122.5t-71 -113.5t-104.5 -50q-59 0 -101.5 40t-62.5 104t-28.5 122.5t-8.5 116.5q-28 -100 -62.5 -181t-83.5 -140t-98 -60h-2q-48 0 -81.5 47.5t-49 120t-16.5 164.5v20q-1 58 5.5 118.5t20.5 127.5t40 125t61 105t88 74.5t117 27.5
q39 0 70 -18t46 -50q33 37 99 37q28 0 59 -8q-24 -89 -45.5 -231.5t-21.5 -266.5v-8q0 -45 4 -94t13.5 -103t29.5 -88t47 -33h2q37 0 78 78q32 63 57 154q4 18 16 18q11 0 11 -24zM475 836q-23 26 -55 26q-44 0 -91 -43.5t-75 -103.5q-64 -137 -64 -353q0 -20 5 -88
q4 -58 21.5 -86t41.5 -28q74 0 150 293q23 99 30 170q11 140 35 206q0 5 2 7zM629 1268l-357 -181q-1 0 -2 -1t-2 -1q-7 0 -13.5 6t-6.5 11q0 2 2 4l289 237q7 7 16 7q24 0 53 -25.5t29 -44.5q0 -9 -8 -12z" />
    <glyph glyph-name="acircumflex" unicode="&#xe2;" horiz-adv-x="757" 
d="M836 285v-9q-4 -59 -27.5 -122.5t-71 -113.5t-104.5 -50q-59 0 -101.5 40t-62.5 104t-28.5 122.5t-8.5 116.5q-28 -100 -62.5 -181t-83.5 -140t-98 -60h-2q-48 0 -81.5 47.5t-49 120t-16.5 164.5v20q-1 58 5.5 118.5t20.5 127.5t40 125t61 105t88 74.5t117 27.5
q39 0 70 -18t46 -50q33 37 99 37q28 0 59 -8q-24 -89 -45.5 -231.5t-21.5 -266.5v-8q0 -45 4 -94t13.5 -103t29.5 -88t47 -33h2q37 0 78 78q32 63 57 154q4 18 16 18q11 0 11 -24zM475 836q-23 26 -55 26q-44 0 -91 -43.5t-75 -103.5q-64 -137 -64 -353q0 -20 5 -88
q4 -58 21.5 -86t41.5 -28q74 0 150 293q23 99 30 170q11 140 35 206q0 5 2 7zM621 1108q2 -2 2 -4q0 -10 -45 -10q-56 0 -70 14l-137 156q-27 -26 -86.5 -77t-87.5 -79q-10 -10 -41 -10q-23 0 -23 6q0 2 2 4q234 265 248 276h14q182 -226 224 -276z" />
    <glyph glyph-name="atilde" unicode="&#xe3;" horiz-adv-x="757" 
d="M836 285v-9q-4 -59 -27.5 -122.5t-71 -113.5t-104.5 -50q-59 0 -101.5 40t-62.5 104t-28.5 122.5t-8.5 116.5q-28 -100 -62.5 -181t-83.5 -140t-98 -60h-2q-48 0 -81.5 47.5t-49 120t-16.5 164.5v20q-1 58 5.5 118.5t20.5 127.5t40 125t61 105t88 74.5t117 27.5
q39 0 70 -18t46 -50q33 37 99 37q28 0 59 -8q-24 -89 -45.5 -231.5t-21.5 -266.5v-8q0 -45 4 -94t13.5 -103t29.5 -88t47 -33h2q37 0 78 78q32 63 57 154q4 18 16 18q11 0 11 -24zM475 836q-23 26 -55 26q-44 0 -91 -43.5t-75 -103.5q-64 -137 -64 -353q0 -20 5 -88
q4 -58 21.5 -86t41.5 -28q74 0 150 293q23 99 30 170q11 140 35 206q0 5 2 7zM655 1313v-6q0 -35 -36.5 -100.5t-81.5 -90.5h2q-21 -12 -45 -12q-38 0 -126 47t-135 47q-10 0 -30 -4q-25 -6 -38.5 -21.5t-17 -31t-9 -32t-15.5 -22.5h-2q-8 0 -8 17q0 34 30.5 93.5t71.5 84.5
q18 12 43 12q38 0 130 -48t136 -48q25 0 49 12q19 4 35 31t26 51.5t15 24.5q2 0 6 -4z" />
    <glyph glyph-name="adieresis" unicode="&#xe4;" horiz-adv-x="757" 
d="M836 285v-9q-4 -59 -27.5 -122.5t-71 -113.5t-104.5 -50q-59 0 -101.5 40t-62.5 104t-28.5 122.5t-8.5 116.5q-28 -100 -62.5 -181t-83.5 -140t-98 -60h-2q-48 0 -81.5 47.5t-49 120t-16.5 164.5v20q-1 58 5.5 118.5t20.5 127.5t40 125t61 105t88 74.5t117 27.5
q39 0 70 -18t46 -50q33 37 99 37q28 0 59 -8q-24 -89 -45.5 -231.5t-21.5 -266.5v-8q0 -45 4 -94t13.5 -103t29.5 -88t47 -33h2q37 0 78 78q32 63 57 154q4 18 16 18q11 0 11 -24zM475 836q-23 26 -55 26q-44 0 -91 -43.5t-75 -103.5q-64 -137 -64 -353q0 -20 5 -88
q4 -58 21.5 -86t41.5 -28q74 0 150 293q23 99 30 170q11 140 35 206q0 5 2 7zM354 1214q0 -35 -26.5 -61.5t-61.5 -26.5q-36 0 -62 26t-26 62q0 37 25.5 63t62.5 26q36 0 62 -26.5t26 -62.5zM647 1214q0 -36 -26 -62t-62 -26q-35 0 -61.5 26.5t-26.5 61.5q0 36 26.5 62.5
t61.5 26.5q37 0 62.5 -26t25.5 -63z" />
    <glyph glyph-name="aring" unicode="&#xe5;" horiz-adv-x="757" 
d="M836 285v-9q-4 -59 -27.5 -122.5t-71 -113.5t-104.5 -50q-59 0 -101.5 40t-62.5 104t-28.5 122.5t-8.5 116.5q-28 -100 -62.5 -181t-83.5 -140t-98 -60h-2q-48 0 -81.5 47.5t-49 120t-16.5 164.5v20q-1 58 5.5 118.5t20.5 127.5t40 125t61 105t88 74.5t117 27.5
q39 0 70 -18t46 -50q33 37 99 37q28 0 59 -8q-24 -89 -45.5 -231.5t-21.5 -266.5v-8q0 -45 4 -94t13.5 -103t29.5 -88t47 -33h2q37 0 78 78q32 63 57 154q4 18 16 18q11 0 11 -24zM475 836q-23 26 -55 26q-44 0 -91 -43.5t-75 -103.5q-64 -137 -64 -353q0 -20 5 -88
q4 -58 21.5 -86t41.5 -28q74 0 150 293q23 99 30 170q11 140 35 206q0 5 2 7zM637 1223q0 -72 -55 -123t-133 -51t-133.5 51t-55.5 123q0 71 55.5 121.5t133.5 50.5t133 -50.5t55 -121.5zM549 1225q0 43 -29.5 74.5t-70.5 31.5t-71 -31.5t-30 -74.5q0 -44 30 -75.5t71 -31.5
t70.5 31.5t29.5 75.5z" />
    <glyph glyph-name="ae" unicode="&#xe6;" horiz-adv-x="937" 
d="M1006 213q-75 -252 -279 -252q-63 0 -110.5 19.5t-76 51t-47 78t-26 92.5t-10.5 103v35q0 57 2 84l-6 -8q-21 -78 -48.5 -149t-61 -134.5t-74.5 -101.5t-81 -39h-2q-48 0 -80 47.5t-45.5 119.5t-13.5 165q0 70 9.5 144.5t34 157.5t62 147.5t100 106.5t140.5 42
q88 0 115 -68q25 72 117 72q37 0 59 -11l-31 -106q72 99 176 96h11q54 -1 82 -41.5t26 -91.5v-6q-1 -80 -30.5 -148.5t-77.5 -116t-105.5 -79t-120.5 -45.5q0 -334 156 -334q32 0 70 14q90 30 137 197q7 25 20 25q15 0 15 -29q0 -13 -6 -37zM449 580l47 256q-23 26 -58 26
q-43 0 -91 -43.5t-77 -103.5q-71 -145 -71 -377q0 -44 2 -64q8 -114 57 -114q42 0 87 93.5t69.5 181t34.5 145.5zM838 735v13q0 40 -14 70t-42 30h-2q-43 1 -77 -53.5t-51.5 -130.5t-26.5 -139.5t-9 -98.5v-2q94 24 155.5 115t66.5 196z" />
    <glyph glyph-name="ccedilla" unicode="&#xe7;" horiz-adv-x="532" 
d="M598 213q-68 -228 -242 -250q-10 -20 -28 -60t-31 -66t-21 -36q94 17 105 17h16q95 0 153.5 -43t59.5 -123v-6q1 -80 -52 -145t-129.5 -97.5t-154.5 -32.5q-53 0 -94 17q-8 3 -8 14q0 16 16 16q5 0 9 -2q30 -10 55 -10q85 0 155.5 69.5t69.5 157.5v7q0 49 -28 88.5
t-76 38.5h-4q-61 0 -154 -39h-4q-10 0 -10 26q0 10 7.5 40t23 84.5t24.5 88.5q-184 40 -203 314q-2 23 -2 69q0 79 12.5 155t41 147t70 124t103 85t136.5 32q56 0 85 -40t29 -95q0 -63 -21.5 -100t-49.5 -37h-6q-20 3 -26.5 24.5t-6.5 77.5q0 46 -14.5 78.5t-45.5 32.5
q-36 0 -64 -39.5t-43 -94.5t-24.5 -124t-12.5 -118.5t-3 -88.5v-9q0 -65 9 -119t29 -98.5t55 -69t83 -24.5q121 0 180 205q3 11 10 18t13 7q14 0 14 -29q0 -16 -6 -37z" />
    <glyph glyph-name="egrave" unicode="&#xe8;" horiz-adv-x="538" 
d="M606 213q-75 -252 -278 -252q-128 0 -209 121q-55 81 -62 223v37q0 102 22 199t64.5 180t116 133.5t166.5 50.5h14q53 -1 82 -41.5t27 -91.5v-6q-3 -154 -101.5 -256t-232.5 -133v-10q0 -139 43.5 -228.5t136.5 -89.5q60 0 107 52t76 153q7 25 20 25q14 0 14 -27
q0 -15 -6 -39zM217 426v-2q94 24 155.5 115t63.5 196v10q2 42 -11.5 72.5t-41.5 30.5h-2q-43 1 -76.5 -52.5t-51 -132.5t-26 -137.5t-10.5 -99.5zM272 1274l289 -238q2 -2 2 -4q0 -5 -6.5 -10.5t-13.5 -5.5q-1 0 -2 1t-2 1l-357 180q-8 3 -8 12q0 19 29 44.5t53 25.5
q10 0 16 -6z" />
    <glyph glyph-name="eacute" unicode="&#xe9;" horiz-adv-x="538" 
d="M606 213q-75 -252 -278 -252q-128 0 -209 121q-55 81 -62 223v37q0 102 22 199t64.5 180t116 133.5t166.5 50.5h14q53 -1 82 -41.5t27 -91.5v-6q-3 -154 -101.5 -256t-232.5 -133v-10q0 -139 43.5 -228.5t136.5 -89.5q60 0 107 52t76 153q7 25 20 25q14 0 14 -27
q0 -15 -6 -39zM217 426v-2q94 24 155.5 115t63.5 196v10q2 42 -11.5 72.5t-41.5 30.5h-2q-43 1 -76.5 -52.5t-51 -132.5t-26 -137.5t-10.5 -99.5zM590 1208l-357 -180q-1 0 -2 -1t-2 -1q-7 0 -13.5 5.5t-6.5 10.5q0 3 2 5l289 237q6 6 16 6q24 0 53 -25t29 -44q0 -10 -8 -13
z" />
    <glyph glyph-name="ecircumflex" unicode="&#xea;" horiz-adv-x="538" 
d="M606 213q-75 -252 -278 -252q-128 0 -209 121q-55 81 -62 223v37q0 102 22 199t64.5 180t116 133.5t166.5 50.5h14q53 -1 82 -41.5t27 -91.5v-6q-3 -154 -101.5 -256t-232.5 -133v-10q0 -139 43.5 -228.5t136.5 -89.5q60 0 107 52t76 153q7 25 20 25q14 0 14 -27
q0 -15 -6 -39zM217 426v-2q94 24 155.5 115t63.5 196v10q2 42 -11.5 72.5t-41.5 30.5h-2q-43 1 -76.5 -52.5t-51 -132.5t-26 -137.5t-10.5 -99.5zM600 1108q2 -2 2 -4q0 -10 -45 -10q-56 0 -70 14l-137 156q-27 -26 -86.5 -77t-87.5 -79q-10 -10 -41 -10q-22 0 -22 6
q0 2 2 4q236 267 247 276h15q202 -251 223 -276z" />
    <glyph glyph-name="edieresis" unicode="&#xeb;" horiz-adv-x="538" 
d="M606 213q-75 -252 -278 -252q-128 0 -209 121q-55 81 -62 223v37q0 102 22 199t64.5 180t116 133.5t166.5 50.5h14q53 -1 82 -41.5t27 -91.5v-6q-3 -154 -101.5 -256t-232.5 -133v-10q0 -139 43.5 -228.5t136.5 -89.5q60 0 107 52t76 153q7 25 20 25q14 0 14 -27
q0 -15 -6 -39zM217 426v-2q94 24 155.5 115t63.5 196v10q2 42 -11.5 72.5t-41.5 30.5h-2q-43 1 -76.5 -52.5t-51 -132.5t-26 -137.5t-10.5 -99.5zM309 1227q0 -35 -26.5 -61.5t-61.5 -26.5q-36 0 -62 26t-26 62q0 37 25.5 62.5t62.5 25.5q36 0 62 -26t26 -62zM602 1227
q0 -36 -26 -62t-62 -26q-35 0 -61.5 26.5t-26.5 61.5q0 36 26 62t62 26q37 0 62.5 -25.5t25.5 -62.5z" />
    <glyph glyph-name="igrave" unicode="&#xec;" horiz-adv-x="354" 
d="M432 285v-9q-4 -59 -27.5 -122.5t-71 -113.5t-104.5 -50q-58 0 -98.5 38.5t-59.5 101.5t-26.5 120.5t-7.5 116.5v26q6 256 34 372q8 36 19 64q10 27 39 44.5t72 17.5q30 0 61 -8q-23 -83 -44.5 -230t-22.5 -276v-51q0 -51 2.5 -90.5t9 -84t22.5 -69t39 -23.5h2
q37 0 78 78q34 67 58 154q4 18 16 18q10 0 10 -24zM31 1274l288 -238q3 -3 3 -4q0 -5 -7 -10.5t-14 -5.5q-1 0 -2 1t-2 1l-356 180q-9 3 -9 12q0 19 29 44.5t53 25.5q11 0 17 -6z" />
    <glyph glyph-name="iacute" unicode="&#xed;" horiz-adv-x="354" 
d="M432 285v-9q-4 -59 -27.5 -122.5t-71 -113.5t-104.5 -50q-58 0 -98.5 38.5t-59.5 101.5t-26.5 120.5t-7.5 116.5v26q6 256 34 372q8 36 19 64q10 27 39 44.5t72 17.5q30 0 61 -8q-23 -83 -44.5 -230t-22.5 -276v-51q0 -51 2.5 -90.5t9 -84t22.5 -69t39 -23.5h2
q37 0 78 78q34 67 58 154q4 18 16 18q10 0 10 -24zM418 1208l-357 -180q-1 0 -2 -1t-2 -1q-7 0 -13.5 5.5t-6.5 10.5q0 3 2 5l289 237q6 6 16 6q24 0 53 -25t29 -44q0 -10 -8 -13z" />
    <glyph glyph-name="icircumflex" unicode="&#xee;" horiz-adv-x="354" 
d="M432 285v-9q-4 -59 -27.5 -122.5t-71 -113.5t-104.5 -50q-58 0 -98.5 38.5t-59.5 101.5t-26.5 120.5t-7.5 116.5v26q6 256 34 372q8 36 19 64q10 27 39 44.5t72 17.5q30 0 61 -8q-23 -83 -44.5 -230t-22.5 -276v-51q0 -51 2.5 -90.5t9 -84t22.5 -69t39 -23.5h2
q37 0 78 78q34 67 58 154q4 18 16 18q10 0 10 -24zM418 1108q2 -2 2 -4q0 -10 -45 -10q-56 0 -70 14l-137 156q-27 -26 -86.5 -77t-87.5 -79q-10 -10 -41 -10q-23 0 -23 6q0 2 2 4q234 265 248 276h15q202 -251 223 -276z" />
    <glyph glyph-name="idieresis" unicode="&#xef;" horiz-adv-x="354" 
d="M432 285v-9q-4 -59 -27.5 -122.5t-71 -113.5t-104.5 -50q-58 0 -98.5 38.5t-59.5 101.5t-26.5 120.5t-7.5 116.5v26q6 256 34 372q8 36 19 64q10 27 39 44.5t72 17.5q30 0 61 -8q-23 -83 -44.5 -230t-22.5 -276v-51q0 -51 2.5 -90.5t9 -84t22.5 -69t39 -23.5h2
q37 0 78 78q34 67 58 154q4 18 16 18q10 0 10 -24zM412 1227q0 -36 -26 -62t-62 -26q-35 0 -61.5 26.5t-26.5 61.5q0 36 26 62t62 26q37 0 62.5 -25.5t25.5 -62.5zM119 1227q0 -35 -26.5 -61.5t-61.5 -26.5q-36 0 -62 26t-26 62q0 37 25.5 62.5t62.5 25.5q36 0 62 -26
t26 -62z" />
    <glyph glyph-name="eth" unicode="&#xf0;" horiz-adv-x="692" 
d="M670 883v-19q1 -79 -12 -185.5t-43.5 -226.5t-73.5 -220.5t-108.5 -167t-141.5 -66.5q-75 0 -131 64.5t-82.5 162.5t-26.5 213q0 123 30 228.5t98 177t163 71.5q58 0 107.5 -28t62.5 -62q4 -12 4 -20q0 -20 -11 -36.5t-24 -16.5t-24 20q-19 35 -51 65.5t-68 30.5
q-45 0 -80.5 -91t-50.5 -214q-6 -69 -6 -145q0 -60 4.5 -113t15 -104.5t32 -82t52.5 -30.5q36 0 70 41.5t56.5 97.5t42 130.5t28.5 123t16 92.5q23 154 23 285q0 248 -80 383l-156 -131q-9 -6 -16 -6q-10 0 -19 9.5t-12 19.5q-4 12 -4 26q0 21 12 31l142 121q-80 80 -209 80
q-30 0 -107 -29q-4 -2 -12 -2q-7 0 -13 5t-6 11q0 10 12 20.5t36 16.5q85 21 155 21q124 0 213 -64l127 111q8 8 19 8q20 0 34 -33q0 -2 1 -9t1 -11q0 -23 -10 -35l-106 -90q124 -147 127 -428z" />
    <glyph glyph-name="ntilde" unicode="&#xf1;" horiz-adv-x="731" 
d="M805 264v-6q0 -23 -19 -82q-62 -188 -206 -188q-55 0 -94 34t-54 93q-16 65 -16 190q0 123 16 299q2 10 2 41q0 113 -39 113q-23 0 -61 -49q-60 -79 -111 -235t-51 -314q0 -70 12 -137q-39 -39 -86 -39q-73 0 -73 92q0 25 2 39q20 140 20 405q0 212 -24 293q12 3 54.5 23
t63.5 24q6 2 17 2q32 0 42.5 -32t10.5 -95q0 -101 -6 -174q34 104 106 207q93 139 185 139q98 0 98 -131q0 -13 -6 -94q0 -1 -7 -67.5t-12.5 -149t-5.5 -152.5q0 -121 21 -192q16 -55 53 -55q16 0 37 12q39 25 67 96q18 45 31 88q3 9 10 16t13 7q10 0 10 -21zM643 1313v-6
q0 -34 -37 -100t-82 -91h2q-21 -12 -45 -12q-39 0 -126 47t-134 47q-11 0 -31 -4q-31 -8 -44 -30t-18 -46t-17 -31h-2q-9 0 -9 17q0 34 31 93t72 85q18 12 43 12q38 0 130 -48t136 -48q25 0 49 12q19 4 35 31t26 51.5t15 24.5q2 0 6 -4z" />
    <glyph glyph-name="ograve" unicode="&#xf2;" horiz-adv-x="649" 
d="M500 317q18 77 18 187q0 219 -86 278q-24 16 -24 39q0 30 32 51q-21 15 -39 15q-35 0 -65.5 -41.5t-49 -100.5t-29 -105.5t-13.5 -74.5q-11 -85 -11 -170q0 -58 5 -107t17 -95.5t35.5 -73.5t57.5 -27q30 0 56.5 23.5t45 61.5t30.5 72t20 68zM551 291
q-14 -52 -37.5 -103.5t-57 -99.5t-79.5 -78t-96 -30q-53 0 -93.5 25t-65 64t-39.5 93.5t-20.5 107t-5.5 111.5q0 54 11 172q6 55 20 105t40 101t61 88t87.5 60t116.5 23q55 0 94.5 -28.5t60.5 -79t30.5 -108t9.5 -126.5q0 -161 -37 -297zM240 1274l288 -238q2 -2 2 -4
q0 -5 -6.5 -10.5t-13.5 -5.5q-1 0 -2 1t-2 1l-356 180q-9 3 -9 12q0 19 29 44.5t53 25.5q11 0 17 -6z" />
    <glyph glyph-name="oacute" unicode="&#xf3;" horiz-adv-x="649" 
d="M500 317q18 77 18 187q0 219 -86 278q-24 16 -24 39q0 30 32 51q-21 15 -39 15q-35 0 -65.5 -41.5t-49 -100.5t-29 -105.5t-13.5 -74.5q-11 -85 -11 -170q0 -58 5 -107t17 -95.5t35.5 -73.5t57.5 -27q30 0 56.5 23.5t45 61.5t30.5 72t20 68zM551 291
q-14 -52 -37.5 -103.5t-57 -99.5t-79.5 -78t-96 -30q-53 0 -93.5 25t-65 64t-39.5 93.5t-20.5 107t-5.5 111.5q0 54 11 172q6 55 20 105t40 101t61 88t87.5 60t116.5 23q55 0 94.5 -28.5t60.5 -79t30.5 -108t9.5 -126.5q0 -161 -37 -297zM514 1208l-356 -180q-1 0 -2 -1
t-2 -1q-7 0 -14 5.5t-7 10.5q0 3 2 5l289 237q6 6 16 6q24 0 53 -25t29 -44q0 -10 -8 -13z" />
    <glyph glyph-name="ocircumflex" unicode="&#xf4;" horiz-adv-x="649" 
d="M500 317q18 77 18 187q0 219 -86 278q-24 16 -24 39q0 30 32 51q-21 15 -39 15q-35 0 -65.5 -41.5t-49 -100.5t-29 -105.5t-13.5 -74.5q-11 -85 -11 -170q0 -58 5 -107t17 -95.5t35.5 -73.5t57.5 -27q30 0 56.5 23.5t45 61.5t30.5 72t20 68zM551 291
q-14 -52 -37.5 -103.5t-57 -99.5t-79.5 -78t-96 -30q-53 0 -93.5 25t-65 64t-39.5 93.5t-20.5 107t-5.5 111.5q0 54 11 172q6 55 20 105t40 101t61 88t87.5 60t116.5 23q55 0 94.5 -28.5t60.5 -79t30.5 -108t9.5 -126.5q0 -161 -37 -297zM565 1108q2 -2 2 -4q0 -10 -45 -10
q-55 0 -69 14l-138 156q-27 -26 -86.5 -77t-87.5 -79q-10 -10 -41 -10q-22 0 -22 6q0 2 2 4q234 265 248 276h14q202 -251 223 -276z" />
    <glyph glyph-name="otilde" unicode="&#xf5;" horiz-adv-x="649" 
d="M551 291q-14 -52 -37.5 -103.5t-57 -99.5t-79.5 -78t-96 -30q-53 0 -93.5 25t-65 64t-39.5 93.5t-20.5 107t-5.5 111.5q0 54 11 172q6 55 20 105t40 101t61 88t87.5 60t116.5 23q55 0 94.5 -28.5t60.5 -79t30.5 -108t9.5 -126.5q0 -161 -37 -297zM500 317q18 77 18 187
q0 219 -86 278q-24 16 -24 39q0 30 32 51q-21 15 -39 15q-35 0 -65.5 -41.5t-49 -100.5t-29 -105.5t-13.5 -74.5q-11 -85 -11 -170q0 -58 5 -107t17 -95.5t35.5 -73.5t57.5 -27q30 0 56.5 23.5t45 61.5t30.5 72t20 68zM602 1313v-6q0 -34 -37 -100t-82 -91h2
q-21 -12 -45 -12q-33 0 -79 23.5t-94 47t-87 23.5q-10 0 -30 -4q-25 -6 -38.5 -21.5t-17 -31t-9 -32t-15.5 -22.5h-2q-9 0 -9 17q0 34 31 93t72 85q18 12 43 12q38 0 130 -48t136 -48q25 0 49 12q19 4 35 31t26 51.5t15 24.5q2 0 6 -4z" />
    <glyph glyph-name="odieresis" unicode="&#xf6;" horiz-adv-x="649" 
d="M500 317q18 77 18 187q0 219 -86 278q-24 16 -24 39q0 30 32 51q-21 15 -39 15q-35 0 -65.5 -41.5t-49 -100.5t-29 -105.5t-13.5 -74.5q-11 -85 -11 -170q0 -58 5 -107t17 -95.5t35.5 -73.5t57.5 -27q30 0 56.5 23.5t45 61.5t30.5 72t20 68zM551 291
q-14 -52 -37.5 -103.5t-57 -99.5t-79.5 -78t-96 -30q-53 0 -93.5 25t-65 64t-39.5 93.5t-20.5 107t-5.5 111.5q0 54 11 172q6 55 20 105t40 101t61 88t87.5 60t116.5 23q55 0 94.5 -28.5t60.5 -79t30.5 -108t9.5 -126.5q0 -161 -37 -297zM266 1227q0 -35 -26.5 -61.5
t-61.5 -26.5q-36 0 -62 26t-26 62q0 37 25.5 62.5t62.5 25.5q36 0 62 -26t26 -62zM559 1227q0 -36 -26 -62t-62 -26q-35 0 -61.5 26.5t-26.5 61.5q0 36 26 62t62 26q37 0 62.5 -25.5t25.5 -62.5z" />
    <glyph glyph-name="divide" unicode="&#xf7;" horiz-adv-x="946" 
d="M573 322q0 -40 -28.5 -69.5t-69.5 -29.5q-40 0 -69 29.5t-29 69.5q0 41 29 69.5t69 28.5q41 0 69.5 -28.5t28.5 -69.5zM809 586q-4 -13 -15 -25t-28 -12h-588q-26 0 -26 29q0 8 4 20q4 13 15 25t26 12h589q27 0 27 -29q0 -8 -4 -20zM573 856q0 -40 -28.5 -69t-69.5 -29
q-40 0 -69 29t-29 69q0 41 29 69.5t69 28.5q41 0 69.5 -28.5t28.5 -69.5z" />
    <glyph glyph-name="oslash" unicode="&#xf8;" horiz-adv-x="624" 
d="M504 471q-45 35 -62 141l-182 -465q25 -55 76 -55q30 0 56 23.5t44.5 61.5t30.5 72t20 68q15 71 17 154zM455 776l14 39q-32 70 -82 70q-32 0 -62 -41.5t-49 -99.5t-30.5 -105.5t-14.5 -73.5q-10 -77 -10 -172q0 -93 15 -172l206 524q8 25 13 31zM823 444
q-62 -59 -143 -59q-65 0 -117 37q-7 -60 -24 -131q-14 -52 -38 -103.5t-57.5 -99.5t-79.5 -78t-96 -30q-36 0 -71 14l-64 -168q-9 -25 -29 -25q-9 0 -15.5 6.5t-6.5 16.5q0 4 4 16l70 176q-111 88 -111 365q0 100 10 172q6 54 20 104.5t40 101.5t61.5 88t88 60t116.5 23
q69 0 115 -49l41 106q9 27 30 27q8 0 14.5 -6.5t6.5 -16.5q0 -6 -4 -18l-54 -139q45 -90 45 -250q0 -33 -4 -99q51 -57 123 -57q57 0 109 41q13 10 22 10t9 -10q0 -18 -11 -25z" />
    <glyph glyph-name="ugrave" unicode="&#xf9;" horiz-adv-x="759" 
d="M838 287v-8q-4 -59 -27.5 -122.5t-71 -114t-104.5 -50.5q-50 0 -88 29t-59 78t-32 99.5t-14 106.5q-34 -134 -98.5 -221.5t-153.5 -87.5h-12q-36 3 -61.5 40.5t-37 96.5t-16 112t-4.5 109v39q8 318 54 436q10 27 38.5 44.5t71.5 17.5q31 0 62 -8q-32 -126 -52 -293
q-20 -160 -20 -287q0 -197 59 -197q40 0 73.5 53.5t54 136.5t32 150.5t17.5 128.5q17 182 45 254q10 27 38.5 44.5t71.5 17.5q31 0 62 -8q-22 -86 -43.5 -232.5t-24.5 -273.5v-43q0 -48 3 -89.5t10.5 -86t24 -70.5t40.5 -25h2q37 0 78 78q21 42 55 152q7 18 16 18
q11 0 11 -24zM242 1274l288 -238q2 -2 2 -4q0 -5 -6.5 -10.5t-13.5 -5.5q-1 0 -2 1t-2 1l-356 180q-9 3 -9 12q0 19 29 44.5t53 25.5q11 0 17 -6z" />
    <glyph glyph-name="uacute" unicode="&#xfa;" horiz-adv-x="759" 
d="M838 287v-8q-4 -59 -27.5 -122.5t-71 -114t-104.5 -50.5q-50 0 -88 29t-59 78t-32 99.5t-14 106.5q-34 -134 -98.5 -221.5t-153.5 -87.5h-12q-36 3 -61.5 40.5t-37 96.5t-16 112t-4.5 109v39q8 318 54 436q10 27 38.5 44.5t71.5 17.5q31 0 62 -8q-32 -126 -52 -293
q-20 -160 -20 -287q0 -197 59 -197q40 0 73.5 53.5t54 136.5t32 150.5t17.5 128.5q17 182 45 254q10 27 38.5 44.5t71.5 17.5q31 0 62 -8q-22 -86 -43.5 -232.5t-24.5 -273.5v-43q0 -48 3 -89.5t10.5 -86t24 -70.5t40.5 -25h2q37 0 78 78q21 42 55 152q7 18 16 18
q11 0 11 -24zM655 1208l-356 -180q-1 0 -2 -1t-2 -1q-7 0 -14 5.5t-7 10.5q0 3 2 5l289 237q6 6 17 6q24 0 53 -25t29 -44q0 -10 -9 -13z" />
    <glyph glyph-name="ucircumflex" unicode="&#xfb;" horiz-adv-x="759" 
d="M838 287v-8q-4 -59 -27.5 -122.5t-71 -114t-104.5 -50.5q-50 0 -88 29t-59 78t-32 99.5t-14 106.5q-34 -134 -98.5 -221.5t-153.5 -87.5h-12q-36 3 -61.5 40.5t-37 96.5t-16 112t-4.5 109v39q8 318 54 436q10 27 38.5 44.5t71.5 17.5q31 0 62 -8q-32 -126 -52 -293
q-20 -160 -20 -287q0 -197 59 -197q40 0 73.5 53.5t54 136.5t32 150.5t17.5 128.5q17 182 45 254q10 27 38.5 44.5t71.5 17.5q31 0 62 -8q-22 -86 -43.5 -232.5t-24.5 -273.5v-43q0 -48 3 -89.5t10.5 -86t24 -70.5t40.5 -25h2q37 0 78 78q21 42 55 152q7 18 16 18
q11 0 11 -24zM651 1108q2 -2 2 -4q0 -10 -45 -10q-55 0 -69 14l-138 156q-27 -26 -86.5 -77t-87.5 -79q-10 -10 -41 -10q-22 0 -22 6q0 2 2 4q234 265 248 276h14q202 -251 223 -276z" />
    <glyph glyph-name="udieresis" unicode="&#xfc;" horiz-adv-x="759" 
d="M838 287v-8q-4 -59 -27.5 -122.5t-71 -114t-104.5 -50.5q-50 0 -88 29t-59 78t-32 99.5t-14 106.5q-34 -134 -98.5 -221.5t-153.5 -87.5h-12q-36 3 -61.5 40.5t-37 96.5t-16 112t-4.5 109v39q8 318 54 436q10 27 38.5 44.5t71.5 17.5q31 0 62 -8q-32 -126 -52 -293
q-20 -160 -20 -287q0 -197 59 -197q40 0 73.5 53.5t54 136.5t32 150.5t17.5 128.5q17 182 45 254q10 27 38.5 44.5t71.5 17.5q31 0 62 -8q-22 -86 -43.5 -232.5t-24.5 -273.5v-43q0 -48 3 -89.5t10.5 -86t24 -70.5t40.5 -25h2q37 0 78 78q21 42 55 152q7 18 16 18
q11 0 11 -24zM659 1227q0 -36 -26 -62t-62 -26q-35 0 -61.5 26.5t-26.5 61.5q0 36 26 62t62 26q37 0 62.5 -25.5t25.5 -62.5zM367 1227q0 -35 -26.5 -61.5t-61.5 -26.5q-37 0 -63 26.5t-26 61.5q0 37 26 62.5t63 25.5q36 0 62 -26t26 -62z" />
    <glyph glyph-name="yacute" unicode="&#xfd;" horiz-adv-x="677" 
d="M748 279q10 -3 10 -17q0 -7 -5 -13.5t-12 -6.5q-40 -3 -109 -51t-69 -80v-25q1 -208 -33 -371.5t-93.5 -264t-135.5 -152.5t-164 -52q-108 0 -158.5 53t-50.5 144q0 121 80 274q34 64 88.5 128t117.5 117t115 90.5t105 70.5q0 141 -16 373q-32 -169 -117 -359
q-20 -47 -61.5 -95t-83.5 -48q-24 0 -47 20q-36 32 -52 154.5t-16 247.5q0 16 1 39.5t1 29.5q0 4 2 46.5t3 58.5t4 55.5t6.5 62.5t10.5 52.5t15 50.5q17 41 45.5 59.5t75.5 18.5q25 0 37 -2q16 -4 20 -4q-32 -66 -52 -207.5t-20 -276.5q0 -85 9 -143q16 -92 43 -92
q12 0 30 24q61 88 96 230t35 260v2q0 70 17 116.5t46 65.5t52 25t51 6h23q31 0 31 -12q0 -4 -9 -13q-51 -44 -51 -348q0 -67 2 -170t2 -125v-22q135 78 170 78q2 0 6 -1t5 -1zM436 72q-29 -17 -71.5 -52t-96 -87t-107 -125t-87.5 -148q-54 -117 -54 -219q0 -69 25 -110.5
t70 -41.5h6q46 -1 85.5 22t68 58t52.5 90.5t40 107t28.5 120.5t19 117.5t12 112.5t6.5 90t3 65zM514 1208l-356 -180q-1 0 -2 -1t-2 -1q-7 0 -14 5.5t-7 10.5q0 3 2 5l289 237q6 6 16 6q24 0 53 -25t29 -44q0 -10 -8 -13z" />
    <glyph glyph-name="thorn" unicode="&#xfe;" horiz-adv-x="595" 
d="M430 430q2 25 2 105q0 225 -67 225q-65 0 -136 -242q-37 -357 -43 -442q3 0 7 -4q27 -27 61 -27q33 0 59 23q105 87 117 362zM582 649q4 -58 4 -94q0 -67 -6 -132.5t-22.5 -136.5t-41.5 -127t-66.5 -99.5t-93.5 -59.5q-30 -10 -71 -10q-70 0 -103 33q-8 -136 -8 -183
q0 -14 -1 -44.5t-1 -47.5q0 -336 88 -336q17 0 37.5 9t26.5 18h12q-3 -57 -32.5 -89t-70.5 -32q-45 0 -85 41.5t-58 120.5q-27 135 -27 409q0 396 46.5 899.5t93.5 665.5q4 8 22 8q47 0 72.5 -18t40.5 -64q-21 -101 -88 -675q79 192 174 192q72 0 111 -68t47 -180z" />
    <glyph glyph-name="ydieresis" unicode="&#xff;" horiz-adv-x="677" 
d="M748 279q10 -3 10 -17q0 -7 -5 -13.5t-12 -6.5q-40 -3 -109 -51t-69 -80v-25q1 -208 -33 -371.5t-93.5 -264t-135.5 -152.5t-164 -52q-108 0 -158.5 53t-50.5 144q0 121 80 274q34 64 88.5 128t117.5 117t115 90.5t105 70.5q0 141 -16 373q-32 -169 -117 -359
q-20 -47 -61.5 -95t-83.5 -48q-24 0 -47 20q-36 32 -52 154.5t-16 247.5q0 16 1 39.5t1 29.5q0 4 2 46.5t3 58.5t4 55.5t6.5 62.5t10.5 52.5t15 50.5q17 41 45.5 59.5t75.5 18.5q25 0 37 -2q16 -4 20 -4q-32 -66 -52 -207.5t-20 -276.5q0 -85 9 -143q16 -92 43 -92
q12 0 30 24q61 88 96 230t35 260v2q0 70 17 116.5t46 65.5t52 25t51 6h23q31 0 31 -12q0 -4 -9 -13q-51 -44 -51 -348q0 -67 2 -170t2 -125v-22q135 78 170 78q2 0 6 -1t5 -1zM436 72q-29 -17 -71.5 -52t-96 -87t-107 -125t-87.5 -148q-54 -117 -54 -219q0 -69 25 -110.5
t70 -41.5h6q46 -1 85.5 22t68 58t52.5 90.5t40 107t28.5 120.5t19 117.5t12 112.5t6.5 90t3 65zM281 1227q0 -35 -26.5 -61.5t-61.5 -26.5q-37 0 -63 26.5t-26 61.5q0 37 26 62.5t63 25.5q36 0 62 -26t26 -62zM573 1227q0 -36 -26 -62t-62 -26q-35 0 -61.5 26.5t-26.5 61.5
q0 36 26 62t62 26q37 0 62.5 -25.5t25.5 -62.5z" />
    <glyph glyph-name="Amacron" unicode="&#x100;" horiz-adv-x="1411" 
d="M1356 -29v-14q0 -43 -23.5 -67.5t-64.5 -24.5h-13q-91 7 -150 120t-89 298q-26 167 -29 327q-30 -107 -73 -206t-99.5 -186.5t-128 -146.5t-147.5 -73q-30 -6 -62 -6q-108 0 -186.5 76t-116 197t-37.5 270q0 9 1 28t1 29q6 83 25 172q-201 39 -201 209q0 60 29.5 113
t85.5 83q4 2 8 2q12 0 12 -12q0 -11 -10 -18q-30 -22 -45.5 -66t-15.5 -92q0 -131 155 -160q57 178 181 321t284 227t334 104q54 4 74 4q115 0 170 -44t55 -116q0 -71 -45 -150q-30 -51 -61 -88q-37 -280 -37 -538q0 -159 12 -262q13 -127 46.5 -229t84.5 -105h4
q16 -1 29 9.5t16 23.5q3 14 12 14q15 0 15 -23zM993 903l2 31q-141 -86 -320 -130.5t-351 -49.5q-19 -74 -25 -142q-4 -39 -4 -112q0 -93 13.5 -173t39.5 -142t68.5 -97t97.5 -35q9 0 33 4q65 13 127.5 75.5t112.5 158t90 201.5t69 221q7 28 23.5 93.5t23.5 96.5zM1001 989
q7 80 27 174q2 6 19.5 11.5t39.5 5.5q44 0 74 -21l8 17q33 68 33 120q0 65 -44 104.5t-132 39.5q-17 0 -53 -4q-111 -13 -214 -71t-182.5 -145t-140 -191t-96.5 -216q181 5 357 46.5t304 129.5zM1180 1651q-4 -13 -13.5 -25t-21.5 -12h-397q-11 0 -17 9.5t-6 21.5t2 18
q4 13 13.5 25t21.5 12h399q23 0 23 -29q0 -8 -4 -20z" />
    <glyph glyph-name="amacron" unicode="&#x101;" horiz-adv-x="757" 
d="M836 285v-9q-4 -59 -27.5 -122.5t-71 -113.5t-104.5 -50q-59 0 -101.5 40t-62.5 104t-28.5 122.5t-8.5 116.5q-28 -100 -62.5 -181t-83.5 -140t-98 -60h-2q-48 0 -81.5 47.5t-49 120t-16.5 164.5v20q-1 58 5.5 118.5t20.5 127.5t40 125t61 105t88 74.5t117 27.5
q39 0 70 -18t46 -50q33 37 99 37q28 0 59 -8q-24 -89 -45.5 -231.5t-21.5 -266.5v-8q0 -45 4 -94t13.5 -103t29.5 -88t47 -33h2q37 0 78 78q32 63 57 154q4 18 16 18q11 0 11 -24zM475 836q-23 26 -55 26q-44 0 -91 -43.5t-75 -103.5q-64 -137 -64 -353q0 -20 5 -88
q4 -58 21.5 -86t41.5 -28q74 0 150 293q16 61 32.5 190t34.5 193zM651 1163q-4 -13 -13.5 -25t-21.5 -12h-397q-22 0 -22 31q0 13 2 19q4 13 13 24.5t21 11.5h400q22 0 22 -28q0 -9 -4 -21z" />
    <glyph glyph-name="Abreve" unicode="&#x102;" horiz-adv-x="1411" 
d="M1356 -29v-14q0 -43 -23.5 -67.5t-64.5 -24.5h-13q-91 7 -150 120t-89 298q-26 167 -29 327q-30 -107 -73 -206t-99.5 -186.5t-128 -146.5t-147.5 -73q-30 -6 -62 -6q-108 0 -186.5 76t-116 197t-37.5 270q0 9 1 28t1 29q6 83 25 172q-201 39 -201 209q0 60 29.5 113
t85.5 83q4 2 8 2q12 0 12 -12q0 -11 -10 -18q-30 -22 -45.5 -66t-15.5 -92q0 -131 155 -160q57 178 181 321t284 227t334 104q54 4 74 4q115 0 170 -44t55 -116q0 -71 -45 -150q-30 -51 -61 -88q-37 -280 -37 -538q0 -159 12 -262q13 -127 46.5 -229t84.5 -105h4
q16 -1 29 9.5t16 23.5q3 14 12 14q15 0 15 -23zM993 903l2 31q-141 -86 -320 -130.5t-351 -49.5q-19 -74 -25 -142q-4 -39 -4 -112q0 -93 13.5 -173t39.5 -142t68.5 -97t97.5 -35q9 0 33 4q65 13 127.5 75.5t112.5 158t90 201.5t69 221q7 28 23.5 93.5t23.5 96.5zM1001 989
q7 80 27 174q2 6 19.5 11.5t39.5 5.5q44 0 74 -21l8 17q33 68 33 120q0 65 -44 104.5t-132 39.5q-17 0 -53 -4q-111 -13 -214 -71t-182.5 -145t-140 -191t-96.5 -216q181 5 357 46.5t304 129.5zM1217 1837v-2q-19 -79 -76.5 -140t-128 -90.5t-140.5 -29.5q-90 0 -147 48
t-57 140q0 41 11 63.5t30 22.5q13 0 26 -8.5t13 -21.5q0 -86 51 -135.5t129 -49.5t143 54t103 163q4 7 16 7q10 0 18.5 -5.5t8.5 -15.5z" />
    <glyph glyph-name="abreve" unicode="&#x103;" horiz-adv-x="757" 
d="M836 285v-9q-4 -59 -27.5 -122.5t-71 -113.5t-104.5 -50q-59 0 -101.5 40t-62.5 104t-28.5 122.5t-8.5 116.5q-28 -100 -62.5 -181t-83.5 -140t-98 -60h-2q-48 0 -81.5 47.5t-49 120t-16.5 164.5v20q-1 58 5.5 118.5t20.5 127.5t40 125t61 105t88 74.5t117 27.5
q39 0 70 -18t46 -50q33 37 99 37q28 0 59 -8q-24 -89 -45.5 -231.5t-21.5 -266.5v-8q0 -45 4 -94t13.5 -103t29.5 -88t47 -33h2q37 0 78 78q32 63 57 154q4 18 16 18q11 0 11 -24zM475 836q-23 26 -55 26q-44 0 -91 -43.5t-75 -103.5q-64 -137 -64 -353q0 -20 5 -88
q4 -58 21.5 -86t41.5 -28q74 0 150 293q16 61 32.5 190t34.5 193zM719 1346v-3q-19 -79 -76.5 -140t-127.5 -90.5t-140 -29.5q-90 0 -147.5 48.5t-57.5 140.5q0 41 11 63.5t30 22.5q13 0 26 -9t13 -22q0 -86 51 -135t129 -49t143 54t103 163q3 6 16 6q27 0 27 -20z" />
    <glyph glyph-name="Aogonek" unicode="&#x104;" horiz-adv-x="1411" 
d="M1413 -477q-87 -240 -215 -240q-55 0 -89 63t-34 160q0 51 8 95q23 136 105 288q-122 79 -172 394q-26 167 -29 327q-30 -107 -73 -206t-99.5 -186.5t-128 -146.5t-147.5 -73q-30 -6 -62 -6q-108 0 -186.5 76t-116 197t-37.5 270q0 9 1 28t1 29q6 83 25 172
q-201 39 -201 209q0 60 29.5 113t85.5 83q4 2 8 2q12 0 12 -12q0 -11 -10 -18q-30 -22 -45.5 -66t-15.5 -92q0 -131 155 -160q57 178 181 321t284 227t334 104q54 4 74 4q115 0 170 -44t55 -116q0 -71 -45 -150q-30 -51 -61 -88q-37 -280 -37 -538q0 -159 12 -262
q13 -127 46.5 -229t84.5 -105h4q16 -1 29 9.5t16 23.5q3 14 12 14q15 0 15 -23v-14q0 -43 -23.5 -67.5t-64.5 -24.5h-13q-21 3 -36 8q-37 -119 -37 -264q0 -86 20 -140.5t62 -54.5q69 0 118 117q12 31 27 31q8 0 8 -17q0 -12 -4 -22zM993 903l2 31q-141 -86 -320 -130.5
t-351 -49.5q-19 -74 -25 -142q-4 -39 -4 -112q0 -93 13.5 -173t39.5 -142t68.5 -97t97.5 -35q9 0 33 4q65 13 127.5 75.5t112.5 158t90 201.5t69 221q7 28 23.5 93.5t23.5 96.5zM1001 989q7 80 27 174q2 6 19.5 11.5t39.5 5.5q44 0 74 -21l8 17q33 68 33 120q0 65 -44 104.5
t-132 39.5q-17 0 -53 -4q-111 -13 -214 -71t-182.5 -145t-140 -191t-96.5 -216q181 5 357 46.5t304 129.5z" />
    <glyph glyph-name="aogonek" unicode="&#x105;" horiz-adv-x="757" 
d="M823 -401q-87 -240 -215 -240q-55 0 -89 63t-34 160q0 44 9 94q25 144 118 316q-36 4 -65.5 24.5t-48.5 53.5t-32.5 70.5t-20.5 81t-10 80t-3 71.5q-28 -100 -62.5 -181t-83.5 -140t-98 -60h-2q-48 0 -81.5 47.5t-49 120t-16.5 164.5v20q-1 58 5.5 118.5t20.5 127.5
t40 125t61 105t88 74.5t117 27.5q39 0 70 -18t46 -50q33 37 99 37q28 0 59 -8q-24 -89 -45.5 -231.5t-21.5 -266.5v-8q0 -45 4 -94t13.5 -103t29.5 -88t47 -33h2q37 0 78 78q32 63 57 154q4 18 16 18q11 0 11 -24v-9q-4 -58 -26.5 -119.5t-67 -111.5t-99.5 -55
q-23 -54 -37 -138t-14 -167q0 -86 20 -140.5t62 -54.5q70 0 119 117q12 31 26 31q8 0 8 -17q0 -12 -4 -22zM475 836q-23 26 -55 26q-44 0 -91 -43.5t-75 -103.5q-64 -137 -64 -353q0 -20 5 -88q4 -58 21.5 -86t41.5 -28q74 0 150 293q16 61 32.5 190t34.5 193z" />
    <glyph glyph-name="Cacute" unicode="&#x106;" horiz-adv-x="1325" 
d="M1331 532v-2q-11 -164 -125 -313q-91 -121 -234 -198.5t-298 -92.5q-50 -4 -74 -4q-101 0 -188 29t-157.5 88t-116.5 155.5t-60 223.5q-4 29 -4 88q0 136 41 274t118.5 258t179 213.5t231.5 148t267 54.5h31q58 -2 106 -16t89 -41.5t64.5 -75.5t23.5 -113
q0 -97 -60.5 -196t-155.5 -173.5t-217.5 -121.5t-240.5 -47q-6 0 -17.5 1t-17.5 1q-25 1 -37 18t-12 33q134 0 255.5 39.5t226 128.5t157.5 217q29 72 29 127q0 62 -38 100.5t-120 42.5h-14q-82 0 -179.5 -45t-191.5 -131t-171 -197t-124 -257t-45 -297v-19
q1 -118 30.5 -204.5t81 -135.5t115.5 -71.5t144 -22.5q41 0 61 2q132 13 269 98t231.5 206.5t111.5 238.5q2 10 11 10q8 0 16 -7t8 -14zM1118 1751l-356 -180q-1 0 -2 -1t-2 -1q-7 0 -14 5.5t-7 10.5q0 2 2 4l289 238q6 6 16 6q24 0 53 -25.5t29 -44.5q0 -9 -8 -12z" />
    <glyph glyph-name="cacute" unicode="&#x107;" horiz-adv-x="532" 
d="M598 213q-75 -252 -281 -252q-55 0 -99 18t-72.5 47.5t-48.5 71.5t-30 86.5t-14 96.5q-2 18 -2 59q0 72 10.5 144.5t37 147t65 132t100 93.5t137.5 36q58 0 97 -45.5t39 -106.5q0 -60 -20 -91.5t-50 -31.5q-49 0 -49 105q0 46 -14.5 78.5t-45.5 32.5q-36 0 -64 -39.5
t-43 -94.5t-24.5 -124t-12.5 -118.5t-3 -88.5v-9q0 -65 9 -119t29 -98.5t55 -69t83 -24.5q121 0 180 205q3 11 10 18t13 7q14 0 14 -29q0 -16 -6 -37zM559 1184l-356 -180q-1 0 -2 -1.5t-2 -1.5q-7 0 -14 6t-7 11q0 2 2 4l289 238q6 6 16 6q24 0 53 -25.5t29 -44.5
q0 -9 -8 -12z" />
    <glyph glyph-name="Ccaron" unicode="&#x10c;" horiz-adv-x="1325" 
d="M1331 532v-2q-11 -164 -125 -313q-91 -121 -234 -198.5t-298 -92.5q-50 -4 -74 -4q-101 0 -188 29t-157.5 88t-116.5 155.5t-60 223.5q-4 29 -4 88q0 136 41 274t118.5 258t179 213.5t231.5 148t267 54.5h31q58 -2 106 -16t89 -41.5t64.5 -75.5t23.5 -113
q0 -97 -60.5 -196t-155.5 -173.5t-217.5 -121.5t-240.5 -47q-6 0 -17.5 1t-17.5 1q-25 1 -37 18t-12 33q134 0 255.5 39.5t226 128.5t157.5 217q29 72 29 127q0 62 -38 100.5t-120 42.5h-14q-82 0 -179.5 -45t-191.5 -131t-171 -197t-124 -257t-45 -297v-19
q1 -118 30.5 -204.5t81 -135.5t115.5 -71.5t144 -22.5q41 0 61 2q132 13 269 98t231.5 206.5t111.5 238.5q2 10 11 10q8 0 16 -7t8 -14zM1083 1817q-238 -270 -247 -277h-15q-24 30 -69.5 87.5t-82.5 103.5t-71 86q-2 2 -2 4q0 10 45 10q56 0 70 -14l137 -156q27 26 86.5 77
t87.5 79q10 10 41 10q22 0 22 -6q0 -2 -2 -4z" />
    <glyph glyph-name="ccaron" unicode="&#x10d;" horiz-adv-x="532" 
d="M598 213q-75 -252 -281 -252q-55 0 -99 18t-72.5 47.5t-48.5 71.5t-30 86.5t-14 96.5q-2 18 -2 59q0 72 10.5 144.5t37 147t65 132t100 93.5t137.5 36q58 0 97 -45.5t39 -106.5q0 -60 -20 -91.5t-50 -31.5q-49 0 -49 105q0 46 -14.5 78.5t-45.5 32.5q-36 0 -64 -39.5
t-43 -94.5t-24.5 -124t-12.5 -118.5t-3 -88.5v-9q0 -65 9 -119t29 -98.5t55 -69t83 -24.5q121 0 180 205q3 11 10 18t13 7q14 0 14 -29q0 -16 -6 -37zM637 1313q-236 -268 -248 -277h-14q-24 30 -69.5 87.5t-82.5 103.5t-71 86q-2 2 -2 4q0 10 45 10q55 0 69 -14l137 -156
q27 26 86.5 77t87.5 79q10 10 41 10q23 0 23 -6q0 -2 -2 -4z" />
    <glyph glyph-name="Dcaron" unicode="&#x10e;" horiz-adv-x="1789" 
d="M1790 864q0 -141 -51.5 -274t-141.5 -238.5t-206 -185.5t-251.5 -123t-271.5 -43q-54 0 -87 24t-33 52q0 16 15 27.5t44 11.5q166 0 330 65t289 171t202.5 251.5t77.5 296.5q0 208 -178 322q-221 139 -578 139q-269 0 -524 -80q-133 -42 -224 -112t-91 -144
q0 -52 41.5 -83.5t107.5 -31.5q73 0 158 37.5t168 116.5q4 4 6 4q6 0 6 -10q0 -36 -37 -70q-69 -64 -156.5 -96.5t-173.5 -32.5q-48 0 -81 8q-69 15 -109.5 64.5t-40.5 113.5q0 78 51.5 145t130 113t185.5 82q271 91 551 91q380 0 622 -162q119 -79 184.5 -193.5
t65.5 -255.5zM889 1229v-10q-187 -544 -187 -912v-8q0 -89 1 -131t10.5 -111t29.5 -106h-6q-81 -2 -123 121q-34 106 -34 286q0 315 90 707q4 16 13.5 65.5t18.5 82.5t21 61q3 10 22 10q30 0 83 -16t61 -39zM1253 1841q-236 -267 -247 -276h-15q-202 251 -223 276q-2 2 -2 4
q0 10 45 10q56 0 70 -14l137 -155q27 26 86.5 76.5t87.5 78.5q10 10 41 10q22 0 22 -6q0 -2 -2 -4z" />
    <glyph glyph-name="dcaron" unicode="&#x10f;" horiz-adv-x="1081" 
d="M836 285v-11q-4 -45 -19 -92.5t-40 -91.5t-64.5 -72t-85.5 -28q-36 0 -65 16t-47.5 47t-31.5 68.5t-20 87.5t-9.5 97t-2.5 104q-21 -77 -48.5 -148t-61 -133t-73.5 -99t-80 -38q-72 -1 -106.5 92.5t-34.5 239.5q0 70 9.5 144.5t34 157.5t62 147.5t100 106.5t140.5 42
q46 0 76 -21q11 254 25 367q6 46 17.5 90t31.5 92.5t54 78.5t77 30q137 0 137 -187q0 -42 -8 -104q-18 -143 -82.5 -330.5t-134.5 -321.5q-6 -54 -6 -178q0 -379 90 -379q75 0 139 232q3 16 16 16q11 0 11 -22zM465 799l2 57q-12 6 -29 6q-43 0 -91 -43.5t-77 -103.5
q-35 -74 -53 -177t-18 -202q0 -44 2 -62q8 -114 57 -114q79 0 164 307q36 135 43 332zM735 1378q-3 29 -14 50.5t-25 21.5q-23 0 -45 -61q-16 -44 -42.5 -316t-26.5 -354v-12q64 142 109.5 309t45.5 303q0 41 -2 59zM1090 1343q0 -85 -33 -171t-88 -136q-15 -12 -25 -12
q-12 0 -12 14q0 11 6 17q80 102 80 190q0 4 -1 11t-1 10q-15 -6 -35 -6q-41 0 -69.5 28.5t-28.5 69.5t28.5 69.5t69.5 28.5q109 0 109 -113z" />
    <glyph glyph-name="Dcroat" unicode="&#x110;" horiz-adv-x="1789" 
d="M1790 864q0 -141 -51.5 -274t-141.5 -238.5t-206 -185.5t-251.5 -123t-271.5 -43q-54 0 -87 24t-33 52q0 16 15 27.5t44 11.5q166 0 330 65t289 171t202.5 251.5t77.5 296.5q0 208 -178 322q-221 139 -578 139q-269 0 -524 -80q-133 -42 -224 -112t-91 -144
q0 -52 41.5 -83.5t107.5 -31.5q73 0 158 37.5t168 116.5q4 4 6 4q6 0 6 -10q0 -36 -37 -70q-69 -64 -156.5 -96.5t-173.5 -32.5q-48 0 -81 8q-69 15 -109.5 64.5t-40.5 113.5q0 78 51.5 145t130 113t185.5 82q271 91 551 91q380 0 622 -162q119 -79 184.5 -193.5
t65.5 -255.5zM889 1229v-10q-144 -414 -176 -721h-129q16 270 86 567q4 16 13.5 65.5t18.5 82.5t21 61q3 10 22 10q30 0 83 -16t61 -39zM702 307v-8q0 -89 1 -131t10.5 -111t29.5 -106h-6q-81 -2 -123 121q-34 106 -34 286v54h125q-3 -52 -3 -105zM883 449q-4 -13 -13.5 -25
t-21.5 -12h-143q4 56 8 86h151q23 0 23 -29q0 -8 -4 -20zM465 498h119q-4 -58 -4 -86h-129q-23 0 -23 30q0 13 2 19q4 13 13.5 25t21.5 12z" />
    <glyph glyph-name="dcroat" unicode="&#x111;" horiz-adv-x="757" 
d="M825 1251q-16 -27 -30 -34q-23 -139 -84 -308.5t-125 -292.5q-6 -54 -6 -178q0 -379 90 -379q75 0 139 232q3 16 16 16q11 0 11 -22v-11q-4 -45 -19 -92.5t-40 -91.5t-64.5 -72t-85.5 -28q-36 0 -65 16t-47.5 47t-31.5 68.5t-20 87.5t-9.5 97t-2.5 104
q-21 -77 -48.5 -148t-61 -133t-73.5 -99t-80 -38q-72 -1 -106.5 92.5t-34.5 239.5q0 70 9.5 144.5t34 157.5t62 147.5t100 106.5t140.5 42q46 0 76 -21q7 198 18 313h-153q-27 0 -27 31q0 9 4 21q19 37 43 37h144q9 45 21.5 84.5t32.5 81t51.5 66t70.5 24.5q137 0 137 -187
q0 -23 -4 -69q22 -5 22 -31q0 -9 -4 -21zM465 799l2 57q-12 6 -29 6q-43 0 -91 -43.5t-77 -103.5q-35 -74 -53 -177t-18 -202q0 -44 2 -62q8 -114 57 -114q79 0 164 307q36 135 43 332zM582 719v-12q120 274 147 507h-106q-41 -365 -41 -495zM735 1378q-3 29 -14 50.5
t-25 21.5q-23 0 -45 -61q-7 -25 -16 -86h102v16q0 41 -2 59z" />
    <glyph glyph-name="Emacron" unicode="&#x112;" horiz-adv-x="1402" 
d="M1317 160q-100 -117 -302 -196t-425 -79q-291 0 -418 146q-63 73 -63 196q0 55 14 107q26 87 99 165.5t168 132t189 88.5t177 50q-50 9 -73 13t-67.5 16t-69 24.5t-52 35t-43.5 50.5q-130 4 -231 30.5t-159.5 67t-88 87t-29.5 94.5q0 72 58.5 121t156.5 49
q58 0 122.5 -26.5t102.5 -63.5q25 -25 25 -37q0 -10 -15 -10q-13 0 -22 6q-97 57 -207 57q-62 0 -100.5 -33.5t-38.5 -81.5q0 -35 23 -69.5t69.5 -66t128.5 -54.5t188 -29q-10 38 -10 74q0 103 51.5 186.5t134 134t178.5 77t193 26.5q146 0 236 -60.5t90 -146.5
q0 -58 -44.5 -113t-133 -104t-242.5 -80t-352 -35q84 -98 299 -98q100 0 221 23h8q55 3 55 -39q0 -33 -29.5 -70t-52.5 -37h-30q-87 0 -175.5 -11t-185 -38.5t-177.5 -69t-148.5 -107.5t-102.5 -149q-27 -67 -27 -116q0 -50 26.5 -86.5t73 -56.5t101.5 -29t121 -9
q149 0 301 37q141 35 263 103t179 135q48 57 48 102q0 49 -46.5 77t-121.5 28q-106 0 -228 -58t-221 -174q-19 -22 -31 -22q-10 0 -10 12q0 29 43 78q92 103 235 167t263 64h4q99 0 155 -56.5t56 -141.5q0 -110 -84 -207zM512 948h6q169 0 297.5 21.5t201 57.5t107.5 76.5
t35 84.5q0 60 -63 103.5t-160 43.5q-96 0 -194.5 -36.5t-171 -112.5t-72.5 -172q0 -38 14 -66zM1159 1653q-4 -13 -13.5 -25t-21.5 -12h-397q-22 0 -22 31q0 12 2 18q11 37 34 37h400q22 0 22 -29q0 -8 -4 -20z" />
    <glyph glyph-name="emacron" unicode="&#x113;" horiz-adv-x="538" 
d="M606 213q-75 -252 -278 -252q-128 0 -209 121q-55 81 -62 223v37q0 102 22 199t64.5 180t116 133.5t166.5 50.5h14q53 -1 82 -41.5t27 -91.5v-6q-3 -154 -101.5 -256t-232.5 -133v-10q0 -139 43.5 -228.5t136.5 -89.5q60 0 107 52t76 153q7 25 20 25q14 0 14 -27
q0 -15 -6 -39zM217 426v-2q94 24 155.5 115t63.5 196v10q2 42 -11.5 72.5t-41.5 30.5h-2q-43 1 -76.5 -52.5t-51 -132.5t-26 -137.5t-10.5 -99.5zM559 1145q-4 -13 -13.5 -25t-21.5 -12h-397q-11 0 -17 9.5t-6 21.5t2 18q4 13 13.5 25t21.5 12h400q22 0 22 -29q0 -8 -4 -20z
" />
    <glyph glyph-name="Edotaccent" unicode="&#x116;" horiz-adv-x="1402" 
d="M1317 160q-100 -117 -302 -196t-425 -79q-291 0 -418 146q-63 73 -63 196q0 55 14 107q26 87 99 165.5t168 132t189 88.5t177 50q-50 9 -73 13t-67.5 16t-69 24.5t-52 35t-43.5 50.5q-130 4 -231 30.5t-159.5 67t-88 87t-29.5 94.5q0 72 58.5 121t156.5 49
q58 0 122.5 -26.5t102.5 -63.5q25 -25 25 -37q0 -10 -15 -10q-13 0 -22 6q-97 57 -207 57q-62 0 -100.5 -33.5t-38.5 -81.5q0 -35 23 -69.5t69.5 -66t128.5 -54.5t188 -29q-10 38 -10 74q0 103 51.5 186.5t134 134t178.5 77t193 26.5q146 0 236 -60.5t90 -146.5
q0 -58 -44.5 -113t-133 -104t-242.5 -80t-352 -35q84 -98 299 -98q100 0 221 23h8q55 3 55 -39q0 -33 -29.5 -70t-52.5 -37h-30q-87 0 -175.5 -11t-185 -38.5t-177.5 -69t-148.5 -107.5t-102.5 -149q-27 -67 -27 -116q0 -50 26.5 -86.5t73 -56.5t101.5 -29t121 -9
q149 0 301 37q141 35 263 103t179 135q48 57 48 102q0 49 -46.5 77t-121.5 28q-106 0 -228 -58t-221 -174q-19 -22 -31 -22q-10 0 -10 12q0 29 43 78q92 103 235 167t263 64h4q99 0 155 -56.5t56 -141.5q0 -110 -84 -207zM512 948h6q169 0 297.5 21.5t201 57.5t107.5 76.5
t35 84.5q0 60 -63 103.5t-160 43.5q-96 0 -194.5 -36.5t-171 -112.5t-72.5 -172q0 -38 14 -66zM1024 1632q0 -41 -29 -69.5t-69 -28.5q-41 0 -70 28.5t-29 69.5q0 40 29 69.5t70 29.5q40 0 69 -29.5t29 -69.5z" />
    <glyph glyph-name="edotaccent" unicode="&#x117;" horiz-adv-x="538" 
d="M606 213q-75 -252 -278 -252q-128 0 -209 121q-55 81 -62 223v37q0 102 22 199t64.5 180t116 133.5t166.5 50.5h14q53 -1 82 -41.5t27 -91.5v-6q-3 -154 -101.5 -256t-232.5 -133v-10q0 -139 43.5 -228.5t136.5 -89.5q60 0 107 52t76 153q7 25 20 25q14 0 14 -27
q0 -15 -6 -39zM217 426v-2q94 24 155.5 115t63.5 196v10q2 42 -11.5 72.5t-41.5 30.5h-2q-43 1 -76.5 -52.5t-51 -132.5t-26 -137.5t-10.5 -99.5zM459 1239q0 -41 -29.5 -69.5t-69.5 -28.5q-41 0 -69.5 28.5t-28.5 69.5q0 40 28.5 69t69.5 29q40 0 69.5 -29t29.5 -69z" />
    <glyph glyph-name="Eogonek" unicode="&#x118;" horiz-adv-x="1402" 
d="M874 -444q-87 -240 -215 -240q-55 0 -88.5 63t-33.5 160q0 50 8 94q21 123 86 254q-7 0 -20.5 -1t-20.5 -1q-291 0 -418 146q-63 73 -63 196q0 55 14 107q26 87 99 165.5t168 132t189 88.5t177 50q-50 9 -73 13t-67.5 16t-69 24.5t-52 35t-43.5 50.5q-130 4 -231 30.5
t-159.5 67t-88 87t-29.5 94.5q0 72 58.5 121t156.5 49q58 0 122.5 -26.5t102.5 -63.5q25 -25 25 -37q0 -10 -15 -10q-13 0 -22 6q-97 57 -207 57q-62 0 -100.5 -33.5t-38.5 -81.5q0 -35 23 -69.5t69.5 -66t128.5 -54.5t188 -29q-10 38 -10 74q0 103 51.5 186.5t134 134
t178.5 77t193 26.5q146 0 236 -60.5t90 -146.5q0 -58 -44.5 -113t-133 -104t-242.5 -80t-352 -35q84 -98 299 -98q100 0 221 23h8q55 3 55 -39q0 -33 -29.5 -70t-52.5 -37h-30q-87 0 -175.5 -11t-185 -38.5t-177.5 -69t-148.5 -107.5t-102.5 -149q-27 -67 -27 -116
q0 -50 26.5 -86.5t73 -56.5t101.5 -29t121 -9q149 0 301 37q141 35 263 103t179 135q48 57 48 102q0 49 -46.5 77t-121.5 28q-106 0 -228 -58t-221 -174q-19 -22 -31 -22q-10 0 -10 12q0 29 43 78q92 103 235 167t263 64h4q99 0 155 -56.5t56 -141.5q0 -110 -84 -207
q-90 -104 -265.5 -180t-375.5 -91q-33 -119 -33 -247q0 -86 20 -140.5t62 -54.5q70 0 119 117q12 30 26 30q9 0 9 -16q0 -10 -5 -22zM512 948h6q169 0 297.5 21.5t201 57.5t107.5 76.5t35 84.5q0 60 -63 103.5t-160 43.5q-96 0 -194.5 -36.5t-171 -112.5t-72.5 -172
q0 -38 14 -66z" />
    <glyph glyph-name="eogonek" unicode="&#x119;" horiz-adv-x="538" 
d="M498 -436q-87 -240 -215 -240q-55 0 -89 63t-34 160q0 51 8 95q24 141 123 321q-103 17 -172 119q-55 81 -62 223v37q0 102 22 199t64.5 180t116 133.5t166.5 50.5h14q53 -1 82 -41.5t27 -91.5v-6q-3 -154 -101.5 -256t-232.5 -133v-10q0 -139 43.5 -228.5t136.5 -89.5
q60 0 107 52t76 153q7 25 20 25q14 0 14 -27q0 -15 -6 -39q-75 -252 -278 -252h-9q-23 -54 -38 -141t-15 -170q0 -86 20 -140.5t62 -54.5q70 0 119 117q12 31 27 31q8 0 8 -17q0 -12 -4 -22zM217 426v-2q94 24 155.5 115t63.5 196v10q2 42 -11.5 72.5t-41.5 30.5h-2
q-43 1 -76.5 -52.5t-51 -132.5t-26 -137.5t-10.5 -99.5z" />
    <glyph glyph-name="Ecaron" unicode="&#x11a;" horiz-adv-x="1402" 
d="M1317 160q-100 -117 -302 -196t-425 -79q-291 0 -418 146q-63 73 -63 196q0 55 14 107q26 87 99 165.5t168 132t189 88.5t177 50q-50 9 -73 13t-67.5 16t-69 24.5t-52 35t-43.5 50.5q-130 4 -231 30.5t-159.5 67t-88 87t-29.5 94.5q0 72 58.5 121t156.5 49
q58 0 122.5 -26.5t102.5 -63.5q25 -25 25 -37q0 -10 -15 -10q-13 0 -22 6q-97 57 -207 57q-62 0 -100.5 -33.5t-38.5 -81.5q0 -35 23 -69.5t69.5 -66t128.5 -54.5t188 -29q-10 38 -10 74q0 103 51.5 186.5t134 134t178.5 77t193 26.5q146 0 236 -60.5t90 -146.5
q0 -58 -44.5 -113t-133 -104t-242.5 -80t-352 -35q84 -98 299 -98q100 0 221 23h8q55 3 55 -39q0 -33 -29.5 -70t-52.5 -37h-30q-87 0 -175.5 -11t-185 -38.5t-177.5 -69t-148.5 -107.5t-102.5 -149q-27 -67 -27 -116q0 -50 26.5 -86.5t73 -56.5t101.5 -29t121 -9
q149 0 301 37q141 35 263 103t179 135q48 57 48 102q0 49 -46.5 77t-121.5 28q-106 0 -228 -58t-221 -174q-19 -22 -31 -22q-10 0 -10 12q0 29 43 78q92 103 235 167t263 64h4q99 0 155 -56.5t56 -141.5q0 -110 -84 -207zM512 948h6q169 0 297.5 21.5t201 57.5t107.5 76.5
t35 84.5q0 60 -63 103.5t-160 43.5q-96 0 -194.5 -36.5t-171 -112.5t-72.5 -172q0 -38 14 -66zM1139 1802q-234 -265 -248 -276h-14q-182 226 -224 276q-2 2 -2 4q0 11 45 11q55 0 70 -15l137 -155q27 26 86.5 76.5t87.5 78.5q10 10 41 10q23 0 23 -6q0 -2 -2 -4z" />
    <glyph glyph-name="ecaron" unicode="&#x11b;" horiz-adv-x="538" 
d="M606 213q-75 -252 -278 -252q-128 0 -209 121q-55 81 -62 223v37q0 102 22 199t64.5 180t116 133.5t166.5 50.5h14q53 -1 82 -41.5t27 -91.5v-6q-3 -154 -101.5 -256t-232.5 -133v-10q0 -139 43.5 -228.5t136.5 -89.5q60 0 107 52t76 153q7 25 20 25q14 0 14 -27
q0 -15 -6 -39zM217 426v-2q94 24 155.5 115t63.5 196v10q2 42 -11.5 72.5t-41.5 30.5h-2q-43 1 -76.5 -52.5t-51 -132.5t-26 -137.5t-10.5 -99.5zM629 1309q-236 -268 -248 -277h-14q-199 247 -224 277q-2 2 -2 4q0 10 45 10q56 0 70 -14l137 -156q27 26 86.5 77t87.5 79
q10 10 41 10q23 0 23 -6q0 -2 -2 -4z" />
    <glyph glyph-name="uni0122" unicode="&#x122;" horiz-adv-x="1423" 
d="M1423 367h-8q-35 0 -106.5 -46t-71.5 -75v-23q1 -171 -28.5 -314t-78 -236.5t-110.5 -158.5t-124 -93.5t-122 -28.5q-79 0 -129.5 49.5t-50.5 136.5q0 78 41 164q148 315 475 514q0 75 -14 348q-77 -174 -146 -280q-100 -152 -244 -245t-276 -93q-159 0 -242.5 121
t-83.5 313q0 96 25 209q-112 22 -176.5 76.5t-63.5 144.5q0 62 46.5 108t101.5 68q4 2 10 2q14 0 14 -10q0 -11 -16 -21q-27 -14 -50.5 -53.5t-23.5 -73.5q0 -63 48 -106.5t126 -67.5q35 124 96 239t146.5 214.5t201.5 172t247 101.5q97 19 159 19q52 0 95 -10t79.5 -32.5
t57 -64.5t20.5 -100q0 -85 -41.5 -167.5t-106.5 -146t-148 -117.5t-163 -88.5t-153 -53.5q-166 -43 -338 -46q-35 -140 -35 -260q0 -140 50 -224.5t149 -84.5q104 0 232.5 94t232.5 248q106 156 155 338q5 56 21.5 97.5t36.5 63.5t47 35t46 16t40 3h20q31 -3 31 -12
q0 -4 -8 -12q-23 -19 -38 -73t-21.5 -132t-9.5 -141.5t-3.5 -141.5t-1.5 -92q108 63 164 63q10 0 14 -2q15 -3 15 -20q0 -12 -11 -12zM311 670h19q143 0 295 41q57 15 126.5 49.5t139.5 85.5t127.5 110t94 129t36.5 136q0 76 -46.5 114.5t-123.5 38.5q-47 0 -119 -20
q-126 -38 -239 -147t-188.5 -245.5t-121.5 -291.5zM1104 201q-74 -44 -205 -175.5t-182 -254.5q-39 -91 -39 -168q0 -73 34 -115.5t87 -42.5q54 0 110 49t97 144q51 119 71 251t27 312zM522 -215q-13 -88 -49 -172t-70 -115q-8 -8 -20 -8q-18 0 -18 16q0 7 2 11
q26 58 61 178q-14 11 -31 20.5t-27 17t-20 21.5q-16 22 -16 53q0 41 27.5 72t80.5 31q39 0 60.5 -34t21.5 -75q0 -3 -1 -8t-1 -8z" />
    <glyph glyph-name="uni0123" unicode="&#x123;" horiz-adv-x="788" 
d="M834 279q10 -3 10 -15q0 -8 -5 -15t-12 -7q-40 -3 -109 -51t-69 -80v-33q1 -205 -32.5 -367t-93.5 -262t-136 -151.5t-164 -51.5q-108 0 -158.5 53t-50.5 144q0 117 80 274q33 64 87.5 128t118 117t115 90.5t105.5 70.5v14q2 81 -18 357l-17 -54q-113 -454 -268 -454
q-50 0 -85 32t-51 84.5t-22 100t-6 98.5q0 388 170 547q78 72 168 72q46 0 86 -19t66 -51q36 43 110 43h25q31 0 31 -12q0 -4 -9 -13q-51 -44 -51 -348q0 -67 2 -170t2 -125v-22q132 78 170 78q2 0 6 -1t5 -1zM522 72q-30 -17 -73 -52t-96 -87t-106 -125t-87 -148
q-56 -121 -56 -219q0 -69 26 -110.5t71 -41.5h6q45 -1 84.5 22t68 58.5t52.5 90.5t40 107t28.5 120t19.5 117.5t12 112t6.5 90.5t3.5 65zM528 831q-23 29 -63 29q-48 0 -89.5 -28t-68.5 -75t-48 -102.5t-32 -115.5t-16.5 -109t-5.5 -88q0 -182 65 -190h6q119 0 220 576
q1 6 1.5 8.5t1 6.5t1.5 7q8 48 28 81zM307 1143q13 88 49 172t70 115q8 8 20 8q8 0 13.5 -5t5.5 -12q0 -6 -2 -10q-29 -64 -62 -178q14 -11 31 -20.5t27 -17t20 -21.5q17 -24 17 -54q0 -41 -28 -71.5t-81 -30.5q-39 0 -60.5 33.5t-21.5 74.5q0 3 1 8.5t1 8.5z" />
    <glyph glyph-name="Imacron" unicode="&#x12a;" horiz-adv-x="976" 
d="M872 782q-31 -295 -122 -491q62 -10 104 -10q34 0 61 6q60 15 89 51q11 14 26 14q9 0 15 -5t6 -13v-4q-8 -44 -82.5 -73.5t-210.5 -29.5h-41q-146 -253 -379 -256h-12q-83 -1 -145 25.5t-98 68.5t-58 102t-29.5 116t-7.5 120q0 45 2 68q4 81 51 100q14 7 29 7
q31 0 71 -37q64 -61 204 -124.5t286 -101.5q37 119 71 322q35 206 35 422q0 127 -14 213q-10 60 -34 98.5t-64 38.5q-57 0 -94.5 -53t-52.5 -133t-15 -183q0 -163 35 -318.5t82 -201.5q12 -12 12 -20q0 -13 -21 -13q-22 0 -36 17q-70 75 -117 233.5t-47 321.5q0 83 13.5 154
t41.5 129.5t75.5 94t110.5 40.5h25q252 0 252 -437q0 -85 -17 -258zM92 406q8 -383 256 -383q168 0 256 219q-123 21 -266.5 69t-245.5 95zM874 1626q-11 -37 -34 -37h-398q-22 0 -22 31q0 12 2 18q4 13 13.5 25t21.5 12h399q23 0 23 -28q0 -6 -5 -21z" />
    <glyph glyph-name="imacron" unicode="&#x12b;" horiz-adv-x="354" 
d="M432 285v-9q-4 -59 -27.5 -122.5t-71 -113.5t-104.5 -50q-58 0 -98.5 38.5t-59.5 101.5t-26.5 120.5t-7.5 116.5v26q6 256 34 372q8 36 19 64q10 27 39 44.5t72 17.5q30 0 61 -8q-23 -83 -44.5 -230t-22.5 -276v-51q0 -51 2.5 -90.5t9 -84t22.5 -69t39 -23.5h2
q37 0 78 78q34 67 58 154q4 18 16 18q10 0 10 -24zM457 1200q-4 -13 -13.5 -25t-21.5 -12h-397q-11 0 -17 9.5t-6 21.5t2 18q4 13 13.5 25t21.5 12h399q23 0 23 -28q0 -9 -4 -21z" />
    <glyph glyph-name="Iogonek" unicode="&#x12e;" horiz-adv-x="976" 
d="M530 -440q-87 -240 -215 -240q-55 0 -88.5 63t-33.5 160q0 51 8 95q28 158 129 333h-4q-83 -1 -145 25.5t-98 68.5t-58 102t-29.5 116t-7.5 120q0 45 2 68q4 81 51 100q14 7 29 7q31 0 71 -37q64 -61 204 -124.5t286 -101.5q37 119 71 322q35 206 35 422q0 127 -14 213
q-10 60 -34 98.5t-64 38.5q-57 0 -94.5 -53t-52.5 -133t-15 -183q0 -163 35 -318.5t82 -201.5q12 -12 12 -20q0 -13 -21 -13q-22 0 -36 17q-70 75 -117 233.5t-47 321.5q0 83 13.5 154t41.5 129.5t75.5 94t110.5 40.5h25q252 0 252 -437q0 -85 -17 -258q-31 -295 -122 -491
q62 -10 104 -10q34 0 61 6q60 15 89 51q11 14 26 14q9 0 15 -5t6 -13v-4q-8 -44 -82.5 -73.5t-210.5 -29.5h-41q-137 -239 -359 -254q0 -1 -1 -3.5t-1 -4.5q-25 -53 -41 -143t-16 -176t20 -140.5t62 -54.5q70 0 119 117q12 31 26 31q9 0 9 -17q0 -10 -5 -22zM92 406
q8 -383 256 -383q168 0 256 219q-123 21 -266.5 69t-245.5 95z" />
    <glyph glyph-name="iogonek" unicode="&#x12f;" horiz-adv-x="354" 
d="M412 -401q-87 -240 -215 -240q-55 0 -89 63t-34 160q0 50 8 94q26 150 119 316q-45 9 -78 47.5t-51 99t-26.5 129t-8.5 148.5q0 126 17.5 244.5t39.5 160.5q33 68 115 68q26 0 53 -6q-78 -277 -78 -480q0 -43 1 -76t3.5 -76.5t8.5 -74.5t14.5 -59.5t23 -43t33.5 -14.5h2
q37 0 78 78q34 67 58 154q4 18 16 18q10 0 10 -24v-9q-4 -59 -27.5 -122t-70.5 -113t-103 -51q-23 -54 -37 -138t-14 -167q0 -86 20 -140.5t62 -54.5q70 0 119 117q12 31 27 31q8 0 8 -17q0 -12 -4 -22zM342 1135q0 -41 -28.5 -70t-69.5 -29q-40 0 -69.5 29t-29.5 70
q0 40 29.5 69t69.5 29q41 0 69.5 -29t28.5 -69z" />
    <glyph glyph-name="dotlessi" unicode="&#x131;" horiz-adv-x="354" 
d="M432 285v-9q-4 -59 -27.5 -122.5t-71 -113.5t-104.5 -50q-58 0 -98.5 38.5t-59.5 101.5t-26.5 120.5t-7.5 116.5v26q6 256 34 372q8 36 19 64q10 27 39 44.5t72 17.5q30 0 61 -8q-23 -83 -44.5 -230t-22.5 -276v-51q0 -51 2.5 -90.5t9 -84t22.5 -69t39 -23.5h2
q37 0 78 78q34 67 58 154q4 18 16 18q10 0 10 -24z" />
    <glyph glyph-name="uni0136" unicode="&#x136;" horiz-adv-x="1241" 
d="M1204 1362q-66 -15 -219.5 -99.5t-302.5 -193t-188 -174.5q-37 -63 -37 -125q0 -68 43 -147q89 -160 199.5 -287.5t226.5 -188.5q104 -57 166 -57q58 0 61 55v9q0 68 -90 204q-21 38 -21 50t11 12q23 0 59 -39q50 -53 82 -111q45 -80 45 -141q0 -73 -58 -110t-147 -37
q-129 0 -237 63q-140 80 -264 223.5t-181 292.5q-45 120 -45 189q0 61 30 117t99 118q136 122 387.5 268.5t358.5 147.5h6q55 0 55 -17q0 -16 -39 -22zM387 10v-4q-4 -78 -59 -102q-26 -13 -49 -13q-55 0 -97.5 53t-58.5 117q-39 147 -39 414q0 253 35 520.5t82 401.5
q2 8 22 8q53 0 81.5 -17t45.5 -59q-35 -135 -85 -426.5t-58 -531.5q0 -13 -1 -43t-1 -47q0 -306 96 -306q19 0 36 11.5t23 27.5q7 17 15 17q12 0 12 -21zM672 -258q-13 -88 -49 -172t-70 -115q-8 -8 -21 -8q-18 0 -18 16q0 7 2 11q29 64 62 178q-14 11 -31 20.5t-27 17
t-20 21.5q-17 24 -17 53q0 41 28 72t81 31q39 0 60.5 -34t21.5 -75q0 -3 -1 -8t-1 -8z" />
    <glyph glyph-name="uni0137" unicode="&#x137;" horiz-adv-x="684" 
d="M150 569q7 -136 10 -250q19 83 42 160.5t59.5 167.5t76.5 155t93.5 108.5t111.5 43.5q106 0 106 -120q0 -79 -86.5 -178t-177.5 -144q6 -41 26 -110t49.5 -145t69 -130t76.5 -53q42 0 76 71q28 62 53 146q7 18 17 18t10 -24v-9q-8 -108 -66 -196q-56 -87 -137 -90h-12
q-76 0 -122.5 43t-80.5 125q-31 73 -56 170.5t-30 150.5q0 2 1 4.5t1 3.5h-2q-78 -209 -104 -362q0 -4 -4 -8q-6 -50 -23 -74q-36 -51 -88 -51q2 7 3.5 23.5t2 34t2 49.5t2.5 55q4 106 4 168v22q0 225 -16 444q-8 90 -8 228q0 79 4.5 148t19 144t37 127.5t62.5 87t92 33.5
q133 0 133 -206q0 -184 -98 -482q-52 -152 -129 -299zM311 1288v23q-3 137 -49 137q-49 0 -78 -184q-20 -130 -29.5 -307t-9.5 -269q0 -27 2 -43q72 162 118 335.5t46 307.5zM426 -287q-13 -88 -49 -171.5t-70 -114.5q-9 -9 -20 -9q-8 0 -13.5 5t-5.5 12q0 6 2 10
q29 64 62 178q-14 10 -31 20t-27 18t-20 22q-16 22 -16 53q0 41 27.5 71.5t80.5 30.5q39 0 60.5 -33.5t21.5 -74.5q0 -3 -1 -8.5t-1 -8.5zM266 508q106 16 184 105t78 157q0 39 -34 39t-71 -34.5t-69 -90t-51.5 -95.5t-36.5 -81z" />
    <glyph glyph-name="Lacute" unicode="&#x139;" horiz-adv-x="1024" 
d="M1020 1077q0 159 -55.5 268t-157.5 109q-168 0 -264 -184q-37 -70 -59.5 -176t-32.5 -223t-17.5 -234t-23.5 -238t-43 -206q-23 -70 -50 -115q186 28 338 28q90 0 163 -10.5t133.5 -34t94 -65.5t33.5 -100q0 -63 -36.5 -102.5t-84.5 -39.5h-2q-11 0 -17.5 5t-6.5 10
q0 6 8 10l14 5q13 5 17.5 7.5t16 10.5t16.5 16.5t10 24t6 34.5v8q0 123 -199 123q-106 0 -270 -34t-301 -67.5t-180 -33.5q-3 0 -9 1t-8 1q-21 5 -30 45q-3 12 -3 27q0 54 21 63q81 30 186 49q41 59 58 160q10 64 10 164q0 61 -6 197.5t-6 207.5q0 174 33.5 310t123.5 237
q143 162 363 162q81 0 144.5 -36.5t102 -99.5t58.5 -142t20 -168q0 -105 -27.5 -206.5t-77 -185t-129 -135t-173.5 -51.5q-87 0 -149 60.5t-76 179.5q-2 12 -2 41q0 103 26 147q13 21 31 21q12 0 12 -17q0 -13 -6 -31q-16 -53 -16 -114q0 -62 15 -114.5t51.5 -89t90.5 -36.5
q56 0 112.5 37t103.5 104.5t76.5 176.5t29.5 239zM999 1778l-356 -181q-1 0 -2 -1t-2 -1q-7 0 -14 6t-7 11q0 1 3 4l288 237q7 7 17 7q24 0 53 -25.5t29 -44.5q0 -9 -9 -12z" />
    <glyph glyph-name="lacute" unicode="&#x13a;" horiz-adv-x="409" 
d="M184 627q86 173 142.5 360t56.5 326q0 137 -43 137q-40 0 -77 -169t-54.5 -332t-20.5 -244q0 -8 -4 -78zM483 262v-4q0 -26 -18 -82q-61 -184 -205 -184q-42 0 -76.5 18.5t-57 47.5t-38 68t-23 75.5t-10.5 74.5q-8 99 -8 250q0 460 68 754q10 44 26.5 87.5t41.5 89
t62.5 74t80.5 28.5q120 0 120 -140q0 -258 -108 -549q-49 -137 -156 -331q-2 -23 -2 -68q0 -408 125 -408q40 0 69 33.5t46 77.5q18 45 31 88q8 23 22 23q10 0 10 -23zM551 1819l-356 -181q-1 0 -2.5 -1t-2.5 -1q-7 0 -13.5 6t-6.5 11q0 2 2 4l289 237q7 7 16 7
q24 0 53 -25.5t29 -44.5q0 -9 -8 -12z" />
    <glyph glyph-name="uni013B" unicode="&#x13b;" horiz-adv-x="1024" 
d="M1020 1077q0 159 -55.5 268t-157.5 109q-168 0 -264 -184q-37 -70 -59.5 -176t-32.5 -223t-17.5 -234t-23.5 -238t-43 -206q-23 -70 -50 -115q186 28 338 28q90 0 163 -10.5t133.5 -34t94 -65.5t33.5 -100q0 -63 -36.5 -102.5t-84.5 -39.5h-2q-11 0 -17.5 5t-6.5 10
q0 6 8 10l14 5q13 5 17.5 7.5t16 10.5t16.5 16.5t10 24t6 34.5v8q0 123 -199 123q-106 0 -270 -34t-301 -67.5t-180 -33.5q-3 0 -9 1t-8 1q-21 5 -30 45q-3 12 -3 27q0 54 21 63q81 30 186 49q41 59 58 160q10 64 10 164q0 61 -6 197.5t-6 207.5q0 174 33.5 310t123.5 237
q143 162 363 162q81 0 144.5 -36.5t102 -99.5t58.5 -142t20 -168q0 -105 -27.5 -206.5t-77 -185t-129 -135t-173.5 -51.5q-87 0 -149 60.5t-76 179.5q-2 12 -2 41q0 103 26 147q13 21 31 21q12 0 12 -17q0 -13 -6 -31q-16 -53 -16 -114q0 -62 15 -114.5t51.5 -89t90.5 -36.5
q56 0 112.5 37t103.5 104.5t76.5 176.5t29.5 239zM672 -258q-13 -88 -49 -172t-70 -115q-8 -8 -21 -8q-18 0 -18 16q0 7 2 11q29 64 62 178q-14 11 -31 20.5t-27 17t-20 21.5q-17 24 -17 53q0 41 28 72t81 31q39 0 60.5 -34t21.5 -75q0 -3 -1 -8t-1 -8z" />
    <glyph glyph-name="uni013C" unicode="&#x13c;" horiz-adv-x="409" 
d="M184 627q86 173 142.5 360t56.5 326q0 137 -43 137q-40 0 -77 -169t-54.5 -332t-20.5 -244q0 -8 -4 -78zM483 262v-4q0 -26 -18 -82q-61 -184 -205 -184q-42 0 -76.5 18.5t-57 47.5t-38 68t-23 75.5t-10.5 74.5q-8 99 -8 250q0 460 68 754q10 44 26.5 87.5t41.5 89
t62.5 74t80.5 28.5q120 0 120 -140q0 -258 -108 -549q-49 -137 -156 -331q-2 -23 -2 -68q0 -408 125 -408q40 0 69 33.5t46 77.5q18 45 31 88q8 23 22 23q10 0 10 -23zM338 -258q-13 -88 -49 -172t-70 -115q-8 -8 -20 -8q-19 0 -19 16q0 7 2 11q29 64 62 178
q-14 11 -31 20.5t-27 17t-20 21.5q-16 22 -16 53q0 41 27.5 72t80.5 31q39 0 60.5 -34t21.5 -75q0 -3 -1 -8t-1 -8z" />
    <glyph glyph-name="Lcaron" unicode="&#x13d;" horiz-adv-x="1024" 
d="M1020 1077q0 159 -55.5 268t-157.5 109q-168 0 -264 -184q-37 -70 -59.5 -176t-32.5 -223t-17.5 -234t-23.5 -238t-43 -206q-23 -70 -50 -115q186 28 338 28q90 0 163 -10.5t133.5 -34t94 -65.5t33.5 -100q0 -63 -36.5 -102.5t-84.5 -39.5h-2q-11 0 -17.5 5t-6.5 10
q0 6 8 10l14 5q13 5 17.5 7.5t16 10.5t16.5 16.5t10 24t6 34.5v8q0 123 -199 123q-106 0 -270 -34t-301 -67.5t-180 -33.5q-3 0 -9 1t-8 1q-21 5 -30 45q-3 12 -3 27q0 54 21 63q81 30 186 49q41 59 58 160q10 64 10 164q0 61 -6 197.5t-6 207.5q0 174 33.5 310t123.5 237
q143 162 363 162q81 0 144.5 -36.5t102 -99.5t58.5 -142t20 -168q0 -105 -27.5 -206.5t-77 -185t-129 -135t-173.5 -51.5q-87 0 -149 60.5t-76 179.5q-2 12 -2 41q0 103 26 147q13 21 31 21q12 0 12 -17q0 -13 -6 -31q-16 -53 -16 -114q0 -62 15 -114.5t51.5 -89t90.5 -36.5
q56 0 112.5 37t103.5 104.5t76.5 176.5t29.5 239zM1358 1343q0 -85 -33 -171t-88 -136q-15 -12 -25 -12q-12 0 -12 14q0 11 6 17q80 102 80 190q0 4 -1 11t-1 10q-15 -6 -35 -6q-41 0 -69.5 28.5t-28.5 69.5t28.5 69.5t69.5 28.5q109 0 109 -113z" />
    <glyph glyph-name="lcaron" unicode="&#x13e;" horiz-adv-x="681" 
d="M717 1343q0 -85 -33 -171t-88 -136q-15 -12 -25 -12q-12 0 -12 14q0 11 6 17q80 102 80 190q0 4 -1 11t-1 10q-15 -6 -35 -6q-41 0 -69.5 28.5t-28.5 69.5t28.5 69.5t69.5 28.5q109 0 109 -113zM383 1313q0 137 -43 137q-35 0 -66 -113.5t-49.5 -266.5t-29 -275.5
t-11.5 -171.5q85 173 142 361.5t57 328.5zM514 297q-9 -50 -19.5 -88t-29.5 -83.5t-42.5 -75.5t-61 -50t-82.5 -20q-44 0 -80.5 20t-60.5 55.5t-41.5 76.5t-27.5 89.5t-15 88.5t-7 79q-2 47 -2 117v2q0 202 22 429t48 343q10 44 26.5 87.5t41.5 89t62.5 74t80.5 28.5
q125 0 125 -189q0 -193 -113 -500q-62 -165 -158 -333q0 -12 -1 -44.5t-1 -52.5q0 -385 133 -385q43 0 76 33q25 24 45.5 68t29.5 75.5t25 94.5q3 12 9.5 20t11.5 8q10 0 10 -24q0 -5 -4 -33z" />
    <glyph glyph-name="Lslash" unicode="&#x141;" horiz-adv-x="1024" 
d="M1020 1077q0 159 -55.5 268t-157.5 109q-168 0 -264 -184q-37 -70 -60 -182t-31 -213.5t-19 -245t-23 -230.5l143 43q6 2 14 2h4q7 -3 13 -14t6 -22q0 -5 -4 -17q-7 -20 -17 -26l-174 -52q-15 -79 -28 -120q-16 -50 -50 -117q177 30 338 30q90 0 163 -10.5t133.5 -34
t94 -65.5t33.5 -100q0 -63 -36.5 -102.5t-84.5 -39.5h-2q-11 0 -17.5 5t-6.5 10q0 6 8 10q2 1 14.5 5.5t18 7t16.5 10t16.5 16.5t10 24.5t4.5 34.5v8q0 123 -201 123q-105 0 -269 -34t-301.5 -67.5t-180.5 -33.5q-2 0 -7.5 1t-7.5 1q-21 5 -30 45q-3 12 -3 27q0 54 21 63
q65 24 186 49q45 62 58 160l8 64l-164 -47q-6 -3 -8 -3q-4 0 -10 3q-17 7 -17 30q0 11 4 23q5 19 21 22l178 54v20q0 61 -7 196.5t-7 206.5q0 174 33.5 310t123.5 237q143 162 363 162q65 0 119.5 -24t92.5 -66t64 -98.5t38.5 -121.5t12.5 -136q0 -105 -27.5 -207
t-78 -185.5t-129.5 -134.5t-174 -51q-87 0 -149 60.5t-76 179.5q-2 12 -2 41q0 100 26 147q13 21 31 21q12 0 12 -17q0 -13 -6 -31q-16 -53 -16 -114q0 -62 15 -114t52 -89t90 -37q56 0 112.5 37t103.5 104.5t76.5 176.5t29.5 239z" />
    <glyph glyph-name="lslash" unicode="&#x142;" horiz-adv-x="409" 
d="M184 627q86 173 142.5 360t56.5 326q0 137 -43 137q-40 0 -77 -169t-54.5 -332t-20.5 -244q0 -8 -4 -78zM483 262v-4q0 -26 -18 -82q-61 -184 -205 -184q-42 0 -76.5 18.5t-57 47.5t-38 68t-23 75.5t-10.5 74.5l-6 86l-115 -32q-4 -2 -8 -2q-6 0 -10 2q-16 6 -16 30
q0 11 4 23q5 21 20 23l123 36v84q0 460 68 754q10 44 26.5 87.5t41.5 89t62.5 74t80.5 28.5q120 0 120 -140q0 -258 -108 -549q-49 -137 -156 -331q-2 -18 -2 -58l178 56q6 2 15 2h4q7 -3 12.5 -14.5t5.5 -22.5q0 -5 -4 -17q-7 -21 -16 -26l-195 -58q12 -338 125 -338
q40 0 69 33.5t46 77.5q18 45 31 88q8 23 22 23q10 0 10 -23z" />
    <glyph glyph-name="Nacute" unicode="&#x143;" horiz-adv-x="1456" 
d="M1495 -8v-4q-8 -67 -53.5 -113.5t-122.5 -46.5q-135 0 -198.5 110t-63.5 306q0 188 55 446q1 7 15.5 64.5t26.5 112t23 131t11 135.5q0 187 -103 208q-30 5 -36 5q-71 0 -135 -56.5t-111 -149.5t-85 -199.5t-63.5 -219.5t-40 -196t-20.5 -142q-15 -141 -35 -401
q-3 -29 -39 -53.5t-74 -26.5h-6q-33 -2 -59.5 12t-26.5 35q39 215 56 481q16 256 16 375q0 478 -143 641q-51 57 -107 57q-50 0 -88.5 -46.5t-52.5 -135.5q-8 -58 -8 -94q0 -147 52.5 -316t129.5 -256q4 -4 4 -10t-12 -6q-18 0 -43.5 12.5t-46.5 36.5q-89 101 -139 240.5
t-50 277.5q0 199 98 303q60 66 152 66q62 0 122 -30.5t99 -78.5q93 -118 141 -295.5t48 -359.5q0 -36 -4 -106q53 226 135.5 400t181.5 251q112 84 211 84q111 0 181.5 -95t70.5 -249q0 -46 -6 -95q-15 -105 -66 -311t-65 -278q-31 -164 -31 -267q0 -260 153 -260
q44 0 75 28t44 73q6 20 21 20q12 0 12 -14zM1231 1737l-357 -181q-1 0 -2 -1t-2 -1q-7 0 -13.5 6t-6.5 11q0 2 2 4l289 237q7 7 16 7q24 0 53 -25.5t29 -44.5q0 -9 -8 -12z" />
    <glyph glyph-name="nacute" unicode="&#x144;" horiz-adv-x="706" 
d="M780 266v-8q0 -26 -18 -82q-62 -188 -207 -188q-104 0 -135 157q-14 71 -14 156q0 50 4 106t11 124.5t9 101.5q0 5 1 15t1 14q0 94 -39 94q-23 0 -59 -47q-59 -78 -108.5 -235.5t-49.5 -317.5q0 -72 12 -142q-43 -30 -77 -30q-68 0 -68 94q0 23 2 37q21 189 21 413
q0 197 -23 285q9 2 42.5 22.5t55.5 24.5q6 2 17 2q32 0 42.5 -32t10.5 -95q0 -101 -6 -174q34 104 106 207q3 5 19.5 30.5t23 33.5t22.5 27t27.5 26.5t30 14.5t37.5 7q98 0 98 -131q0 -13 -6 -94l-7 -68q-6 -67 -11.5 -149t-5.5 -152q0 -125 20 -192q16 -55 53 -55
q16 0 37 12q40 26 68 96q25 61 31 88q3 9 9.5 17t12.5 8q10 0 10 -21zM627 1208l-357 -180q-1 0 -2 -1t-2 -1q-7 0 -13.5 5.5t-6.5 10.5q0 3 2 5l289 237q6 6 16 6q24 0 53 -25t29 -44q0 -10 -8 -13z" />
    <glyph glyph-name="uni0145" unicode="&#x145;" horiz-adv-x="1456" 
d="M1495 -8v-4q-8 -67 -53.5 -113.5t-122.5 -46.5q-135 0 -198.5 110t-63.5 306q0 188 55 446q1 7 15.5 64.5t26.5 112t23 131t11 135.5q0 187 -103 208q-30 5 -36 5q-71 0 -135 -56.5t-111 -149.5t-85 -199.5t-63.5 -219.5t-40 -196t-20.5 -142q-15 -141 -35 -401
q-3 -29 -39 -53.5t-74 -26.5h-6q-33 -2 -59.5 12t-26.5 35q39 215 56 481q16 256 16 375q0 478 -143 641q-51 57 -107 57q-50 0 -88.5 -46.5t-52.5 -135.5q-8 -58 -8 -94q0 -147 52.5 -316t129.5 -256q4 -4 4 -10t-12 -6q-18 0 -43.5 12.5t-46.5 36.5q-89 101 -139 240.5
t-50 277.5q0 199 98 303q60 66 152 66q62 0 122 -30.5t99 -78.5q93 -118 141 -295.5t48 -359.5q0 -36 -4 -106q53 226 135.5 400t181.5 251q112 84 211 84q111 0 181.5 -95t70.5 -249q0 -46 -6 -95q-15 -105 -66 -311t-65 -278q-31 -164 -31 -267q0 -260 153 -260
q44 0 75 28t44 73q6 20 21 20q12 0 12 -14zM889 -287q-13 -88 -49 -171.5t-70 -114.5q-9 -9 -20 -9q-8 0 -13.5 5t-5.5 12q0 6 2 10q29 64 62 178q-14 10 -31 20t-27 18t-20 22q-17 24 -17 53q0 41 28 71.5t81 30.5q39 0 60.5 -33.5t21.5 -74.5q0 -3 -1 -8.5t-1 -8.5z" />
    <glyph glyph-name="uni0146" unicode="&#x146;" horiz-adv-x="706" 
d="M780 266v-8q0 -26 -18 -82q-62 -188 -207 -188q-104 0 -135 157q-14 71 -14 156q0 50 4 106t11 124.5t9 101.5q0 5 1 15t1 14q0 94 -39 94q-23 0 -59 -47q-59 -78 -108.5 -235.5t-49.5 -317.5q0 -72 12 -142q-43 -30 -77 -30q-68 0 -68 94q0 23 2 37q21 189 21 413
q0 197 -23 285q9 2 42.5 22.5t55.5 24.5q6 2 17 2q32 0 42.5 -32t10.5 -95q0 -101 -6 -174q34 104 106 207q3 5 19.5 30.5t23 33.5t22.5 27t27.5 26.5t30 14.5t37.5 7q98 0 98 -131q0 -13 -6 -94l-7 -68q-6 -67 -11.5 -149t-5.5 -152q0 -125 20 -192q16 -55 53 -55
q16 0 37 12q40 26 68 96q25 61 31 88q3 9 9.5 17t12.5 8q10 0 10 -21zM424 -287q-13 -88 -49 -171.5t-70 -114.5q-9 -9 -20 -9q-8 0 -13.5 5t-5.5 12q0 6 2 10q29 64 62 178q-14 10 -31 20t-27 18t-20 22q-16 22 -16 53q0 41 27.5 71.5t80.5 30.5q39 0 60.5 -33.5
t21.5 -74.5q0 -3 -1 -8.5t-1 -8.5z" />
    <glyph glyph-name="Ncaron" unicode="&#x147;" horiz-adv-x="1456" 
d="M1495 -8v-4q-8 -67 -53.5 -113.5t-122.5 -46.5q-135 0 -198.5 110t-63.5 306q0 188 55 446q1 7 15.5 64.5t26.5 112t23 131t11 135.5q0 187 -103 208q-30 5 -36 5q-71 0 -135 -56.5t-111 -149.5t-85 -199.5t-63.5 -219.5t-40 -196t-20.5 -142q-15 -141 -35 -401
q-3 -29 -39 -53.5t-74 -26.5h-6q-33 -2 -59.5 12t-26.5 35q39 215 56 481q16 256 16 375q0 478 -143 641q-51 57 -107 57q-50 0 -88.5 -46.5t-52.5 -135.5q-8 -58 -8 -94q0 -147 52.5 -316t129.5 -256q4 -4 4 -10t-12 -6q-18 0 -43.5 12.5t-46.5 36.5q-89 101 -139 240.5
t-50 277.5q0 199 98 303q60 66 152 66q62 0 122 -30.5t99 -78.5q93 -118 141 -295.5t48 -359.5q0 -36 -4 -106q53 226 135.5 400t181.5 251q112 84 211 84q111 0 181.5 -95t70.5 -249q0 -46 -6 -95q-15 -105 -66 -311t-65 -278q-31 -164 -31 -267q0 -260 153 -260
q44 0 75 28t44 73q6 20 21 20q12 0 12 -14zM1247 1788q-236 -268 -248 -277h-14q-24 30 -69.5 87.5t-82.5 103.5t-71 86q-2 2 -2 4q0 10 45 10q55 0 69 -14l138 -156q27 26 86.5 77t87.5 79q10 10 41 10q22 0 22 -6q0 -2 -2 -4z" />
    <glyph glyph-name="ncaron" unicode="&#x148;" horiz-adv-x="706" 
d="M780 266v-8q0 -26 -18 -82q-62 -188 -207 -188q-104 0 -135 157q-14 71 -14 156q0 50 4 106t11 124.5t9 101.5q0 5 1 15t1 14q0 94 -39 94q-23 0 -59 -47q-59 -78 -108.5 -235.5t-49.5 -317.5q0 -72 12 -142q-43 -30 -77 -30q-68 0 -68 94q0 23 2 37q21 189 21 413
q0 197 -23 285q9 2 42.5 22.5t55.5 24.5q6 2 17 2q32 0 42.5 -32t10.5 -95q0 -101 -6 -174q34 104 106 207q3 5 19.5 30.5t23 33.5t22.5 27t27.5 26.5t30 14.5t37.5 7q98 0 98 -131q0 -13 -6 -94l-7 -68q-6 -67 -11.5 -149t-5.5 -152q0 -125 20 -192q16 -55 53 -55
q16 0 37 12q40 26 68 96q25 61 31 88q3 9 9.5 17t12.5 8q10 0 10 -21zM598 1309q-236 -268 -248 -277h-14q-24 30 -69.5 87.5t-82.5 103.5t-71 86q-2 2 -2 4q0 10 45 10q55 0 69 -14l137 -156q27 26 87 77t88 79q10 10 41 10q22 0 22 -6q0 -2 -2 -4z" />
    <glyph glyph-name="Omacron" unicode="&#x14c;" horiz-adv-x="1366" 
d="M1335 1122q0 -96 -30 -176q61 -128 61 -297q0 -104 -24.5 -206.5t-76.5 -196.5t-125 -165.5t-178 -114t-227 -42.5q-127 0 -228 52t-163.5 141t-95 201.5t-33.5 240.5q-96 34 -151.5 97.5t-55.5 154.5q0 67 43 112t94 62q1 0 4.5 1t4.5 1q14 0 14 -16q0 -13 -14 -19
q-25 -11 -46.5 -50t-21.5 -77q0 -110 131 -186q11 152 64 293t142 256t226 184.5t301 69.5q189 0 287 -89t98 -231zM381 580q61 -15 111 -15q99 0 203 23.5t202 68t178 119t121 168.5q-80 170 -270 209q-8 3 -8 8t6 10t16 5h21q163 0 268 -115q6 37 6 76q0 66 -27.5 118
t-71 81t-90 44t-90.5 15q-123 0 -229 -72.5t-177.5 -190.5t-115 -261t-53.5 -291zM1237 819q-59 -78 -149 -138.5t-191 -96t-202 -53t-197 -17.5q-60 0 -119 6v-18q-1 -147 35 -264.5t117.5 -192t197.5 -74.5q107 0 205 66.5t165.5 171t107.5 233.5t40 254q0 58 -10 123z
M1145 1616q-4 -13 -13.5 -25t-21.5 -12h-397q-11 0 -17 9.5t-6 21.5t2 18q4 13 13.5 25t21.5 12h399q23 0 23 -29q0 -8 -4 -20z" />
    <glyph glyph-name="omacron" unicode="&#x14d;" horiz-adv-x="602" 
d="M500 317q18 77 18 187q0 219 -86 278q-24 16 -24 39q0 30 32 51q-21 15 -39 15q-35 0 -65.5 -41.5t-49 -100.5t-29 -105.5t-13.5 -74.5q-11 -85 -11 -170q0 -58 5 -107t17 -95.5t35.5 -73.5t57.5 -27q30 0 56.5 23.5t45 61.5t30.5 72t20 68zM551 291
q-14 -52 -37.5 -103.5t-57 -99.5t-79.5 -78t-96 -30q-53 0 -93.5 25t-65 64t-39.5 93.5t-20.5 107t-5.5 111.5q0 54 11 172q6 55 20 105t40 101t61 88t87.5 60t116.5 23q55 0 94.5 -28.5t60.5 -79t30.5 -108t9.5 -126.5q0 -161 -37 -297zM569 1204q-11 -37 -34 -37h-398
q-22 0 -22 31q0 13 2 19q4 13 13.5 24.5t21.5 11.5h399q22 0 22 -28q0 -9 -4 -21z" />
    <glyph glyph-name="Ohungarumlaut" unicode="&#x150;" horiz-adv-x="1366" 
d="M1335 1122q0 -96 -30 -176q61 -128 61 -297q0 -104 -24.5 -206.5t-76.5 -196.5t-125 -165.5t-178 -114t-227 -42.5q-127 0 -228 52t-163.5 141t-95 201.5t-33.5 240.5q-96 34 -151.5 97.5t-55.5 154.5q0 67 43 112t94 62q1 0 4.5 1t4.5 1q14 0 14 -16q0 -13 -14 -19
q-25 -11 -46.5 -50t-21.5 -77q0 -110 131 -186q11 152 64 293t142 256t226 184.5t301 69.5q189 0 287 -89t98 -231zM381 580q61 -15 111 -15q99 0 203 23.5t202 68t178 119t121 168.5q-80 170 -270 209q-8 3 -8 8t6 10t16 5h21q163 0 268 -115q6 37 6 76q0 66 -27.5 118
t-71 81t-90 44t-90.5 15q-123 0 -229 -72.5t-177.5 -190.5t-115 -261t-53.5 -291zM1237 819q-59 -78 -149 -138.5t-191 -96t-202 -53t-197 -17.5q-60 0 -119 6v-18q-1 -147 35 -264.5t117.5 -192t197.5 -74.5q107 0 205 66.5t165.5 171t107.5 233.5t40 254q0 58 -10 123z
M895 1841v-4l-141 -307q0 -8 -19 -8q-16 0 -16 8l29 309q1 11 23.5 18t51.5 7t50.5 -6.5t21.5 -16.5zM1157 1841v-4l-141 -307q0 -8 -19 -8q-16 0 -16 8l31 309q1 11 23 18t50 7q29 0 50.5 -6.5t21.5 -16.5z" />
    <glyph glyph-name="ohungarumlaut" unicode="&#x151;" horiz-adv-x="602" 
d="M551 291q-14 -52 -37.5 -103.5t-57 -99.5t-79.5 -78t-96 -30q-53 0 -93.5 25t-65 64t-39.5 93.5t-20.5 107t-5.5 111.5q0 54 11 172q6 55 20 105t40 101t61 88t87.5 60t116.5 23q55 0 94.5 -28.5t60.5 -79t30.5 -108t9.5 -126.5q0 -161 -37 -297zM500 317q18 77 18 187
q0 219 -86 278q-24 16 -24 39q0 30 32 51q-21 15 -39 15q-35 0 -65.5 -41.5t-49 -100.5t-29 -105.5t-13.5 -74.5q-11 -85 -11 -170q0 -58 5 -107t17 -95.5t35.5 -73.5t57.5 -27q30 0 56.5 23.5t45 61.5t30.5 72t20 68zM379 1413v-4l-141 -307q0 -8 -19 -8q-16 0 -16 8
l28 309q1 11 23.5 18t52.5 7q29 0 50.5 -6.5t21.5 -16.5zM641 1413v-4l-141 -307q0 -8 -19 -8q-16 0 -16 8l31 309q1 11 23 18t50 7q29 0 50.5 -6.5t21.5 -16.5z" />
    <glyph glyph-name="OE" unicode="&#x152;" horiz-adv-x="2390" 
d="M2292 160q-100 -117 -302 -196t-425 -79q-142 0 -246.5 65t-134.5 177q-174 -203 -449 -203q-127 0 -228 51.5t-164 140t-96 201t-34 240.5q-96 36 -150.5 99.5t-54.5 154.5q0 67 43 112t94 62q1 0 4.5 1t4.5 1q14 0 14 -16q0 -13 -14 -19q-25 -11 -46.5 -50t-21.5 -77
q0 -113 131 -186q8 120 42.5 234.5t97 218t146.5 181t199.5 123.5t247.5 46q189 0 287 -89t98 -231q0 -88 -30 -176q61 -131 61 -303q0 -37 -2 -55q80 71 178 119t189 63q-145 25 -203 52q-129 59 -129 202q0 103 51.5 186.5t134 134t178.5 77t193 26.5q146 0 234.5 -60.5
t88.5 -146.5q0 -92 -109.5 -175.5t-326.5 -125.5q-2 0 -6 -1t-6 -1q-13 0 -22 5t-9 13q0 15 29 21q154 30 230.5 87.5t76.5 121.5q0 61 -63.5 105t-161.5 44q-96 0 -194.5 -36.5t-171 -112.5t-72.5 -172q0 -88 84.5 -145.5t250.5 -57.5q101 0 222 23h8q55 3 55 -39
q0 -31 -31 -69t-53 -38h-22q-121 0 -238 -25.5t-231 -89t-183 -157.5q-31 -109 -88 -201q-2 -10 -2 -29q0 -47 21.5 -81.5t60 -53t84.5 -27t102 -8.5q123 0 275 37q141 35 263 103t179 135q49 58 49 104q0 47 -47 75t-123 28q-106 0 -227.5 -58t-220.5 -174q-19 -22 -31 -22
q-10 0 -10 12q0 29 43 78q91 103 234 167t264 64h4q99 0 155 -56.5t56 -141.5q0 -110 -84 -207zM1235 1137q0 66 -27.5 118t-71 81t-90 44t-90.5 15q-99 0 -188 -48t-155 -128.5t-116.5 -186t-79 -221t-36.5 -233.5q67 -13 111 -13q99 0 203 23.5t202 68t178 119t121 168.5
q-81 168 -270 209q-8 3 -8 8t6 10t16 5h18q166 0 271 -115q6 75 6 76zM1235 817q-77 -102 -208.5 -173t-265 -100.5t-263.5 -29.5q-62 0 -121 6v-16q-1 -109 20 -204t63 -169t111 -117t158 -43q107 0 204.5 66t164.5 170t107 233t40 254q0 74 -10 123z" />
    <glyph glyph-name="oe" unicode="&#x153;" horiz-adv-x="997" 
d="M1067 213q-75 -252 -279 -252q-127 0 -208 121q-39 57 -54 135q-41 -101 -103.5 -169t-141.5 -68q-53 0 -93.5 25t-65 64t-39.5 93.5t-20.5 107t-5.5 111.5q0 54 11 172q6 55 20 105t40 101t61 88t87.5 60t116.5 23q88 0 133.5 -69t57.5 -181q46 104 123 165t182 60h12
q53 -1 81 -41.5t26 -91.5v-6q-1 -80 -30.5 -148.5t-77.5 -116t-105.5 -79t-120.5 -45.5v-10q-1 -88 16 -157.5t59.5 -115t106.5 -45.5q121 0 180 205q6 22 21 22q16 0 16 -26q0 -16 -6 -37zM500 317q18 77 18 187q0 219 -86 278q-24 16 -24 39q0 30 32 51q-21 15 -39 15
q-35 0 -65.5 -41.5t-49 -100.5t-29 -105.5t-13.5 -74.5q-11 -85 -11 -170q0 -58 5 -107t17 -95.5t35.5 -73.5t57.5 -27q30 0 56.5 23.5t45 61.5t30.5 72t20 68zM897 735v10q0 42 -13.5 72.5t-41.5 30.5h-2q-43 1 -77 -53.5t-51.5 -130.5t-26.5 -139.5t-9 -98.5v-4
q94 25 155 116t66 197z" />
    <glyph glyph-name="Racute" unicode="&#x154;" horiz-adv-x="1458" 
d="M1456 1120q-1 -117 -90 -219t-228 -159.5t-288 -57.5q-50 0 -96 6q-9 1 -24.5 4t-18.5 4q27 -60 70.5 -131t103.5 -147t123.5 -137.5t136 -101.5t135.5 -40q52 0 77 21t25 71q0 71 -69 222q-2 2 -2 8t3.5 11t8.5 5q10 0 18 -14q31 -47 66 -141q35 -96 35 -166
q0 -84 -46.5 -129t-133.5 -45q-82 0 -176 56t-174.5 144.5t-148 189.5t-107 198.5t-40.5 164.5v4q0 41 25 45h10l2 -2h2q50 -18 115 -18q70 0 148 20t139 50q47 24 80.5 43t80 52.5t75 66t50 78t21.5 93.5q0 60 -43.5 101.5t-118 61.5t-148.5 28t-161 8q-106 0 -184 -8
q-61 -5 -150.5 -20t-204 -44.5t-210.5 -66.5t-162 -91.5t-66 -113.5q0 -52 41.5 -83.5t108.5 -31.5q73 0 157.5 37.5t167.5 116.5q4 4 6 4q6 0 6 -10q0 -13 -9.5 -33.5t-26.5 -36.5q-70 -64 -156.5 -96.5t-171.5 -32.5q-49 0 -82 8q-69 15 -109.5 64.5t-40.5 113.5
q0 69 42.5 129t109.5 102t161 76.5t185.5 56t194.5 36.5q106 16 248 16q100 0 194 -9.5t189.5 -33.5t166 -61t115 -98t43.5 -138zM717 1225q-150 -499 -178 -863q-9 -106 -9 -163q0 -232 84 -232q20 0 43 8t29 17h14q-6 -53 -39.5 -83t-78.5 -30q-51 0 -95.5 39t-60.5 111
q-25 122 -25 270q0 252 52 543.5t116 449.5q4 8 23 8h10q48 0 74 -16.5t41 -58.5zM1036 1751l-356 -180q-1 0 -2 -1t-2 -1q-7 0 -14 5.5t-7 10.5q0 2 2 4l289 238q6 6 17 6q24 0 52.5 -25.5t28.5 -44.5q0 -9 -8 -12z" />
    <glyph glyph-name="racute" unicode="&#x155;" horiz-adv-x="587" 
d="M666 287v-11q-15 -137 -78.5 -211.5t-155.5 -74.5q-176 0 -176 311q0 189 55 414q-93 5 -145 53q-12 -151 -44.5 -323t-70.5 -281q-9 -27 -26 -27q-15 0 -15 19q0 14 4 22q47 133 75 307t28 289v23q-48 20 -73.5 62t-25.5 85q0 68 45 74h5q37 0 69.5 -77t32.5 -128
q46 -35 104 -35q27 0 35 8q2 2 16 21t23.5 28t30.5 19t45 10q34 0 84 -20q-53 -113 -80 -252q-31 -181 -31 -305q0 -228 92 -228q87 0 150 232q4 18 16 18q11 0 11 -22zM539 1208l-357 -180q-1 0 -2 -1t-2 -1q-7 0 -13.5 5.5t-6.5 10.5q0 3 2 5l289 237q6 6 16 6
q24 0 53 -25t29 -44q0 -10 -8 -13z" />
    <glyph glyph-name="uni0156" unicode="&#x156;" horiz-adv-x="1458" 
d="M1456 1120q-1 -117 -90 -219t-228 -159.5t-288 -57.5q-50 0 -96 6q-9 1 -24.5 4t-18.5 4q27 -60 70.5 -131t103.5 -147t123.5 -137.5t136 -101.5t135.5 -40q52 0 77 21t25 71q0 71 -69 222q-2 2 -2 8t3.5 11t8.5 5q10 0 18 -14q31 -47 66 -141q35 -96 35 -166
q0 -84 -46.5 -129t-133.5 -45q-82 0 -176 56t-174.5 144.5t-148 189.5t-107 198.5t-40.5 164.5v4q0 41 25 45h10l2 -2h2q50 -18 115 -18q70 0 148 20t139 50q47 24 80.5 43t80 52.5t75 66t50 78t21.5 93.5q0 60 -43.5 101.5t-118 61.5t-148.5 28t-161 8q-106 0 -184 -8
q-61 -5 -150.5 -20t-204 -44.5t-210.5 -66.5t-162 -91.5t-66 -113.5q0 -52 41.5 -83.5t108.5 -31.5q73 0 157.5 37.5t167.5 116.5q4 4 6 4q6 0 6 -10q0 -13 -9.5 -33.5t-26.5 -36.5q-70 -64 -156.5 -96.5t-171.5 -32.5q-49 0 -82 8q-69 15 -109.5 64.5t-40.5 113.5
q0 69 42.5 129t109.5 102t161 76.5t185.5 56t194.5 36.5q106 16 248 16q100 0 194 -9.5t189.5 -33.5t166 -61t115 -98t43.5 -138zM717 1225q-150 -499 -178 -863q-9 -106 -9 -163q0 -232 84 -232q20 0 43 8t29 17h14q-6 -53 -39.5 -83t-78.5 -30q-51 0 -95.5 39t-60.5 111
q-25 122 -25 270q0 252 52 543.5t116 449.5q4 8 23 8h10q48 0 74 -16.5t41 -58.5zM889 -287q-13 -88 -49 -171.5t-70 -114.5q-9 -9 -20 -9q-8 0 -13.5 5t-5.5 12q0 6 2 10q29 64 62 178q-14 10 -31 20t-27 18t-20 22q-17 24 -17 53q0 41 28 71.5t81 30.5q39 0 60.5 -33.5
t21.5 -74.5q0 -3 -1 -8.5t-1 -8.5z" />
    <glyph glyph-name="uni0157" unicode="&#x157;" horiz-adv-x="587" 
d="M666 287v-11q-15 -137 -78.5 -211.5t-155.5 -74.5q-176 0 -176 311q0 189 55 414q-93 5 -145 53q-12 -151 -44.5 -323t-70.5 -281q-9 -27 -26 -27q-15 0 -15 19q0 14 4 22q47 133 75 307t28 289v23q-48 20 -73.5 62t-25.5 85q0 68 45 74h5q37 0 69.5 -77t32.5 -128
q46 -35 104 -35q27 0 35 8q2 2 16 21t23.5 28t30.5 19t45 10q34 0 84 -20q-53 -113 -80 -252q-31 -181 -31 -305q0 -228 92 -228q87 0 150 232q4 18 16 18q11 0 11 -22zM408 -287q-13 -88 -49 -171.5t-70 -114.5q-9 -9 -21 -9q-18 0 -18 17q0 6 2 10q26 58 61 178
q-14 10 -30.5 20.5t-26.5 18t-20 21.5q-17 24 -17 53q0 41 28 71.5t81 30.5q39 0 60.5 -33.5t21.5 -74.5q0 -3 -1 -8.5t-1 -8.5z" />
    <glyph glyph-name="Rcaron" unicode="&#x158;" horiz-adv-x="1458" 
d="M1456 1120q-1 -117 -90 -219t-228 -159.5t-288 -57.5q-50 0 -96 6q-9 1 -24.5 4t-18.5 4q27 -60 70.5 -131t103.5 -147t123.5 -137.5t136 -101.5t135.5 -40q52 0 77 21t25 71q0 71 -69 222q-2 2 -2 8t3.5 11t8.5 5q10 0 18 -14q31 -47 66 -141q35 -96 35 -166
q0 -84 -46.5 -129t-133.5 -45q-82 0 -176 56t-174.5 144.5t-148 189.5t-107 198.5t-40.5 164.5v4q0 41 25 45h10l2 -2h2q50 -18 115 -18q70 0 148 20t139 50q47 24 80.5 43t80 52.5t75 66t50 78t21.5 93.5q0 60 -43.5 101.5t-118 61.5t-148.5 28t-161 8q-106 0 -184 -8
q-61 -5 -150.5 -20t-204 -44.5t-210.5 -66.5t-162 -91.5t-66 -113.5q0 -52 41.5 -83.5t108.5 -31.5q73 0 157.5 37.5t167.5 116.5q4 4 6 4q6 0 6 -10q0 -13 -9.5 -33.5t-26.5 -36.5q-70 -64 -156.5 -96.5t-171.5 -32.5q-49 0 -82 8q-69 15 -109.5 64.5t-40.5 113.5
q0 69 42.5 129t109.5 102t161 76.5t185.5 56t194.5 36.5q106 16 248 16q100 0 194 -9.5t189.5 -33.5t166 -61t115 -98t43.5 -138zM717 1225q-150 -499 -178 -863q-9 -106 -9 -163q0 -232 84 -232q20 0 43 8t29 17h14q-6 -53 -39.5 -83t-78.5 -30q-51 0 -95.5 39t-60.5 111
q-25 122 -25 270q0 252 52 543.5t116 449.5q4 8 23 8h10q48 0 74 -16.5t41 -58.5zM1036 1819q-236 -268 -248 -277h-14q-24 30 -69.5 87.5t-82.5 103.5t-71 86q-2 2 -2 4q0 10 45 10q56 0 70 -14l137 -156q27 26 86.5 77t87.5 79q10 10 41 10q22 0 22 -6q0 -2 -2 -4z" />
    <glyph glyph-name="rcaron" unicode="&#x159;" horiz-adv-x="587" 
d="M666 287v-11q-15 -137 -78.5 -211.5t-155.5 -74.5q-176 0 -176 311q0 189 55 414q-93 5 -145 53q-12 -151 -44.5 -323t-70.5 -281q-9 -27 -26 -27q-15 0 -15 19q0 14 4 22q47 133 75 307t28 289v23q-48 20 -73.5 62t-25.5 85q0 68 45 74h5q37 0 69.5 -77t32.5 -128
q46 -35 104 -35q27 0 35 8q2 2 16 21t23.5 28t30.5 19t45 10q34 0 84 -20q-53 -113 -80 -252q-31 -181 -31 -305q0 -228 92 -228q87 0 150 232q4 18 16 18q11 0 11 -22zM539 1325q-234 -265 -248 -276h-15q-202 251 -223 276q-2 2 -2 4q0 10 45 10q56 0 70 -14l137 -156
q27 26 86.5 77t87.5 79q10 10 41 10q23 0 23 -6q0 -2 -2 -4z" />
    <glyph glyph-name="Sacute" unicode="&#x15a;" horiz-adv-x="1259" 
d="M1229 319q-25 -103 -106.5 -183.5t-192.5 -126t-226.5 -68.5t-226.5 -23q-78 0 -127 8q-156 25 -231.5 81t-75.5 130q0 61 49.5 125t130 115t195 83.5t233.5 31.5q32 0 72.5 -5.5t52.5 -11.5t12 -16q0 -15 -24 -15h-12q-51 7 -88 7q-95 0 -187 -29t-157 -73.5
t-104.5 -99.5t-39.5 -106q0 -61 54 -104.5t169 -61.5q62 -8 95 -8q108 0 215 38t184.5 96.5t125.5 131.5t48 140q0 107 -119 168q-63 31 -158.5 61.5t-172.5 51t-162 56t-138 79.5q-81 67 -81 174q0 119 98 225q103 108 260.5 165.5t316.5 55.5h9q184 -1 278 -58.5
t94 -140.5q0 -100 -122 -181.5t-310 -80.5h-8q-11 0 -21 10.5t-10 20.5t10 10q86 0 169.5 41.5t133.5 101.5t50 115q0 51 -51.5 84.5t-159.5 34.5h-6q-127 1 -263.5 -54.5t-226.5 -142.5t-90 -170q0 -85 96 -143q48 -30 130.5 -57.5t162.5 -46t166 -48.5t150 -64.5
t105.5 -95t41.5 -138.5q0 -50 -10 -89zM1077 1698l-356 -180q-1 0 -2 -1t-2 -1q-7 0 -14 5.5t-7 10.5q0 2 2 4l289 238q6 6 17 6q24 0 52.5 -25.5t28.5 -44.5q0 -9 -8 -12z" />
    <glyph glyph-name="sacute" unicode="&#x15b;" horiz-adv-x="645" 
d="M723 244q-23 -46 -82 -74t-139 -33q-71 -160 -250 -160q-217 0 -217 201q0 28 4 51q-12 21 -12 62q0 61 32 61h2q7 0 17 -14q15 42 90 301q12 42 18 63.5t21 62t29 65.5t37 53t49 45q54 35 114 35q3 0 10.5 -1t10.5 -1q16 -3 16 -15q0 -14 -14 -14q-43 -3 -43 -113
q0 -31 2 -45q7 -60 61.5 -223t55.5 -238v-10q0 -62 -17 -117q61 3 107 21q48 20 75 65q4 7 11 7q6 0 11 -6t5 -15q0 -6 -4 -14zM350 209q8 41 8 96q0 65 -14 158q-7 47 -21.5 114.5t-23 117t-8.5 87.5q0 33 6 60q-23 -2 -68 -170q-60 -214 -114 -365q42 -27 110 -55
q67 -31 125 -43zM551 1272l-356 -180q-1 0 -2.5 -1t-2.5 -1q-7 0 -13.5 5.5t-6.5 10.5q0 2 2 4l289 238q6 6 16 6q24 0 53 -25.5t29 -44.5q0 -9 -8 -12zM334 143q-167 13 -250 54q0 -4 -1 -12t-1 -11q0 -60 31.5 -94.5t83.5 -34.5h8q40 3 75.5 26.5t51.5 65.5q0 1 1 3t1 3z
" />
    <glyph glyph-name="Scedilla" unicode="&#x15e;" horiz-adv-x="1259" 
d="M1229 319q-25 -103 -106.5 -183.5t-192.5 -126t-226.5 -68.5t-226.5 -23q-78 0 -127 8q-156 25 -231.5 81t-75.5 130q0 61 49.5 125t130 115t195 83.5t233.5 31.5q32 0 72.5 -5.5t52.5 -11.5t12 -16q0 -15 -24 -15h-12q-51 7 -88 7q-95 0 -187 -29t-157 -73.5
t-104.5 -99.5t-39.5 -106q0 -61 54 -104.5t169 -61.5q62 -8 95 -8q108 0 215 38t184.5 96.5t125.5 131.5t48 140q0 107 -119 168q-63 31 -158.5 61.5t-172.5 51t-162 56t-138 79.5q-81 67 -81 174q0 119 98 225q103 108 260.5 165.5t316.5 55.5h9q184 -1 278 -58.5
t94 -140.5q0 -100 -122 -181.5t-310 -80.5h-8q-11 0 -21 10.5t-10 20.5t10 10q86 0 169.5 41.5t133.5 101.5t50 115q0 51 -51.5 84.5t-159.5 34.5h-6q-127 1 -263.5 -54.5t-226.5 -142.5t-90 -170q0 -85 96 -143q48 -30 130.5 -57.5t162.5 -46t166 -48.5t150 -64.5
t105.5 -95t41.5 -138.5q0 -50 -10 -89zM750 -303q-13 -88 -49 -172t-70 -115q-8 -8 -21 -8q-18 0 -18 16q0 7 2 11q26 58 61 178q-14 10 -30.5 20t-26.5 17.5t-20 21.5q-17 24 -17 53q0 41 28 72t81 31q39 0 60.5 -34t21.5 -75q0 -3 -1 -8t-1 -8z" />
    <glyph glyph-name="scedilla" unicode="&#x15f;" horiz-adv-x="645" 
d="M723 244q-23 -46 -82 -74t-139 -33q-71 -160 -250 -160q-217 0 -217 201q0 28 4 51q-12 21 -12 62q0 61 32 61h2q7 0 17 -14q15 42 90 301q12 42 18 63.5t21 62t29 65.5t37 53t49 45q54 35 114 35q3 0 10.5 -1t10.5 -1q16 -3 16 -15q0 -14 -14 -14q-43 -3 -43 -113
q0 -31 2 -45q7 -60 61.5 -223t55.5 -238v-10q0 -62 -17 -117q61 3 107 21q48 20 75 65q4 7 11 7q6 0 11 -6t5 -15q0 -6 -4 -14zM350 209q8 41 8 96q0 65 -14 158q-7 47 -21.5 114.5t-23 117t-8.5 87.5q0 33 6 60q-23 -2 -68 -170q-60 -214 -114 -365q42 -27 110 -55
q67 -31 125 -43zM393 -303q-13 -88 -49 -172t-70 -115q-8 -8 -20 -8q-18 0 -18 16q0 7 2 11q26 58 61 178q-14 11 -31 20.5t-27 17t-20 21.5q-16 22 -16 53q0 41 27.5 72t80.5 31q39 0 60.5 -34t21.5 -75q0 -3 -1 -8t-1 -8zM334 143q-167 13 -250 54q0 -4 -1 -12t-1 -11
q0 -60 31.5 -94.5t83.5 -34.5h8q40 3 75.5 26.5t51.5 65.5q0 1 1 3t1 3z" />
    <glyph glyph-name="Scaron" unicode="&#x160;" horiz-adv-x="1259" 
d="M1071 1675q-224 -251 -240 -268q54 4 80 4h9q184 -1 278 -58.5t94 -140.5q0 -100 -122 -181.5t-310 -80.5h-8q-11 0 -21 10.5t-10 20.5t10 10q86 0 169.5 41.5t133.5 101.5t50 115q0 51 -51.5 84.5t-159.5 34.5h-6q-127 1 -263.5 -54.5t-226.5 -142.5t-90 -170
q0 -85 96 -143q48 -30 130.5 -57.5t162.5 -46t166 -48.5t150 -64.5t105.5 -95t41.5 -138.5q0 -50 -10 -89q-25 -103 -106.5 -183.5t-192.5 -126t-226.5 -68.5t-226.5 -23q-78 0 -127 8q-156 25 -231.5 81t-75.5 130q0 61 49.5 125t130 115t195 83.5t233.5 31.5
q32 0 72.5 -5.5t52.5 -11.5t12 -16q0 -15 -24 -15h-12q-51 7 -88 7q-95 0 -187 -29t-157 -73.5t-104.5 -99.5t-39.5 -106q0 -61 54 -104.5t169 -61.5q62 -8 95 -8q108 0 215 38t184.5 96.5t125.5 131.5t48 140q0 107 -119 168q-63 31 -158.5 61.5t-172.5 51t-162 56
t-138 79.5q-81 67 -81 174q0 119 98 225q86 89 211 144t260 71q-29 36 -103.5 128.5t-115.5 141.5q-2 2 -2 4q0 11 45 11q54 0 69 -15l138 -155q27 26 86.5 76.5t87.5 78.5q11 11 41 11q22 0 22 -7q0 -2 -2 -4z" />
    <glyph glyph-name="scaron" unicode="&#x161;" horiz-adv-x="645" 
d="M723 244q-23 -46 -82 -74t-139 -33q-71 -160 -250 -160q-217 0 -217 201q0 28 4 51q-12 21 -12 62q0 61 32 61h2q7 0 17 -14q15 42 90 301q12 42 18 63.5t21 62t29 65.5t37 53t49 45q54 35 114 35q3 0 10.5 -1t10.5 -1q16 -3 16 -15q0 -14 -14 -14q-43 -3 -43 -113
q0 -31 2 -45q7 -60 61.5 -223t55.5 -238v-10q0 -62 -17 -117q61 3 107 21q48 20 75 65q4 7 11 7q6 0 11 -6t5 -15q0 -6 -4 -14zM350 209q8 41 8 96q0 65 -14 158q-7 47 -21.5 114.5t-23 117t-8.5 87.5q0 33 6 60q-23 -2 -68 -170q-60 -214 -114 -365q42 -27 110 -55
q67 -31 125 -43zM573 1309q-238 -270 -247 -277h-15q-24 30 -69.5 87.5t-82.5 103.5t-71 86q-2 2 -2 4q0 10 45 10q56 0 70 -14l137 -156q27 26 86.5 77t87.5 79q10 10 41 10q22 0 22 -6q0 -2 -2 -4zM334 143q-167 13 -250 54q0 -4 -1 -12t-1 -11q0 -60 31.5 -94.5
t83.5 -34.5h8q40 3 75.5 26.5t51.5 65.5q0 1 1 3t1 3z" />
    <glyph glyph-name="uni0162" unicode="&#x162;" horiz-adv-x="1398" 
d="M2204 1384q0 -63 -52 -112.5t-131.5 -75t-167.5 -25.5q-262 0 -628 46q-107 -496 -119 -846q0 -13 -1 -43t-1 -47q0 -306 96 -306q20 0 43 8t29 17h14q-4 -53 -37 -83t-78 -30q-51 0 -96.5 39t-64.5 111q-37 140 -37 387q0 202 23.5 423.5t60.5 389.5q-258 27 -340 33
q-70 4 -101 4q-187 0 -324 -47t-190 -123q-26 -39 -26 -82q0 -68 60.5 -122t168.5 -71q101 -14 201 -14q101 0 141 8q6 2 19 2q12 0 21 -3.5t9 -8.5q0 -13 -41 -27q-121 -41 -264 -41q-58 0 -109.5 8t-100.5 29t-84 52.5t-56 82t-21 115.5t26.5 118t69 88.5t103 62t120 41
t130 23t122.5 11t107 2.5q168 0 383 -32h2l17 51q2 8 22 8q53 0 81.5 -17t45.5 -59l-4 -12q349 -66 535 -66q44 0 95.5 5t123.5 18t119 45.5t47 79.5q0 25 -13 41q-4 4 -4 12q0 10 13 10q14 0 22 -14q21 -35 21 -64zM1253 -342q-13 -89 -48.5 -172.5t-69.5 -114.5
q-8 -8 -21 -8q-18 0 -18 16q0 7 2 11q26 58 61 178q-14 11 -31 20.5t-27 17t-20 21.5q-16 22 -16 54q0 41 28 71.5t81 30.5q39 0 60 -34t21 -75q0 -3 -1 -8t-1 -8z" />
    <glyph glyph-name="uni0163" unicode="&#x163;" horiz-adv-x="368" 
d="M444 285v-9q-4 -59 -27.5 -122.5t-70.5 -113.5t-104 -50q-47 0 -83 26.5t-56 65.5t-33 92t-17 97.5t-4 90.5v31q13 297 23 436h-64q-16 0 -16 21q0 11 7 22t17 11h60q17 220 43 284q10 25 38 41.5t70 16.5q18 0 58 -8q-24 -82 -47 -334h163q19 0 19 -23q0 -12 -7 -21.5
t-18 -9.5h-164q-21 -223 -24 -452v-47q0 -51 2 -90.5t9 -85t23 -71t40 -24.5h2q36 0 77 78q27 53 58 154q7 18 16 18q10 0 10 -24zM307 -274q-13 -88 -49 -172t-70 -115q-8 -8 -20 -8q-18 0 -18 16q0 6 2 10q26 58 61 178q-14 10 -31 20t-27 18t-20 22q-16 22 -16 53
q0 41 27.5 71.5t80.5 30.5q39 0 60.5 -33.5t21.5 -74.5q0 -3 -1 -8t-1 -8z" />
    <glyph glyph-name="Tcaron" unicode="&#x164;" horiz-adv-x="1398" 
d="M2204 1384q0 -63 -52 -112.5t-131.5 -75t-167.5 -25.5q-262 0 -628 46q-107 -496 -119 -846q0 -13 -1 -43t-1 -47q0 -306 96 -306q20 0 43 8t29 17h14q-4 -53 -37 -83t-78 -30q-51 0 -96.5 39t-64.5 111q-37 140 -37 387q0 202 23.5 423.5t60.5 389.5q-258 27 -340 33
q-70 4 -101 4q-187 0 -324 -47t-190 -123q-26 -39 -26 -82q0 -68 60.5 -122t168.5 -71q101 -14 201 -14q101 0 141 8q6 2 19 2q12 0 21 -3.5t9 -8.5q0 -13 -41 -27q-121 -41 -264 -41q-58 0 -109.5 8t-100.5 29t-84 52.5t-56 82t-21 115.5t26.5 118t69 88.5t103 62t120 41
t130 23t122.5 11t107 2.5q168 0 383 -32h2l17 51q2 8 22 8q53 0 81.5 -17t45.5 -59l-4 -12q349 -66 535 -66q44 0 95.5 5t123.5 18t119 45.5t47 79.5q0 25 -13 41q-4 4 -4 12q0 10 13 10q14 0 22 -14q21 -35 21 -64zM1417 1825q-236 -268 -248 -277h-14q-24 30 -69.5 87.5
t-82.5 103.5t-71 86q-2 2 -2 4q0 10 45 10q55 0 69 -14l138 -156q27 26 86.5 77t87.5 79q10 10 41 10q22 0 22 -6q0 -2 -2 -4z" />
    <glyph glyph-name="tcaron" unicode="&#x165;" horiz-adv-x="583" 
d="M444 285v-9q-4 -59 -27.5 -122.5t-70.5 -113.5t-104 -50q-47 0 -83 26.5t-56 65.5t-33 92t-17 97.5t-4 90.5v31q13 297 23 436h-64q-16 0 -16 21q0 11 7 22t17 11h60q17 220 43 284q10 25 38 41.5t70 16.5q18 0 58 -8q-24 -82 -47 -334h163q19 0 19 -23q0 -12 -7 -21.5
t-18 -9.5h-164q-21 -223 -24 -452v-47q0 -51 2 -90.5t9 -85t23 -71t40 -24.5h2q36 0 77 78q27 53 58 154q7 18 16 18q10 0 10 -24zM578 1343q0 -85 -33 -171t-88 -136q-15 -12 -25 -12q-12 0 -12 14q0 11 6 17q80 102 80 190q0 4 -1 11t-1 10q-15 -6 -35 -6
q-41 0 -69.5 28.5t-28.5 69.5t28.5 69.5t69.5 28.5q109 0 109 -113z" />
    <glyph glyph-name="Umacron" unicode="&#x16a;" horiz-adv-x="1316" 
d="M610 1389q0 61 -14 61q-20 0 -61 -98q-72 -180 -99 -498q78 120 126 264.5t48 270.5zM1303 -39h14q-1 -53 -33 -82t-78 -29q-51 0 -98 39t-68 111q-49 169 -49 477q0 37 2 55q-39 -141 -94 -262.5t-136.5 -216t-168.5 -112.5q-28 -7 -49 -7q-74 0 -130.5 53t-90.5 147.5
t-52.5 209t-23.5 252.5q-65 -41 -127 -41q-47 0 -87 33t-40 96q0 49 15 88t38 59q3 3 6 3q6 0 6 -11q0 -10 -8 -26q-16 -26 -16 -78q0 -25 4 -35q20 -63 86 -63q65 0 123 38q0 105 27.5 295.5t82.5 337.5q40 108 102.5 174t125.5 66q82 0 82 -150q0 -87 -19.5 -171t-56 -162
t-73.5 -138.5t-89 -132.5q-8 -112 -8 -248q0 -505 170 -505q6 0 26 4q58 13 112.5 71t98 146.5t77.5 191t59 215.5q31 135 45 207q29 337 84 500q2 8 22 8q53 0 81.5 -17t47.5 -59q-17 -76 -40 -206t-50 -357t-27 -395v-23q0 -372 105 -372q20 0 42.5 7t27.5 15zM1118 1624
q-4 -13 -13.5 -25t-21.5 -12h-397q-22 0 -22 31q0 12 2 18q11 37 34 37h400q22 0 22 -28q0 -9 -4 -21z" />
    <glyph glyph-name="umacron" unicode="&#x16b;" horiz-adv-x="759" 
d="M838 287v-8q-4 -59 -27.5 -122.5t-71 -114t-104.5 -50.5q-50 0 -88 29t-59 78t-32 99.5t-14 106.5q-33 -132 -77 -201q-35 -53 -77.5 -82.5t-82.5 -29.5q-46 0 -81 37.5t-52 111.5q-15 71 -15 201q0 138 16 280t40 207q10 27 38.5 44.5t71.5 17.5q31 0 62 -8
q-36 -140 -54 -293q-20 -160 -20 -287q0 -197 61 -197q53 0 92.5 88t63.5 214q11 59 31.5 209t34.5 212q6 26 36 44t74 18q31 0 62 -8q-26 -72 -47 -234.5t-21 -314.5q0 -271 78 -271h2q37 0 78 78q21 42 55 152q7 18 16 18q11 0 11 -24zM623 1176q-4 -13 -13.5 -25
t-21.5 -12h-398q-22 0 -22 30q0 13 2 19q4 13 13.5 25t21.5 12h399q23 0 23 -29q0 -8 -4 -20z" />
    <glyph glyph-name="Uring" unicode="&#x16e;" horiz-adv-x="1316" 
d="M610 1389q0 61 -14 61q-20 0 -61 -98q-72 -180 -99 -498q78 120 126 264.5t48 270.5zM1303 -39h14q-1 -53 -33 -82t-78 -29q-51 0 -98 39t-68 111q-49 169 -49 477q0 37 2 55q-39 -141 -94 -262.5t-136.5 -216t-168.5 -112.5q-28 -7 -49 -7q-74 0 -130.5 53t-90.5 147.5
t-52.5 209t-23.5 252.5q-65 -41 -127 -41q-47 0 -87 33t-40 96q0 49 15 88t38 59q3 3 6 3q6 0 6 -11q0 -10 -8 -26q-16 -26 -16 -78q0 -25 4 -35q20 -63 86 -63q65 0 123 38q0 105 27.5 295.5t82.5 337.5q40 108 102.5 174t125.5 66q82 0 82 -150q0 -87 -19.5 -171t-56 -162
t-73.5 -138.5t-89 -132.5q-8 -112 -8 -248q0 -505 170 -505q6 0 26 4q58 13 112.5 71t98 146.5t77.5 191t59 215.5q31 135 45 207q29 337 84 500q2 8 22 8q53 0 81.5 -17t47.5 -59q-17 -76 -40 -206t-50 -357t-27 -395v-23q0 -372 105 -372q20 0 42.5 7t27.5 15zM1016 1673
q0 43 -30 75t-71 32t-70.5 -32t-29.5 -75q0 -44 29.5 -75t70.5 -31t71 31t30 75zM1104 1671q0 -72 -55.5 -123t-133.5 -51t-133 51t-55 123q0 71 55 121.5t133 50.5t133.5 -50.5t55.5 -121.5z" />
    </font>
</defs>
</svg>
